G75*
%MOIN*%
%OFA0B0*%
%FSLAX25Y25*%
%IPPOS*%
%LPD*%
%AMOC8*
5,1,8,0,0,1.08239X$1,22.5*
%
%ADD10C,0.07400*%
%ADD11C,0.00800*%
D10*
X0020000Y0031500D03*
X0030000Y0031500D03*
X0030000Y0101500D03*
X0020000Y0101500D03*
X0120000Y0101500D03*
X0130000Y0101500D03*
X0130000Y0031500D03*
X0120000Y0031500D03*
D11*
X0009343Y0005843D02*
X0007872Y0007868D01*
X0007098Y0010249D01*
X0007000Y0011500D01*
X0007000Y0121500D01*
X0007098Y0122751D01*
X0007872Y0125132D01*
X0009343Y0127157D01*
X0011368Y0128628D01*
X0013749Y0129402D01*
X0015000Y0129500D01*
X0135000Y0129500D01*
X0136251Y0129402D01*
X0138632Y0128628D01*
X0140657Y0127157D01*
X0142128Y0125132D01*
X0142902Y0122751D01*
X0143000Y0121500D01*
X0143000Y0091000D01*
X0104172Y0091000D01*
X0103000Y0089828D01*
X0103000Y0085672D01*
X0104172Y0084500D01*
X0143000Y0084500D01*
X0143000Y0048500D01*
X0104172Y0048500D01*
X0103000Y0047328D01*
X0103000Y0043172D01*
X0104172Y0042000D01*
X0143000Y0042000D01*
X0143000Y0011500D01*
X0142902Y0010249D01*
X0142128Y0007868D01*
X0140657Y0005843D01*
X0138632Y0004372D01*
X0136251Y0003598D01*
X0135000Y0003500D01*
X0015000Y0003500D01*
X0013749Y0003598D01*
X0011368Y0004372D01*
X0009343Y0005843D01*
X0009018Y0006291D02*
X0140982Y0006291D01*
X0141562Y0007090D02*
X0008438Y0007090D01*
X0007865Y0007888D02*
X0142135Y0007888D01*
X0142394Y0008687D02*
X0007606Y0008687D01*
X0007347Y0009485D02*
X0142653Y0009485D01*
X0142904Y0010284D02*
X0007096Y0010284D01*
X0007033Y0011082D02*
X0142967Y0011082D01*
X0143000Y0011881D02*
X0007000Y0011881D01*
X0007000Y0012679D02*
X0143000Y0012679D01*
X0143000Y0013478D02*
X0007000Y0013478D01*
X0007000Y0014276D02*
X0143000Y0014276D01*
X0143000Y0015075D02*
X0007000Y0015075D01*
X0007000Y0015873D02*
X0143000Y0015873D01*
X0143000Y0016672D02*
X0007000Y0016672D01*
X0007000Y0017470D02*
X0143000Y0017470D01*
X0143000Y0018269D02*
X0007000Y0018269D01*
X0007000Y0019067D02*
X0143000Y0019067D01*
X0143000Y0019866D02*
X0007000Y0019866D01*
X0007000Y0020664D02*
X0143000Y0020664D01*
X0143000Y0021463D02*
X0007000Y0021463D01*
X0007000Y0022261D02*
X0143000Y0022261D01*
X0143000Y0023060D02*
X0007000Y0023060D01*
X0007000Y0023858D02*
X0143000Y0023858D01*
X0143000Y0024657D02*
X0007000Y0024657D01*
X0007000Y0025455D02*
X0143000Y0025455D01*
X0143000Y0026254D02*
X0131184Y0026254D01*
X0131054Y0026200D02*
X0133002Y0027007D01*
X0134493Y0028498D01*
X0135300Y0030446D01*
X0135300Y0032554D01*
X0134493Y0034502D01*
X0133002Y0035993D01*
X0131054Y0036800D01*
X0128946Y0036800D01*
X0126998Y0035993D01*
X0125507Y0034502D01*
X0125000Y0033278D01*
X0124493Y0034502D01*
X0123002Y0035993D01*
X0121054Y0036800D01*
X0118946Y0036800D01*
X0116998Y0035993D01*
X0115507Y0034502D01*
X0114700Y0032554D01*
X0114700Y0030446D01*
X0115507Y0028498D01*
X0116998Y0027007D01*
X0118946Y0026200D01*
X0121054Y0026200D01*
X0123002Y0027007D01*
X0124493Y0028498D01*
X0125000Y0029722D01*
X0125507Y0028498D01*
X0126998Y0027007D01*
X0128946Y0026200D01*
X0131054Y0026200D01*
X0133048Y0027052D02*
X0143000Y0027052D01*
X0143000Y0027851D02*
X0133846Y0027851D01*
X0134556Y0028649D02*
X0143000Y0028649D01*
X0143000Y0029448D02*
X0134887Y0029448D01*
X0135217Y0030246D02*
X0143000Y0030246D01*
X0143000Y0031045D02*
X0135300Y0031045D01*
X0135300Y0031843D02*
X0143000Y0031843D01*
X0143000Y0032642D02*
X0135264Y0032642D01*
X0134933Y0033440D02*
X0143000Y0033440D01*
X0143000Y0034239D02*
X0134602Y0034239D01*
X0133958Y0035037D02*
X0143000Y0035037D01*
X0143000Y0035836D02*
X0133159Y0035836D01*
X0131454Y0036634D02*
X0143000Y0036634D01*
X0143000Y0037433D02*
X0007000Y0037433D01*
X0007000Y0036634D02*
X0018546Y0036634D01*
X0018946Y0036800D02*
X0016998Y0035993D01*
X0015507Y0034502D01*
X0014700Y0032554D01*
X0014700Y0030446D01*
X0015507Y0028498D01*
X0016998Y0027007D01*
X0018946Y0026200D01*
X0021054Y0026200D01*
X0023002Y0027007D01*
X0024493Y0028498D01*
X0025000Y0029722D01*
X0025507Y0028498D01*
X0026998Y0027007D01*
X0028946Y0026200D01*
X0031054Y0026200D01*
X0033002Y0027007D01*
X0034493Y0028498D01*
X0035300Y0030446D01*
X0035300Y0032554D01*
X0034493Y0034502D01*
X0033002Y0035993D01*
X0031054Y0036800D01*
X0028946Y0036800D01*
X0026998Y0035993D01*
X0025507Y0034502D01*
X0025000Y0033278D01*
X0024493Y0034502D01*
X0023002Y0035993D01*
X0021054Y0036800D01*
X0018946Y0036800D01*
X0016841Y0035836D02*
X0007000Y0035836D01*
X0007000Y0035037D02*
X0016042Y0035037D01*
X0015398Y0034239D02*
X0007000Y0034239D01*
X0007000Y0033440D02*
X0015067Y0033440D01*
X0014736Y0032642D02*
X0007000Y0032642D01*
X0007000Y0031843D02*
X0014700Y0031843D01*
X0014700Y0031045D02*
X0007000Y0031045D01*
X0007000Y0030246D02*
X0014783Y0030246D01*
X0015113Y0029448D02*
X0007000Y0029448D01*
X0007000Y0028649D02*
X0015444Y0028649D01*
X0016154Y0027851D02*
X0007000Y0027851D01*
X0007000Y0027052D02*
X0016952Y0027052D01*
X0018816Y0026254D02*
X0007000Y0026254D01*
X0007000Y0038232D02*
X0143000Y0038232D01*
X0143000Y0039030D02*
X0007000Y0039030D01*
X0007000Y0039829D02*
X0143000Y0039829D01*
X0143000Y0040627D02*
X0007000Y0040627D01*
X0007000Y0041426D02*
X0143000Y0041426D01*
X0143000Y0048612D02*
X0059565Y0048612D01*
X0059473Y0048704D02*
X0058517Y0049100D01*
X0057483Y0049100D01*
X0056527Y0048704D01*
X0055796Y0047973D01*
X0055400Y0047017D01*
X0055400Y0045983D01*
X0055796Y0045027D01*
X0056527Y0044296D01*
X0057483Y0043900D01*
X0058517Y0043900D01*
X0059473Y0044296D01*
X0060204Y0045027D01*
X0060600Y0045983D01*
X0060600Y0047017D01*
X0060204Y0047973D01*
X0059473Y0048704D01*
X0059527Y0049296D02*
X0060483Y0048900D01*
X0061517Y0048900D01*
X0062473Y0049296D01*
X0063204Y0050027D01*
X0063600Y0050983D01*
X0063600Y0052017D01*
X0063204Y0052973D01*
X0062473Y0053704D01*
X0061517Y0054100D01*
X0060483Y0054100D01*
X0059527Y0053704D01*
X0058796Y0052973D01*
X0058400Y0052017D01*
X0058400Y0050983D01*
X0058796Y0050027D01*
X0059527Y0049296D01*
X0059412Y0049411D02*
X0056588Y0049411D01*
X0056473Y0049296D02*
X0057204Y0050027D01*
X0057600Y0050983D01*
X0057600Y0052017D01*
X0057204Y0052973D01*
X0056473Y0053704D01*
X0055517Y0054100D01*
X0054483Y0054100D01*
X0053527Y0053704D01*
X0052796Y0052973D01*
X0052400Y0052017D01*
X0052400Y0050983D01*
X0052796Y0050027D01*
X0053527Y0049296D01*
X0054483Y0048900D01*
X0055517Y0048900D01*
X0056473Y0049296D01*
X0056435Y0048612D02*
X0053565Y0048612D01*
X0053473Y0048704D02*
X0052517Y0049100D01*
X0051483Y0049100D01*
X0050527Y0048704D01*
X0049796Y0047973D01*
X0049400Y0047017D01*
X0049400Y0045983D01*
X0049796Y0045027D01*
X0050527Y0044296D01*
X0051483Y0043900D01*
X0052517Y0043900D01*
X0053473Y0044296D01*
X0054204Y0045027D01*
X0054600Y0045983D01*
X0054600Y0047017D01*
X0054204Y0047973D01*
X0053473Y0048704D01*
X0053412Y0049411D02*
X0050588Y0049411D01*
X0050473Y0049296D02*
X0051204Y0050027D01*
X0051600Y0050983D01*
X0051600Y0052017D01*
X0051204Y0052973D01*
X0050473Y0053704D01*
X0049517Y0054100D01*
X0048483Y0054100D01*
X0047527Y0053704D01*
X0046796Y0052973D01*
X0046400Y0052017D01*
X0046400Y0050983D01*
X0046796Y0050027D01*
X0047527Y0049296D01*
X0048483Y0048900D01*
X0049517Y0048900D01*
X0050473Y0049296D01*
X0050435Y0048612D02*
X0007000Y0048612D01*
X0007000Y0047814D02*
X0049730Y0047814D01*
X0049400Y0047015D02*
X0007000Y0047015D01*
X0007000Y0046217D02*
X0049400Y0046217D01*
X0049634Y0045418D02*
X0007000Y0045418D01*
X0007000Y0044620D02*
X0050203Y0044620D01*
X0053797Y0044620D02*
X0056203Y0044620D01*
X0055634Y0045418D02*
X0054366Y0045418D01*
X0054600Y0046217D02*
X0055400Y0046217D01*
X0055400Y0047015D02*
X0054600Y0047015D01*
X0054270Y0047814D02*
X0055730Y0047814D01*
X0057280Y0050209D02*
X0058720Y0050209D01*
X0058400Y0051008D02*
X0057600Y0051008D01*
X0057600Y0051806D02*
X0058400Y0051806D01*
X0058643Y0052605D02*
X0057357Y0052605D01*
X0056774Y0053403D02*
X0059226Y0053403D01*
X0059246Y0054202D02*
X0077621Y0054202D01*
X0077296Y0054527D02*
X0078027Y0053796D01*
X0078983Y0053400D01*
X0080017Y0053400D01*
X0080973Y0053796D01*
X0081704Y0054527D01*
X0082100Y0055483D01*
X0082100Y0056517D01*
X0081704Y0057473D01*
X0080973Y0058204D01*
X0080017Y0058600D01*
X0078983Y0058600D01*
X0078027Y0058204D01*
X0077296Y0057473D01*
X0076900Y0056517D01*
X0076900Y0055483D01*
X0077296Y0054527D01*
X0077100Y0055000D02*
X0060177Y0055000D01*
X0060204Y0055027D02*
X0060600Y0055983D01*
X0060600Y0057017D01*
X0060204Y0057973D01*
X0059473Y0058704D01*
X0058517Y0059100D01*
X0057483Y0059100D01*
X0056527Y0058704D01*
X0055796Y0057973D01*
X0055400Y0057017D01*
X0055400Y0055983D01*
X0055796Y0055027D01*
X0056527Y0054296D01*
X0057483Y0053900D01*
X0058517Y0053900D01*
X0059473Y0054296D01*
X0060204Y0055027D01*
X0060524Y0055799D02*
X0076900Y0055799D01*
X0076933Y0056597D02*
X0060600Y0056597D01*
X0060443Y0057396D02*
X0077264Y0057396D01*
X0078017Y0058194D02*
X0059983Y0058194D01*
X0058776Y0058993D02*
X0080830Y0058993D01*
X0081027Y0058796D02*
X0081983Y0058400D01*
X0083017Y0058400D01*
X0083973Y0058796D01*
X0084704Y0059527D01*
X0085100Y0060483D01*
X0085100Y0061517D01*
X0084704Y0062473D01*
X0083973Y0063204D01*
X0083017Y0063600D01*
X0081983Y0063600D01*
X0081027Y0063204D01*
X0080296Y0062473D01*
X0079900Y0061517D01*
X0079900Y0060483D01*
X0080296Y0059527D01*
X0081027Y0058796D01*
X0080983Y0058194D02*
X0084017Y0058194D01*
X0084027Y0058204D02*
X0083296Y0057473D01*
X0082900Y0056517D01*
X0082900Y0055483D01*
X0083296Y0054527D01*
X0084027Y0053796D01*
X0084983Y0053400D01*
X0086017Y0053400D01*
X0086973Y0053796D01*
X0087704Y0054527D01*
X0088100Y0055483D01*
X0088100Y0056517D01*
X0087704Y0057473D01*
X0086973Y0058204D01*
X0086017Y0058600D01*
X0084983Y0058600D01*
X0084027Y0058204D01*
X0084170Y0058993D02*
X0086830Y0058993D01*
X0087027Y0058796D02*
X0087983Y0058400D01*
X0089017Y0058400D01*
X0089973Y0058796D01*
X0090704Y0059527D01*
X0091100Y0060483D01*
X0091100Y0061517D01*
X0090704Y0062473D01*
X0089973Y0063204D01*
X0089017Y0063600D01*
X0087983Y0063600D01*
X0087027Y0063204D01*
X0086296Y0062473D01*
X0085900Y0061517D01*
X0085900Y0060483D01*
X0086296Y0059527D01*
X0087027Y0058796D01*
X0086983Y0058194D02*
X0090017Y0058194D01*
X0090027Y0058204D02*
X0089296Y0057473D01*
X0088900Y0056517D01*
X0088900Y0055483D01*
X0089296Y0054527D01*
X0090027Y0053796D01*
X0090983Y0053400D01*
X0092017Y0053400D01*
X0092973Y0053796D01*
X0093704Y0054527D01*
X0094100Y0055483D01*
X0094100Y0056517D01*
X0093704Y0057473D01*
X0092973Y0058204D01*
X0092017Y0058600D01*
X0090983Y0058600D01*
X0090027Y0058204D01*
X0090170Y0058993D02*
X0092830Y0058993D01*
X0093027Y0058796D02*
X0093983Y0058400D01*
X0095017Y0058400D01*
X0095973Y0058796D01*
X0096704Y0059527D01*
X0097100Y0060483D01*
X0097100Y0061517D01*
X0096704Y0062473D01*
X0095973Y0063204D01*
X0095017Y0063600D01*
X0093983Y0063600D01*
X0093027Y0063204D01*
X0092296Y0062473D01*
X0091900Y0061517D01*
X0091900Y0060483D01*
X0092296Y0059527D01*
X0093027Y0058796D01*
X0092983Y0058194D02*
X0096017Y0058194D01*
X0096027Y0058204D02*
X0095296Y0057473D01*
X0094900Y0056517D01*
X0094900Y0055483D01*
X0095296Y0054527D01*
X0096027Y0053796D01*
X0096983Y0053400D01*
X0098017Y0053400D01*
X0098973Y0053796D01*
X0099704Y0054527D01*
X0100100Y0055483D01*
X0100100Y0056517D01*
X0099704Y0057473D01*
X0098973Y0058204D01*
X0098017Y0058600D01*
X0096983Y0058600D01*
X0096027Y0058204D01*
X0096170Y0058993D02*
X0111500Y0058993D01*
X0111500Y0059791D02*
X0096814Y0059791D01*
X0097100Y0060590D02*
X0111500Y0060590D01*
X0111500Y0061388D02*
X0097100Y0061388D01*
X0096823Y0062187D02*
X0111500Y0062187D01*
X0111500Y0062985D02*
X0096192Y0062985D01*
X0096056Y0063784D02*
X0092944Y0063784D01*
X0092973Y0063796D02*
X0093704Y0064527D01*
X0094100Y0065483D01*
X0094100Y0066517D01*
X0093704Y0067473D01*
X0092973Y0068204D01*
X0092017Y0068600D01*
X0090983Y0068600D01*
X0090027Y0068204D01*
X0089296Y0067473D01*
X0088900Y0066517D01*
X0088900Y0065483D01*
X0089296Y0064527D01*
X0090027Y0063796D01*
X0090983Y0063400D01*
X0092017Y0063400D01*
X0092973Y0063796D01*
X0092808Y0062985D02*
X0090192Y0062985D01*
X0090056Y0063784D02*
X0086944Y0063784D01*
X0086973Y0063796D02*
X0087704Y0064527D01*
X0088100Y0065483D01*
X0088100Y0066517D01*
X0087704Y0067473D01*
X0086973Y0068204D01*
X0086017Y0068600D01*
X0084983Y0068600D01*
X0084027Y0068204D01*
X0083296Y0067473D01*
X0082900Y0066517D01*
X0082900Y0065483D01*
X0083296Y0064527D01*
X0084027Y0063796D01*
X0084983Y0063400D01*
X0086017Y0063400D01*
X0086973Y0063796D01*
X0086808Y0062985D02*
X0084192Y0062985D01*
X0084056Y0063784D02*
X0080944Y0063784D01*
X0080973Y0063796D02*
X0081704Y0064527D01*
X0082100Y0065483D01*
X0082100Y0066517D01*
X0081704Y0067473D01*
X0080973Y0068204D01*
X0080017Y0068600D01*
X0078983Y0068600D01*
X0078027Y0068204D01*
X0077296Y0067473D01*
X0076900Y0066517D01*
X0076900Y0065483D01*
X0077296Y0064527D01*
X0078027Y0063796D01*
X0078983Y0063400D01*
X0080017Y0063400D01*
X0080973Y0063796D01*
X0080808Y0062985D02*
X0007000Y0062985D01*
X0007000Y0062187D02*
X0080177Y0062187D01*
X0079900Y0061388D02*
X0007000Y0061388D01*
X0007000Y0060590D02*
X0079900Y0060590D01*
X0080186Y0059791D02*
X0007000Y0059791D01*
X0007000Y0058993D02*
X0051224Y0058993D01*
X0051483Y0059100D02*
X0050527Y0058704D01*
X0049796Y0057973D01*
X0049400Y0057017D01*
X0049400Y0055983D01*
X0049796Y0055027D01*
X0050527Y0054296D01*
X0051483Y0053900D01*
X0052517Y0053900D01*
X0053473Y0054296D01*
X0054204Y0055027D01*
X0054600Y0055983D01*
X0054600Y0057017D01*
X0054204Y0057973D01*
X0053473Y0058704D01*
X0052517Y0059100D01*
X0051483Y0059100D01*
X0052776Y0058993D02*
X0057224Y0058993D01*
X0056017Y0058194D02*
X0053983Y0058194D01*
X0054443Y0057396D02*
X0055557Y0057396D01*
X0055400Y0056597D02*
X0054600Y0056597D01*
X0054524Y0055799D02*
X0055476Y0055799D01*
X0055823Y0055000D02*
X0054177Y0055000D01*
X0053246Y0054202D02*
X0056754Y0054202D01*
X0053226Y0053403D02*
X0050774Y0053403D01*
X0050754Y0054202D02*
X0007000Y0054202D01*
X0007000Y0055000D02*
X0049823Y0055000D01*
X0049476Y0055799D02*
X0007000Y0055799D01*
X0007000Y0056597D02*
X0049400Y0056597D01*
X0049557Y0057396D02*
X0007000Y0057396D01*
X0007000Y0058194D02*
X0050017Y0058194D01*
X0047226Y0053403D02*
X0007000Y0053403D01*
X0007000Y0052605D02*
X0046643Y0052605D01*
X0046400Y0051806D02*
X0007000Y0051806D01*
X0007000Y0051008D02*
X0046400Y0051008D01*
X0046720Y0050209D02*
X0007000Y0050209D01*
X0007000Y0049411D02*
X0047412Y0049411D01*
X0051280Y0050209D02*
X0052720Y0050209D01*
X0052400Y0051008D02*
X0051600Y0051008D01*
X0051600Y0051806D02*
X0052400Y0051806D01*
X0052643Y0052605D02*
X0051357Y0052605D01*
X0060270Y0047814D02*
X0103485Y0047814D01*
X0103000Y0047015D02*
X0060600Y0047015D01*
X0060600Y0046217D02*
X0103000Y0046217D01*
X0103000Y0045418D02*
X0060366Y0045418D01*
X0059797Y0044620D02*
X0103000Y0044620D01*
X0103000Y0043821D02*
X0007000Y0043821D01*
X0007000Y0043023D02*
X0103149Y0043023D01*
X0103947Y0042224D02*
X0007000Y0042224D01*
X0021454Y0036634D02*
X0028546Y0036634D01*
X0026841Y0035836D02*
X0023159Y0035836D01*
X0023958Y0035037D02*
X0026042Y0035037D01*
X0025398Y0034239D02*
X0024602Y0034239D01*
X0024933Y0033440D02*
X0025067Y0033440D01*
X0025113Y0029448D02*
X0024887Y0029448D01*
X0024556Y0028649D02*
X0025444Y0028649D01*
X0026154Y0027851D02*
X0023846Y0027851D01*
X0023048Y0027052D02*
X0026952Y0027052D01*
X0028816Y0026254D02*
X0021184Y0026254D01*
X0031184Y0026254D02*
X0118816Y0026254D01*
X0121184Y0026254D02*
X0128816Y0026254D01*
X0126952Y0027052D02*
X0123048Y0027052D01*
X0123846Y0027851D02*
X0126154Y0027851D01*
X0125444Y0028649D02*
X0124556Y0028649D01*
X0124887Y0029448D02*
X0125113Y0029448D01*
X0125067Y0033440D02*
X0124933Y0033440D01*
X0124602Y0034239D02*
X0125398Y0034239D01*
X0126042Y0035037D02*
X0123958Y0035037D01*
X0123159Y0035836D02*
X0126841Y0035836D01*
X0128546Y0036634D02*
X0121454Y0036634D01*
X0118546Y0036634D02*
X0031454Y0036634D01*
X0033159Y0035836D02*
X0116841Y0035836D01*
X0116042Y0035037D02*
X0033958Y0035037D01*
X0034602Y0034239D02*
X0115398Y0034239D01*
X0115067Y0033440D02*
X0034933Y0033440D01*
X0035264Y0032642D02*
X0114736Y0032642D01*
X0114700Y0031843D02*
X0035300Y0031843D01*
X0035300Y0031045D02*
X0114700Y0031045D01*
X0114783Y0030246D02*
X0035217Y0030246D01*
X0034887Y0029448D02*
X0115113Y0029448D01*
X0115444Y0028649D02*
X0034556Y0028649D01*
X0033846Y0027851D02*
X0116154Y0027851D01*
X0116952Y0027052D02*
X0033048Y0027052D01*
X0010925Y0004694D02*
X0139075Y0004694D01*
X0140174Y0005493D02*
X0009826Y0005493D01*
X0012834Y0003896D02*
X0137166Y0003896D01*
X0143000Y0049411D02*
X0062588Y0049411D01*
X0063280Y0050209D02*
X0143000Y0050209D01*
X0143000Y0051008D02*
X0063600Y0051008D01*
X0063600Y0051806D02*
X0143000Y0051806D01*
X0143000Y0052605D02*
X0063357Y0052605D01*
X0062774Y0053403D02*
X0078975Y0053403D01*
X0080025Y0053403D02*
X0084975Y0053403D01*
X0086025Y0053403D02*
X0090975Y0053403D01*
X0092025Y0053403D02*
X0096975Y0053403D01*
X0098025Y0053403D02*
X0143000Y0053403D01*
X0143000Y0054202D02*
X0137030Y0054202D01*
X0137500Y0054672D02*
X0137500Y0078328D01*
X0136328Y0079500D01*
X0112672Y0079500D01*
X0111500Y0078328D01*
X0111500Y0054672D01*
X0112672Y0053500D01*
X0114328Y0053500D01*
X0136328Y0053500D01*
X0137500Y0054672D01*
X0137500Y0055000D02*
X0143000Y0055000D01*
X0143000Y0055799D02*
X0137500Y0055799D01*
X0137500Y0056597D02*
X0143000Y0056597D01*
X0143000Y0057396D02*
X0137500Y0057396D01*
X0137500Y0058194D02*
X0143000Y0058194D01*
X0143000Y0058993D02*
X0137500Y0058993D01*
X0137500Y0059791D02*
X0143000Y0059791D01*
X0143000Y0060590D02*
X0137500Y0060590D01*
X0137500Y0061388D02*
X0143000Y0061388D01*
X0143000Y0062187D02*
X0137500Y0062187D01*
X0137500Y0062985D02*
X0143000Y0062985D01*
X0143000Y0063784D02*
X0137500Y0063784D01*
X0137500Y0064582D02*
X0143000Y0064582D01*
X0143000Y0065381D02*
X0137500Y0065381D01*
X0137500Y0066179D02*
X0143000Y0066179D01*
X0143000Y0066978D02*
X0137500Y0066978D01*
X0137500Y0067776D02*
X0143000Y0067776D01*
X0143000Y0068575D02*
X0137500Y0068575D01*
X0137500Y0069373D02*
X0143000Y0069373D01*
X0143000Y0070172D02*
X0137500Y0070172D01*
X0137500Y0070970D02*
X0143000Y0070970D01*
X0143000Y0071769D02*
X0137500Y0071769D01*
X0137500Y0072568D02*
X0143000Y0072568D01*
X0143000Y0073366D02*
X0137500Y0073366D01*
X0137500Y0074165D02*
X0143000Y0074165D01*
X0143000Y0074963D02*
X0137500Y0074963D01*
X0137500Y0075762D02*
X0143000Y0075762D01*
X0143000Y0076560D02*
X0137500Y0076560D01*
X0137500Y0077359D02*
X0143000Y0077359D01*
X0143000Y0078157D02*
X0137500Y0078157D01*
X0136873Y0078956D02*
X0143000Y0078956D01*
X0143000Y0079754D02*
X0007000Y0079754D01*
X0007000Y0078956D02*
X0112127Y0078956D01*
X0111500Y0078157D02*
X0099020Y0078157D01*
X0098973Y0078204D02*
X0098017Y0078600D01*
X0096983Y0078600D01*
X0096027Y0078204D01*
X0095296Y0077473D01*
X0094900Y0076517D01*
X0094900Y0075483D01*
X0095296Y0074527D01*
X0096027Y0073796D01*
X0096983Y0073400D01*
X0098017Y0073400D01*
X0098973Y0073796D01*
X0099704Y0074527D01*
X0100100Y0075483D01*
X0100100Y0076517D01*
X0099704Y0077473D01*
X0098973Y0078204D01*
X0099751Y0077359D02*
X0111500Y0077359D01*
X0111500Y0076560D02*
X0100082Y0076560D01*
X0100100Y0075762D02*
X0111500Y0075762D01*
X0111500Y0074963D02*
X0099885Y0074963D01*
X0099341Y0074165D02*
X0111500Y0074165D01*
X0111500Y0073366D02*
X0095582Y0073366D01*
X0095973Y0073204D02*
X0095017Y0073600D01*
X0093983Y0073600D01*
X0093027Y0073204D01*
X0092296Y0072473D01*
X0091900Y0071517D01*
X0091900Y0070483D01*
X0092296Y0069527D01*
X0093027Y0068796D01*
X0093983Y0068400D01*
X0095017Y0068400D01*
X0095973Y0068796D01*
X0096704Y0069527D01*
X0097100Y0070483D01*
X0097100Y0071517D01*
X0096704Y0072473D01*
X0095973Y0073204D01*
X0096609Y0072568D02*
X0111500Y0072568D01*
X0111500Y0071769D02*
X0096996Y0071769D01*
X0097100Y0070970D02*
X0111500Y0070970D01*
X0111500Y0070172D02*
X0096971Y0070172D01*
X0096550Y0069373D02*
X0111500Y0069373D01*
X0111500Y0068575D02*
X0098078Y0068575D01*
X0098017Y0068600D02*
X0096983Y0068600D01*
X0096027Y0068204D01*
X0095296Y0067473D01*
X0094900Y0066517D01*
X0094900Y0065483D01*
X0095296Y0064527D01*
X0096027Y0063796D01*
X0096983Y0063400D01*
X0098017Y0063400D01*
X0098973Y0063796D01*
X0099704Y0064527D01*
X0100100Y0065483D01*
X0100100Y0066517D01*
X0099704Y0067473D01*
X0098973Y0068204D01*
X0098017Y0068600D01*
X0096922Y0068575D02*
X0095440Y0068575D01*
X0095599Y0067776D02*
X0093400Y0067776D01*
X0093560Y0068575D02*
X0092078Y0068575D01*
X0092450Y0069373D02*
X0090550Y0069373D01*
X0090704Y0069527D02*
X0091100Y0070483D01*
X0091100Y0071517D01*
X0090704Y0072473D01*
X0089973Y0073204D01*
X0089017Y0073600D01*
X0087983Y0073600D01*
X0087027Y0073204D01*
X0086296Y0072473D01*
X0085900Y0071517D01*
X0085900Y0070483D01*
X0086296Y0069527D01*
X0087027Y0068796D01*
X0087983Y0068400D01*
X0089017Y0068400D01*
X0089973Y0068796D01*
X0090704Y0069527D01*
X0090971Y0070172D02*
X0092029Y0070172D01*
X0091900Y0070970D02*
X0091100Y0070970D01*
X0090996Y0071769D02*
X0092004Y0071769D01*
X0092391Y0072568D02*
X0090609Y0072568D01*
X0090983Y0073400D02*
X0090027Y0073796D01*
X0089296Y0074527D01*
X0088900Y0075483D01*
X0088900Y0076517D01*
X0089296Y0077473D01*
X0090027Y0078204D01*
X0090983Y0078600D01*
X0092017Y0078600D01*
X0092973Y0078204D01*
X0093704Y0077473D01*
X0094100Y0076517D01*
X0094100Y0075483D01*
X0093704Y0074527D01*
X0092973Y0073796D01*
X0092017Y0073400D01*
X0090983Y0073400D01*
X0089582Y0073366D02*
X0093418Y0073366D01*
X0093341Y0074165D02*
X0095659Y0074165D01*
X0095115Y0074963D02*
X0093885Y0074963D01*
X0094100Y0075762D02*
X0094900Y0075762D01*
X0094918Y0076560D02*
X0094082Y0076560D01*
X0093751Y0077359D02*
X0095249Y0077359D01*
X0095980Y0078157D02*
X0093020Y0078157D01*
X0089980Y0078157D02*
X0087020Y0078157D01*
X0086973Y0078204D02*
X0086017Y0078600D01*
X0084983Y0078600D01*
X0084027Y0078204D01*
X0083296Y0077473D01*
X0082900Y0076517D01*
X0082900Y0075483D01*
X0083296Y0074527D01*
X0084027Y0073796D01*
X0084983Y0073400D01*
X0086017Y0073400D01*
X0086973Y0073796D01*
X0087704Y0074527D01*
X0088100Y0075483D01*
X0088100Y0076517D01*
X0087704Y0077473D01*
X0086973Y0078204D01*
X0087751Y0077359D02*
X0089249Y0077359D01*
X0088918Y0076560D02*
X0088082Y0076560D01*
X0088100Y0075762D02*
X0088900Y0075762D01*
X0089115Y0074963D02*
X0087885Y0074963D01*
X0087341Y0074165D02*
X0089659Y0074165D01*
X0087418Y0073366D02*
X0083582Y0073366D01*
X0083973Y0073204D02*
X0083017Y0073600D01*
X0081983Y0073600D01*
X0081027Y0073204D01*
X0080296Y0072473D01*
X0079900Y0071517D01*
X0079900Y0070483D01*
X0080296Y0069527D01*
X0081027Y0068796D01*
X0081983Y0068400D01*
X0083017Y0068400D01*
X0083973Y0068796D01*
X0084704Y0069527D01*
X0085100Y0070483D01*
X0085100Y0071517D01*
X0084704Y0072473D01*
X0083973Y0073204D01*
X0084609Y0072568D02*
X0086391Y0072568D01*
X0086004Y0071769D02*
X0084996Y0071769D01*
X0085100Y0070970D02*
X0085900Y0070970D01*
X0086029Y0070172D02*
X0084971Y0070172D01*
X0084550Y0069373D02*
X0086450Y0069373D01*
X0086078Y0068575D02*
X0087560Y0068575D01*
X0087400Y0067776D02*
X0089599Y0067776D01*
X0089440Y0068575D02*
X0090922Y0068575D01*
X0089091Y0066978D02*
X0087909Y0066978D01*
X0088100Y0066179D02*
X0088900Y0066179D01*
X0088942Y0065381D02*
X0088058Y0065381D01*
X0087727Y0064582D02*
X0089273Y0064582D01*
X0090823Y0062187D02*
X0092177Y0062187D01*
X0091900Y0061388D02*
X0091100Y0061388D01*
X0091100Y0060590D02*
X0091900Y0060590D01*
X0092186Y0059791D02*
X0090814Y0059791D01*
X0089264Y0057396D02*
X0087736Y0057396D01*
X0088067Y0056597D02*
X0088933Y0056597D01*
X0088900Y0055799D02*
X0088100Y0055799D01*
X0087900Y0055000D02*
X0089100Y0055000D01*
X0089621Y0054202D02*
X0087379Y0054202D01*
X0083621Y0054202D02*
X0081379Y0054202D01*
X0081900Y0055000D02*
X0083100Y0055000D01*
X0082900Y0055799D02*
X0082100Y0055799D01*
X0082067Y0056597D02*
X0082933Y0056597D01*
X0083264Y0057396D02*
X0081736Y0057396D01*
X0084814Y0059791D02*
X0086186Y0059791D01*
X0085900Y0060590D02*
X0085100Y0060590D01*
X0085100Y0061388D02*
X0085900Y0061388D01*
X0086177Y0062187D02*
X0084823Y0062187D01*
X0083273Y0064582D02*
X0081727Y0064582D01*
X0082058Y0065381D02*
X0082942Y0065381D01*
X0082900Y0066179D02*
X0082100Y0066179D01*
X0081909Y0066978D02*
X0083091Y0066978D01*
X0083599Y0067776D02*
X0081400Y0067776D01*
X0081560Y0068575D02*
X0080078Y0068575D01*
X0080450Y0069373D02*
X0007000Y0069373D01*
X0007000Y0068575D02*
X0078922Y0068575D01*
X0077599Y0067776D02*
X0007000Y0067776D01*
X0007000Y0066978D02*
X0077091Y0066978D01*
X0076900Y0066179D02*
X0007000Y0066179D01*
X0007000Y0065381D02*
X0076942Y0065381D01*
X0077273Y0064582D02*
X0007000Y0064582D01*
X0007000Y0063784D02*
X0078056Y0063784D01*
X0083440Y0068575D02*
X0084922Y0068575D01*
X0080029Y0070172D02*
X0007000Y0070172D01*
X0007000Y0070970D02*
X0079900Y0070970D01*
X0080004Y0071769D02*
X0007000Y0071769D01*
X0007000Y0072568D02*
X0080391Y0072568D01*
X0080017Y0073400D02*
X0078983Y0073400D01*
X0078027Y0073796D01*
X0077296Y0074527D01*
X0076900Y0075483D01*
X0076900Y0076517D01*
X0077296Y0077473D01*
X0078027Y0078204D01*
X0078983Y0078600D01*
X0080017Y0078600D01*
X0080973Y0078204D01*
X0081704Y0077473D01*
X0082100Y0076517D01*
X0082100Y0075483D01*
X0081704Y0074527D01*
X0080973Y0073796D01*
X0080017Y0073400D01*
X0081418Y0073366D02*
X0007000Y0073366D01*
X0007000Y0074165D02*
X0077659Y0074165D01*
X0077115Y0074963D02*
X0007000Y0074963D01*
X0007000Y0075762D02*
X0076900Y0075762D01*
X0076918Y0076560D02*
X0007000Y0076560D01*
X0007000Y0077359D02*
X0077249Y0077359D01*
X0077980Y0078157D02*
X0007000Y0078157D01*
X0007000Y0080553D02*
X0143000Y0080553D01*
X0143000Y0081351D02*
X0007000Y0081351D01*
X0007000Y0082150D02*
X0036522Y0082150D01*
X0036672Y0082000D02*
X0035500Y0083172D01*
X0035500Y0099828D01*
X0036672Y0101000D01*
X0053328Y0101000D01*
X0054500Y0099828D01*
X0054500Y0083172D01*
X0053328Y0082000D01*
X0038328Y0082000D01*
X0036672Y0082000D01*
X0035723Y0082948D02*
X0007000Y0082948D01*
X0007000Y0083747D02*
X0035500Y0083747D01*
X0035500Y0084545D02*
X0007000Y0084545D01*
X0007000Y0085344D02*
X0035500Y0085344D01*
X0035500Y0086142D02*
X0007000Y0086142D01*
X0007000Y0086941D02*
X0035500Y0086941D01*
X0035500Y0087739D02*
X0007000Y0087739D01*
X0007000Y0088538D02*
X0035500Y0088538D01*
X0035500Y0089336D02*
X0007000Y0089336D01*
X0007000Y0090135D02*
X0035500Y0090135D01*
X0035500Y0090933D02*
X0007000Y0090933D01*
X0007000Y0091732D02*
X0035500Y0091732D01*
X0035500Y0092530D02*
X0007000Y0092530D01*
X0007000Y0093329D02*
X0035500Y0093329D01*
X0035500Y0094127D02*
X0007000Y0094127D01*
X0007000Y0094926D02*
X0035500Y0094926D01*
X0035500Y0095724D02*
X0007000Y0095724D01*
X0007000Y0096523D02*
X0018166Y0096523D01*
X0018946Y0096200D02*
X0021054Y0096200D01*
X0023002Y0097007D01*
X0024493Y0098498D01*
X0025000Y0099722D01*
X0025507Y0098498D01*
X0026998Y0097007D01*
X0028946Y0096200D01*
X0031054Y0096200D01*
X0033002Y0097007D01*
X0034493Y0098498D01*
X0035300Y0100446D01*
X0035300Y0102554D01*
X0034493Y0104502D01*
X0033002Y0105993D01*
X0031054Y0106800D01*
X0028946Y0106800D01*
X0026998Y0105993D01*
X0025507Y0104502D01*
X0025000Y0103278D01*
X0024493Y0104502D01*
X0023002Y0105993D01*
X0021054Y0106800D01*
X0018946Y0106800D01*
X0016998Y0105993D01*
X0015507Y0104502D01*
X0014700Y0102554D01*
X0014700Y0100446D01*
X0015507Y0098498D01*
X0016998Y0097007D01*
X0018946Y0096200D01*
X0016683Y0097321D02*
X0007000Y0097321D01*
X0007000Y0098120D02*
X0015885Y0098120D01*
X0015333Y0098918D02*
X0007000Y0098918D01*
X0007000Y0099717D02*
X0015002Y0099717D01*
X0014700Y0100515D02*
X0007000Y0100515D01*
X0007000Y0101314D02*
X0014700Y0101314D01*
X0014700Y0102112D02*
X0007000Y0102112D01*
X0007000Y0102911D02*
X0014848Y0102911D01*
X0015179Y0103709D02*
X0007000Y0103709D01*
X0007000Y0104508D02*
X0015513Y0104508D01*
X0016311Y0105306D02*
X0007000Y0105306D01*
X0007000Y0106105D02*
X0017268Y0106105D01*
X0022732Y0106105D02*
X0027268Y0106105D01*
X0026311Y0105306D02*
X0023689Y0105306D01*
X0024487Y0104508D02*
X0025513Y0104508D01*
X0025179Y0103709D02*
X0024821Y0103709D01*
X0024998Y0099717D02*
X0025002Y0099717D01*
X0025333Y0098918D02*
X0024667Y0098918D01*
X0024115Y0098120D02*
X0025885Y0098120D01*
X0026683Y0097321D02*
X0023317Y0097321D01*
X0021834Y0096523D02*
X0028166Y0096523D01*
X0031834Y0096523D02*
X0035500Y0096523D01*
X0035500Y0097321D02*
X0033317Y0097321D01*
X0034115Y0098120D02*
X0035500Y0098120D01*
X0035500Y0098918D02*
X0034667Y0098918D01*
X0034998Y0099717D02*
X0035500Y0099717D01*
X0035300Y0100515D02*
X0036187Y0100515D01*
X0035300Y0101314D02*
X0114700Y0101314D01*
X0114700Y0102112D02*
X0035300Y0102112D01*
X0035152Y0102911D02*
X0114848Y0102911D01*
X0114700Y0102554D02*
X0114700Y0100446D01*
X0115507Y0098498D01*
X0116998Y0097007D01*
X0118946Y0096200D01*
X0121054Y0096200D01*
X0123002Y0097007D01*
X0124493Y0098498D01*
X0125000Y0099722D01*
X0125507Y0098498D01*
X0126998Y0097007D01*
X0128946Y0096200D01*
X0131054Y0096200D01*
X0133002Y0097007D01*
X0134493Y0098498D01*
X0135300Y0100446D01*
X0135300Y0102554D01*
X0134493Y0104502D01*
X0133002Y0105993D01*
X0131054Y0106800D01*
X0128946Y0106800D01*
X0126998Y0105993D01*
X0125507Y0104502D01*
X0125000Y0103278D01*
X0124493Y0104502D01*
X0123002Y0105993D01*
X0121054Y0106800D01*
X0118946Y0106800D01*
X0116998Y0105993D01*
X0115507Y0104502D01*
X0114700Y0102554D01*
X0115179Y0103709D02*
X0034821Y0103709D01*
X0034487Y0104508D02*
X0115513Y0104508D01*
X0116311Y0105306D02*
X0033689Y0105306D01*
X0032732Y0106105D02*
X0117268Y0106105D01*
X0122732Y0106105D02*
X0127268Y0106105D01*
X0126311Y0105306D02*
X0123689Y0105306D01*
X0124487Y0104508D02*
X0125513Y0104508D01*
X0125179Y0103709D02*
X0124821Y0103709D01*
X0124998Y0099717D02*
X0125002Y0099717D01*
X0125333Y0098918D02*
X0124667Y0098918D01*
X0124115Y0098120D02*
X0125885Y0098120D01*
X0126683Y0097321D02*
X0123317Y0097321D01*
X0121834Y0096523D02*
X0128166Y0096523D01*
X0131834Y0096523D02*
X0143000Y0096523D01*
X0143000Y0097321D02*
X0133317Y0097321D01*
X0134115Y0098120D02*
X0143000Y0098120D01*
X0143000Y0098918D02*
X0134667Y0098918D01*
X0134998Y0099717D02*
X0143000Y0099717D01*
X0143000Y0100515D02*
X0135300Y0100515D01*
X0135300Y0101314D02*
X0143000Y0101314D01*
X0143000Y0102112D02*
X0135300Y0102112D01*
X0135152Y0102911D02*
X0143000Y0102911D01*
X0143000Y0103709D02*
X0134821Y0103709D01*
X0134487Y0104508D02*
X0143000Y0104508D01*
X0143000Y0105306D02*
X0133689Y0105306D01*
X0132732Y0106105D02*
X0143000Y0106105D01*
X0143000Y0106903D02*
X0007000Y0106903D01*
X0007000Y0107702D02*
X0143000Y0107702D01*
X0143000Y0108501D02*
X0007000Y0108501D01*
X0007000Y0109299D02*
X0143000Y0109299D01*
X0143000Y0110098D02*
X0007000Y0110098D01*
X0007000Y0110896D02*
X0143000Y0110896D01*
X0143000Y0111695D02*
X0007000Y0111695D01*
X0007000Y0112493D02*
X0143000Y0112493D01*
X0143000Y0113292D02*
X0007000Y0113292D01*
X0007000Y0114090D02*
X0143000Y0114090D01*
X0143000Y0114889D02*
X0007000Y0114889D01*
X0007000Y0115687D02*
X0143000Y0115687D01*
X0143000Y0116486D02*
X0007000Y0116486D01*
X0007000Y0117284D02*
X0143000Y0117284D01*
X0143000Y0118083D02*
X0007000Y0118083D01*
X0007000Y0118881D02*
X0143000Y0118881D01*
X0143000Y0119680D02*
X0007000Y0119680D01*
X0007000Y0120478D02*
X0143000Y0120478D01*
X0143000Y0121277D02*
X0007000Y0121277D01*
X0007045Y0122075D02*
X0142955Y0122075D01*
X0142862Y0122874D02*
X0007138Y0122874D01*
X0007398Y0123672D02*
X0142602Y0123672D01*
X0142343Y0124471D02*
X0007657Y0124471D01*
X0007972Y0125269D02*
X0142028Y0125269D01*
X0141448Y0126068D02*
X0008552Y0126068D01*
X0009132Y0126866D02*
X0140868Y0126866D01*
X0139958Y0127665D02*
X0010042Y0127665D01*
X0011141Y0128463D02*
X0138859Y0128463D01*
X0136681Y0129262D02*
X0013319Y0129262D01*
X0053813Y0100515D02*
X0056187Y0100515D01*
X0056672Y0101000D02*
X0055500Y0099828D01*
X0055500Y0083172D01*
X0056672Y0082000D01*
X0073328Y0082000D01*
X0074500Y0083172D01*
X0074500Y0084828D01*
X0074500Y0099828D01*
X0073328Y0101000D01*
X0056672Y0101000D01*
X0055500Y0099717D02*
X0054500Y0099717D01*
X0054500Y0098918D02*
X0055500Y0098918D01*
X0055500Y0098120D02*
X0054500Y0098120D01*
X0054500Y0097321D02*
X0055500Y0097321D01*
X0055500Y0096523D02*
X0054500Y0096523D01*
X0054500Y0095724D02*
X0055500Y0095724D01*
X0055500Y0094926D02*
X0054500Y0094926D01*
X0054500Y0094127D02*
X0055500Y0094127D01*
X0055500Y0093329D02*
X0054500Y0093329D01*
X0054500Y0092530D02*
X0055500Y0092530D01*
X0055500Y0091732D02*
X0054500Y0091732D01*
X0054500Y0090933D02*
X0055500Y0090933D01*
X0055500Y0090135D02*
X0054500Y0090135D01*
X0054500Y0089336D02*
X0055500Y0089336D01*
X0055500Y0088538D02*
X0054500Y0088538D01*
X0054500Y0087739D02*
X0055500Y0087739D01*
X0055500Y0086941D02*
X0054500Y0086941D01*
X0054500Y0086142D02*
X0055500Y0086142D01*
X0055500Y0085344D02*
X0054500Y0085344D01*
X0054500Y0084545D02*
X0055500Y0084545D01*
X0055500Y0083747D02*
X0054500Y0083747D01*
X0054277Y0082948D02*
X0055723Y0082948D01*
X0056522Y0082150D02*
X0053478Y0082150D01*
X0073478Y0082150D02*
X0143000Y0082150D01*
X0143000Y0082948D02*
X0074277Y0082948D01*
X0074500Y0083747D02*
X0143000Y0083747D01*
X0143000Y0091732D02*
X0074500Y0091732D01*
X0074500Y0092530D02*
X0143000Y0092530D01*
X0143000Y0093329D02*
X0074500Y0093329D01*
X0074500Y0094127D02*
X0143000Y0094127D01*
X0143000Y0094926D02*
X0074500Y0094926D01*
X0074500Y0095724D02*
X0143000Y0095724D01*
X0118166Y0096523D02*
X0074500Y0096523D01*
X0074500Y0097321D02*
X0116683Y0097321D01*
X0115885Y0098120D02*
X0074500Y0098120D01*
X0074500Y0098918D02*
X0115333Y0098918D01*
X0115002Y0099717D02*
X0074500Y0099717D01*
X0073813Y0100515D02*
X0114700Y0100515D01*
X0104105Y0090933D02*
X0074500Y0090933D01*
X0074500Y0090135D02*
X0103306Y0090135D01*
X0103000Y0089336D02*
X0074500Y0089336D01*
X0074500Y0088538D02*
X0103000Y0088538D01*
X0103000Y0087739D02*
X0074500Y0087739D01*
X0074500Y0086941D02*
X0103000Y0086941D01*
X0103000Y0086142D02*
X0074500Y0086142D01*
X0074500Y0085344D02*
X0103328Y0085344D01*
X0104126Y0084545D02*
X0074500Y0084545D01*
X0081020Y0078157D02*
X0083980Y0078157D01*
X0083249Y0077359D02*
X0081751Y0077359D01*
X0082082Y0076560D02*
X0082918Y0076560D01*
X0082900Y0075762D02*
X0082100Y0075762D01*
X0081885Y0074963D02*
X0083115Y0074963D01*
X0083659Y0074165D02*
X0081341Y0074165D01*
X0093909Y0066978D02*
X0095091Y0066978D01*
X0094900Y0066179D02*
X0094100Y0066179D01*
X0094058Y0065381D02*
X0094942Y0065381D01*
X0095273Y0064582D02*
X0093727Y0064582D01*
X0098944Y0063784D02*
X0111500Y0063784D01*
X0111500Y0064582D02*
X0099727Y0064582D01*
X0100058Y0065381D02*
X0111500Y0065381D01*
X0111500Y0066179D02*
X0100100Y0066179D01*
X0099909Y0066978D02*
X0111500Y0066978D01*
X0111500Y0067776D02*
X0099400Y0067776D01*
X0098983Y0058194D02*
X0111500Y0058194D01*
X0111500Y0057396D02*
X0099736Y0057396D01*
X0100067Y0056597D02*
X0111500Y0056597D01*
X0111500Y0055799D02*
X0100100Y0055799D01*
X0099900Y0055000D02*
X0111500Y0055000D01*
X0111970Y0054202D02*
X0099379Y0054202D01*
X0095621Y0054202D02*
X0093379Y0054202D01*
X0093900Y0055000D02*
X0095100Y0055000D01*
X0094900Y0055799D02*
X0094100Y0055799D01*
X0094067Y0056597D02*
X0094933Y0056597D01*
X0095264Y0057396D02*
X0093736Y0057396D01*
M02*
