%
M48
M72
T01C0.0200
T02C0.0400
%
T01
X5200Y4650
X4900Y5150
X5200Y5650
X5500Y5150
X5800Y5650
X6100Y5150
X5800Y4650
X7950Y5600
X8250Y6100
X7950Y6600
X8250Y7100
X7950Y7600
X8550Y7600
X8850Y7100
X8550Y6600
X8850Y6100
X9150Y6600
X9450Y6100
X9750Y6600
X9450Y7100
X9150Y7600
X9750Y7600
X9750Y5600
X9150Y5600
X8550Y5600
T02
X2000Y3150
X3000Y3150
X3000Y10150
X2000Y10150
X12000Y10150
X13000Y10150
X13000Y3150
X12000Y3150
M30
