G75*
%MOIN*%
%OFA0B0*%
%FSLAX25Y25*%
%IPPOS*%
%LPD*%
%AMOC8*
5,1,8,0,0,1.08239X$1,22.5*
%
%ADD10C,0.00800*%
%ADD11C,0.00000*%
D10*
X0005000Y0011500D02*
X0005000Y0121500D01*
X0005003Y0121742D01*
X0005012Y0121983D01*
X0005026Y0122224D01*
X0005047Y0122465D01*
X0005073Y0122705D01*
X0005105Y0122945D01*
X0005143Y0123184D01*
X0005186Y0123421D01*
X0005236Y0123658D01*
X0005291Y0123893D01*
X0005351Y0124127D01*
X0005418Y0124359D01*
X0005489Y0124590D01*
X0005567Y0124819D01*
X0005650Y0125046D01*
X0005738Y0125271D01*
X0005832Y0125494D01*
X0005931Y0125714D01*
X0006036Y0125932D01*
X0006145Y0126147D01*
X0006260Y0126360D01*
X0006380Y0126570D01*
X0006505Y0126776D01*
X0006635Y0126980D01*
X0006770Y0127181D01*
X0006910Y0127378D01*
X0007054Y0127572D01*
X0007203Y0127762D01*
X0007357Y0127948D01*
X0007515Y0128131D01*
X0007677Y0128310D01*
X0007844Y0128485D01*
X0008015Y0128656D01*
X0008190Y0128823D01*
X0008369Y0128985D01*
X0008552Y0129143D01*
X0008738Y0129297D01*
X0008928Y0129446D01*
X0009122Y0129590D01*
X0009319Y0129730D01*
X0009520Y0129865D01*
X0009724Y0129995D01*
X0009930Y0130120D01*
X0010140Y0130240D01*
X0010353Y0130355D01*
X0010568Y0130464D01*
X0010786Y0130569D01*
X0011006Y0130668D01*
X0011229Y0130762D01*
X0011454Y0130850D01*
X0011681Y0130933D01*
X0011910Y0131011D01*
X0012141Y0131082D01*
X0012373Y0131149D01*
X0012607Y0131209D01*
X0012842Y0131264D01*
X0013079Y0131314D01*
X0013316Y0131357D01*
X0013555Y0131395D01*
X0013795Y0131427D01*
X0014035Y0131453D01*
X0014276Y0131474D01*
X0014517Y0131488D01*
X0014758Y0131497D01*
X0015000Y0131500D01*
X0135000Y0131500D01*
X0135242Y0131497D01*
X0135483Y0131488D01*
X0135724Y0131474D01*
X0135965Y0131453D01*
X0136205Y0131427D01*
X0136445Y0131395D01*
X0136684Y0131357D01*
X0136921Y0131314D01*
X0137158Y0131264D01*
X0137393Y0131209D01*
X0137627Y0131149D01*
X0137859Y0131082D01*
X0138090Y0131011D01*
X0138319Y0130933D01*
X0138546Y0130850D01*
X0138771Y0130762D01*
X0138994Y0130668D01*
X0139214Y0130569D01*
X0139432Y0130464D01*
X0139647Y0130355D01*
X0139860Y0130240D01*
X0140070Y0130120D01*
X0140276Y0129995D01*
X0140480Y0129865D01*
X0140681Y0129730D01*
X0140878Y0129590D01*
X0141072Y0129446D01*
X0141262Y0129297D01*
X0141448Y0129143D01*
X0141631Y0128985D01*
X0141810Y0128823D01*
X0141985Y0128656D01*
X0142156Y0128485D01*
X0142323Y0128310D01*
X0142485Y0128131D01*
X0142643Y0127948D01*
X0142797Y0127762D01*
X0142946Y0127572D01*
X0143090Y0127378D01*
X0143230Y0127181D01*
X0143365Y0126980D01*
X0143495Y0126776D01*
X0143620Y0126570D01*
X0143740Y0126360D01*
X0143855Y0126147D01*
X0143964Y0125932D01*
X0144069Y0125714D01*
X0144168Y0125494D01*
X0144262Y0125271D01*
X0144350Y0125046D01*
X0144433Y0124819D01*
X0144511Y0124590D01*
X0144582Y0124359D01*
X0144649Y0124127D01*
X0144709Y0123893D01*
X0144764Y0123658D01*
X0144814Y0123421D01*
X0144857Y0123184D01*
X0144895Y0122945D01*
X0144927Y0122705D01*
X0144953Y0122465D01*
X0144974Y0122224D01*
X0144988Y0121983D01*
X0144997Y0121742D01*
X0145000Y0121500D01*
X0145000Y0089000D01*
X0105000Y0089000D01*
X0105000Y0086500D01*
X0145000Y0086500D01*
X0145000Y0046500D01*
X0105000Y0046500D01*
X0105000Y0044000D01*
X0145000Y0044000D01*
X0145000Y0011500D01*
X0144997Y0011258D01*
X0144988Y0011017D01*
X0144974Y0010776D01*
X0144953Y0010535D01*
X0144927Y0010295D01*
X0144895Y0010055D01*
X0144857Y0009816D01*
X0144814Y0009579D01*
X0144764Y0009342D01*
X0144709Y0009107D01*
X0144649Y0008873D01*
X0144582Y0008641D01*
X0144511Y0008410D01*
X0144433Y0008181D01*
X0144350Y0007954D01*
X0144262Y0007729D01*
X0144168Y0007506D01*
X0144069Y0007286D01*
X0143964Y0007068D01*
X0143855Y0006853D01*
X0143740Y0006640D01*
X0143620Y0006430D01*
X0143495Y0006224D01*
X0143365Y0006020D01*
X0143230Y0005819D01*
X0143090Y0005622D01*
X0142946Y0005428D01*
X0142797Y0005238D01*
X0142643Y0005052D01*
X0142485Y0004869D01*
X0142323Y0004690D01*
X0142156Y0004515D01*
X0141985Y0004344D01*
X0141810Y0004177D01*
X0141631Y0004015D01*
X0141448Y0003857D01*
X0141262Y0003703D01*
X0141072Y0003554D01*
X0140878Y0003410D01*
X0140681Y0003270D01*
X0140480Y0003135D01*
X0140276Y0003005D01*
X0140070Y0002880D01*
X0139860Y0002760D01*
X0139647Y0002645D01*
X0139432Y0002536D01*
X0139214Y0002431D01*
X0138994Y0002332D01*
X0138771Y0002238D01*
X0138546Y0002150D01*
X0138319Y0002067D01*
X0138090Y0001989D01*
X0137859Y0001918D01*
X0137627Y0001851D01*
X0137393Y0001791D01*
X0137158Y0001736D01*
X0136921Y0001686D01*
X0136684Y0001643D01*
X0136445Y0001605D01*
X0136205Y0001573D01*
X0135965Y0001547D01*
X0135724Y0001526D01*
X0135483Y0001512D01*
X0135242Y0001503D01*
X0135000Y0001500D01*
X0015000Y0001500D01*
X0014758Y0001503D01*
X0014517Y0001512D01*
X0014276Y0001526D01*
X0014035Y0001547D01*
X0013795Y0001573D01*
X0013555Y0001605D01*
X0013316Y0001643D01*
X0013079Y0001686D01*
X0012842Y0001736D01*
X0012607Y0001791D01*
X0012373Y0001851D01*
X0012141Y0001918D01*
X0011910Y0001989D01*
X0011681Y0002067D01*
X0011454Y0002150D01*
X0011229Y0002238D01*
X0011006Y0002332D01*
X0010786Y0002431D01*
X0010568Y0002536D01*
X0010353Y0002645D01*
X0010140Y0002760D01*
X0009930Y0002880D01*
X0009724Y0003005D01*
X0009520Y0003135D01*
X0009319Y0003270D01*
X0009122Y0003410D01*
X0008928Y0003554D01*
X0008738Y0003703D01*
X0008552Y0003857D01*
X0008369Y0004015D01*
X0008190Y0004177D01*
X0008015Y0004344D01*
X0007844Y0004515D01*
X0007677Y0004690D01*
X0007515Y0004869D01*
X0007357Y0005052D01*
X0007203Y0005238D01*
X0007054Y0005428D01*
X0006910Y0005622D01*
X0006770Y0005819D01*
X0006635Y0006020D01*
X0006505Y0006224D01*
X0006380Y0006430D01*
X0006260Y0006640D01*
X0006145Y0006853D01*
X0006036Y0007068D01*
X0005931Y0007286D01*
X0005832Y0007506D01*
X0005738Y0007729D01*
X0005650Y0007954D01*
X0005567Y0008181D01*
X0005489Y0008410D01*
X0005418Y0008641D01*
X0005351Y0008873D01*
X0005291Y0009107D01*
X0005236Y0009342D01*
X0005186Y0009579D01*
X0005143Y0009816D01*
X0005105Y0010055D01*
X0005073Y0010295D01*
X0005047Y0010535D01*
X0005026Y0010776D01*
X0005012Y0011017D01*
X0005003Y0011258D01*
X0005000Y0011500D01*
D11*
X0048000Y0051500D02*
X0048002Y0051563D01*
X0048008Y0051625D01*
X0048018Y0051687D01*
X0048031Y0051749D01*
X0048049Y0051809D01*
X0048070Y0051868D01*
X0048095Y0051926D01*
X0048124Y0051982D01*
X0048156Y0052036D01*
X0048191Y0052088D01*
X0048229Y0052137D01*
X0048271Y0052185D01*
X0048315Y0052229D01*
X0048363Y0052271D01*
X0048412Y0052309D01*
X0048464Y0052344D01*
X0048518Y0052376D01*
X0048574Y0052405D01*
X0048632Y0052430D01*
X0048691Y0052451D01*
X0048751Y0052469D01*
X0048813Y0052482D01*
X0048875Y0052492D01*
X0048937Y0052498D01*
X0049000Y0052500D01*
X0049063Y0052498D01*
X0049125Y0052492D01*
X0049187Y0052482D01*
X0049249Y0052469D01*
X0049309Y0052451D01*
X0049368Y0052430D01*
X0049426Y0052405D01*
X0049482Y0052376D01*
X0049536Y0052344D01*
X0049588Y0052309D01*
X0049637Y0052271D01*
X0049685Y0052229D01*
X0049729Y0052185D01*
X0049771Y0052137D01*
X0049809Y0052088D01*
X0049844Y0052036D01*
X0049876Y0051982D01*
X0049905Y0051926D01*
X0049930Y0051868D01*
X0049951Y0051809D01*
X0049969Y0051749D01*
X0049982Y0051687D01*
X0049992Y0051625D01*
X0049998Y0051563D01*
X0050000Y0051500D01*
X0049998Y0051437D01*
X0049992Y0051375D01*
X0049982Y0051313D01*
X0049969Y0051251D01*
X0049951Y0051191D01*
X0049930Y0051132D01*
X0049905Y0051074D01*
X0049876Y0051018D01*
X0049844Y0050964D01*
X0049809Y0050912D01*
X0049771Y0050863D01*
X0049729Y0050815D01*
X0049685Y0050771D01*
X0049637Y0050729D01*
X0049588Y0050691D01*
X0049536Y0050656D01*
X0049482Y0050624D01*
X0049426Y0050595D01*
X0049368Y0050570D01*
X0049309Y0050549D01*
X0049249Y0050531D01*
X0049187Y0050518D01*
X0049125Y0050508D01*
X0049063Y0050502D01*
X0049000Y0050500D01*
X0048937Y0050502D01*
X0048875Y0050508D01*
X0048813Y0050518D01*
X0048751Y0050531D01*
X0048691Y0050549D01*
X0048632Y0050570D01*
X0048574Y0050595D01*
X0048518Y0050624D01*
X0048464Y0050656D01*
X0048412Y0050691D01*
X0048363Y0050729D01*
X0048315Y0050771D01*
X0048271Y0050815D01*
X0048229Y0050863D01*
X0048191Y0050912D01*
X0048156Y0050964D01*
X0048124Y0051018D01*
X0048095Y0051074D01*
X0048070Y0051132D01*
X0048049Y0051191D01*
X0048031Y0051251D01*
X0048018Y0051313D01*
X0048008Y0051375D01*
X0048002Y0051437D01*
X0048000Y0051500D01*
X0051000Y0056500D02*
X0051002Y0056563D01*
X0051008Y0056625D01*
X0051018Y0056687D01*
X0051031Y0056749D01*
X0051049Y0056809D01*
X0051070Y0056868D01*
X0051095Y0056926D01*
X0051124Y0056982D01*
X0051156Y0057036D01*
X0051191Y0057088D01*
X0051229Y0057137D01*
X0051271Y0057185D01*
X0051315Y0057229D01*
X0051363Y0057271D01*
X0051412Y0057309D01*
X0051464Y0057344D01*
X0051518Y0057376D01*
X0051574Y0057405D01*
X0051632Y0057430D01*
X0051691Y0057451D01*
X0051751Y0057469D01*
X0051813Y0057482D01*
X0051875Y0057492D01*
X0051937Y0057498D01*
X0052000Y0057500D01*
X0052063Y0057498D01*
X0052125Y0057492D01*
X0052187Y0057482D01*
X0052249Y0057469D01*
X0052309Y0057451D01*
X0052368Y0057430D01*
X0052426Y0057405D01*
X0052482Y0057376D01*
X0052536Y0057344D01*
X0052588Y0057309D01*
X0052637Y0057271D01*
X0052685Y0057229D01*
X0052729Y0057185D01*
X0052771Y0057137D01*
X0052809Y0057088D01*
X0052844Y0057036D01*
X0052876Y0056982D01*
X0052905Y0056926D01*
X0052930Y0056868D01*
X0052951Y0056809D01*
X0052969Y0056749D01*
X0052982Y0056687D01*
X0052992Y0056625D01*
X0052998Y0056563D01*
X0053000Y0056500D01*
X0052998Y0056437D01*
X0052992Y0056375D01*
X0052982Y0056313D01*
X0052969Y0056251D01*
X0052951Y0056191D01*
X0052930Y0056132D01*
X0052905Y0056074D01*
X0052876Y0056018D01*
X0052844Y0055964D01*
X0052809Y0055912D01*
X0052771Y0055863D01*
X0052729Y0055815D01*
X0052685Y0055771D01*
X0052637Y0055729D01*
X0052588Y0055691D01*
X0052536Y0055656D01*
X0052482Y0055624D01*
X0052426Y0055595D01*
X0052368Y0055570D01*
X0052309Y0055549D01*
X0052249Y0055531D01*
X0052187Y0055518D01*
X0052125Y0055508D01*
X0052063Y0055502D01*
X0052000Y0055500D01*
X0051937Y0055502D01*
X0051875Y0055508D01*
X0051813Y0055518D01*
X0051751Y0055531D01*
X0051691Y0055549D01*
X0051632Y0055570D01*
X0051574Y0055595D01*
X0051518Y0055624D01*
X0051464Y0055656D01*
X0051412Y0055691D01*
X0051363Y0055729D01*
X0051315Y0055771D01*
X0051271Y0055815D01*
X0051229Y0055863D01*
X0051191Y0055912D01*
X0051156Y0055964D01*
X0051124Y0056018D01*
X0051095Y0056074D01*
X0051070Y0056132D01*
X0051049Y0056191D01*
X0051031Y0056251D01*
X0051018Y0056313D01*
X0051008Y0056375D01*
X0051002Y0056437D01*
X0051000Y0056500D01*
X0054000Y0051500D02*
X0054002Y0051563D01*
X0054008Y0051625D01*
X0054018Y0051687D01*
X0054031Y0051749D01*
X0054049Y0051809D01*
X0054070Y0051868D01*
X0054095Y0051926D01*
X0054124Y0051982D01*
X0054156Y0052036D01*
X0054191Y0052088D01*
X0054229Y0052137D01*
X0054271Y0052185D01*
X0054315Y0052229D01*
X0054363Y0052271D01*
X0054412Y0052309D01*
X0054464Y0052344D01*
X0054518Y0052376D01*
X0054574Y0052405D01*
X0054632Y0052430D01*
X0054691Y0052451D01*
X0054751Y0052469D01*
X0054813Y0052482D01*
X0054875Y0052492D01*
X0054937Y0052498D01*
X0055000Y0052500D01*
X0055063Y0052498D01*
X0055125Y0052492D01*
X0055187Y0052482D01*
X0055249Y0052469D01*
X0055309Y0052451D01*
X0055368Y0052430D01*
X0055426Y0052405D01*
X0055482Y0052376D01*
X0055536Y0052344D01*
X0055588Y0052309D01*
X0055637Y0052271D01*
X0055685Y0052229D01*
X0055729Y0052185D01*
X0055771Y0052137D01*
X0055809Y0052088D01*
X0055844Y0052036D01*
X0055876Y0051982D01*
X0055905Y0051926D01*
X0055930Y0051868D01*
X0055951Y0051809D01*
X0055969Y0051749D01*
X0055982Y0051687D01*
X0055992Y0051625D01*
X0055998Y0051563D01*
X0056000Y0051500D01*
X0055998Y0051437D01*
X0055992Y0051375D01*
X0055982Y0051313D01*
X0055969Y0051251D01*
X0055951Y0051191D01*
X0055930Y0051132D01*
X0055905Y0051074D01*
X0055876Y0051018D01*
X0055844Y0050964D01*
X0055809Y0050912D01*
X0055771Y0050863D01*
X0055729Y0050815D01*
X0055685Y0050771D01*
X0055637Y0050729D01*
X0055588Y0050691D01*
X0055536Y0050656D01*
X0055482Y0050624D01*
X0055426Y0050595D01*
X0055368Y0050570D01*
X0055309Y0050549D01*
X0055249Y0050531D01*
X0055187Y0050518D01*
X0055125Y0050508D01*
X0055063Y0050502D01*
X0055000Y0050500D01*
X0054937Y0050502D01*
X0054875Y0050508D01*
X0054813Y0050518D01*
X0054751Y0050531D01*
X0054691Y0050549D01*
X0054632Y0050570D01*
X0054574Y0050595D01*
X0054518Y0050624D01*
X0054464Y0050656D01*
X0054412Y0050691D01*
X0054363Y0050729D01*
X0054315Y0050771D01*
X0054271Y0050815D01*
X0054229Y0050863D01*
X0054191Y0050912D01*
X0054156Y0050964D01*
X0054124Y0051018D01*
X0054095Y0051074D01*
X0054070Y0051132D01*
X0054049Y0051191D01*
X0054031Y0051251D01*
X0054018Y0051313D01*
X0054008Y0051375D01*
X0054002Y0051437D01*
X0054000Y0051500D01*
X0057000Y0056500D02*
X0057002Y0056563D01*
X0057008Y0056625D01*
X0057018Y0056687D01*
X0057031Y0056749D01*
X0057049Y0056809D01*
X0057070Y0056868D01*
X0057095Y0056926D01*
X0057124Y0056982D01*
X0057156Y0057036D01*
X0057191Y0057088D01*
X0057229Y0057137D01*
X0057271Y0057185D01*
X0057315Y0057229D01*
X0057363Y0057271D01*
X0057412Y0057309D01*
X0057464Y0057344D01*
X0057518Y0057376D01*
X0057574Y0057405D01*
X0057632Y0057430D01*
X0057691Y0057451D01*
X0057751Y0057469D01*
X0057813Y0057482D01*
X0057875Y0057492D01*
X0057937Y0057498D01*
X0058000Y0057500D01*
X0058063Y0057498D01*
X0058125Y0057492D01*
X0058187Y0057482D01*
X0058249Y0057469D01*
X0058309Y0057451D01*
X0058368Y0057430D01*
X0058426Y0057405D01*
X0058482Y0057376D01*
X0058536Y0057344D01*
X0058588Y0057309D01*
X0058637Y0057271D01*
X0058685Y0057229D01*
X0058729Y0057185D01*
X0058771Y0057137D01*
X0058809Y0057088D01*
X0058844Y0057036D01*
X0058876Y0056982D01*
X0058905Y0056926D01*
X0058930Y0056868D01*
X0058951Y0056809D01*
X0058969Y0056749D01*
X0058982Y0056687D01*
X0058992Y0056625D01*
X0058998Y0056563D01*
X0059000Y0056500D01*
X0058998Y0056437D01*
X0058992Y0056375D01*
X0058982Y0056313D01*
X0058969Y0056251D01*
X0058951Y0056191D01*
X0058930Y0056132D01*
X0058905Y0056074D01*
X0058876Y0056018D01*
X0058844Y0055964D01*
X0058809Y0055912D01*
X0058771Y0055863D01*
X0058729Y0055815D01*
X0058685Y0055771D01*
X0058637Y0055729D01*
X0058588Y0055691D01*
X0058536Y0055656D01*
X0058482Y0055624D01*
X0058426Y0055595D01*
X0058368Y0055570D01*
X0058309Y0055549D01*
X0058249Y0055531D01*
X0058187Y0055518D01*
X0058125Y0055508D01*
X0058063Y0055502D01*
X0058000Y0055500D01*
X0057937Y0055502D01*
X0057875Y0055508D01*
X0057813Y0055518D01*
X0057751Y0055531D01*
X0057691Y0055549D01*
X0057632Y0055570D01*
X0057574Y0055595D01*
X0057518Y0055624D01*
X0057464Y0055656D01*
X0057412Y0055691D01*
X0057363Y0055729D01*
X0057315Y0055771D01*
X0057271Y0055815D01*
X0057229Y0055863D01*
X0057191Y0055912D01*
X0057156Y0055964D01*
X0057124Y0056018D01*
X0057095Y0056074D01*
X0057070Y0056132D01*
X0057049Y0056191D01*
X0057031Y0056251D01*
X0057018Y0056313D01*
X0057008Y0056375D01*
X0057002Y0056437D01*
X0057000Y0056500D01*
X0060000Y0051500D02*
X0060002Y0051563D01*
X0060008Y0051625D01*
X0060018Y0051687D01*
X0060031Y0051749D01*
X0060049Y0051809D01*
X0060070Y0051868D01*
X0060095Y0051926D01*
X0060124Y0051982D01*
X0060156Y0052036D01*
X0060191Y0052088D01*
X0060229Y0052137D01*
X0060271Y0052185D01*
X0060315Y0052229D01*
X0060363Y0052271D01*
X0060412Y0052309D01*
X0060464Y0052344D01*
X0060518Y0052376D01*
X0060574Y0052405D01*
X0060632Y0052430D01*
X0060691Y0052451D01*
X0060751Y0052469D01*
X0060813Y0052482D01*
X0060875Y0052492D01*
X0060937Y0052498D01*
X0061000Y0052500D01*
X0061063Y0052498D01*
X0061125Y0052492D01*
X0061187Y0052482D01*
X0061249Y0052469D01*
X0061309Y0052451D01*
X0061368Y0052430D01*
X0061426Y0052405D01*
X0061482Y0052376D01*
X0061536Y0052344D01*
X0061588Y0052309D01*
X0061637Y0052271D01*
X0061685Y0052229D01*
X0061729Y0052185D01*
X0061771Y0052137D01*
X0061809Y0052088D01*
X0061844Y0052036D01*
X0061876Y0051982D01*
X0061905Y0051926D01*
X0061930Y0051868D01*
X0061951Y0051809D01*
X0061969Y0051749D01*
X0061982Y0051687D01*
X0061992Y0051625D01*
X0061998Y0051563D01*
X0062000Y0051500D01*
X0061998Y0051437D01*
X0061992Y0051375D01*
X0061982Y0051313D01*
X0061969Y0051251D01*
X0061951Y0051191D01*
X0061930Y0051132D01*
X0061905Y0051074D01*
X0061876Y0051018D01*
X0061844Y0050964D01*
X0061809Y0050912D01*
X0061771Y0050863D01*
X0061729Y0050815D01*
X0061685Y0050771D01*
X0061637Y0050729D01*
X0061588Y0050691D01*
X0061536Y0050656D01*
X0061482Y0050624D01*
X0061426Y0050595D01*
X0061368Y0050570D01*
X0061309Y0050549D01*
X0061249Y0050531D01*
X0061187Y0050518D01*
X0061125Y0050508D01*
X0061063Y0050502D01*
X0061000Y0050500D01*
X0060937Y0050502D01*
X0060875Y0050508D01*
X0060813Y0050518D01*
X0060751Y0050531D01*
X0060691Y0050549D01*
X0060632Y0050570D01*
X0060574Y0050595D01*
X0060518Y0050624D01*
X0060464Y0050656D01*
X0060412Y0050691D01*
X0060363Y0050729D01*
X0060315Y0050771D01*
X0060271Y0050815D01*
X0060229Y0050863D01*
X0060191Y0050912D01*
X0060156Y0050964D01*
X0060124Y0051018D01*
X0060095Y0051074D01*
X0060070Y0051132D01*
X0060049Y0051191D01*
X0060031Y0051251D01*
X0060018Y0051313D01*
X0060008Y0051375D01*
X0060002Y0051437D01*
X0060000Y0051500D01*
X0057000Y0046500D02*
X0057002Y0046563D01*
X0057008Y0046625D01*
X0057018Y0046687D01*
X0057031Y0046749D01*
X0057049Y0046809D01*
X0057070Y0046868D01*
X0057095Y0046926D01*
X0057124Y0046982D01*
X0057156Y0047036D01*
X0057191Y0047088D01*
X0057229Y0047137D01*
X0057271Y0047185D01*
X0057315Y0047229D01*
X0057363Y0047271D01*
X0057412Y0047309D01*
X0057464Y0047344D01*
X0057518Y0047376D01*
X0057574Y0047405D01*
X0057632Y0047430D01*
X0057691Y0047451D01*
X0057751Y0047469D01*
X0057813Y0047482D01*
X0057875Y0047492D01*
X0057937Y0047498D01*
X0058000Y0047500D01*
X0058063Y0047498D01*
X0058125Y0047492D01*
X0058187Y0047482D01*
X0058249Y0047469D01*
X0058309Y0047451D01*
X0058368Y0047430D01*
X0058426Y0047405D01*
X0058482Y0047376D01*
X0058536Y0047344D01*
X0058588Y0047309D01*
X0058637Y0047271D01*
X0058685Y0047229D01*
X0058729Y0047185D01*
X0058771Y0047137D01*
X0058809Y0047088D01*
X0058844Y0047036D01*
X0058876Y0046982D01*
X0058905Y0046926D01*
X0058930Y0046868D01*
X0058951Y0046809D01*
X0058969Y0046749D01*
X0058982Y0046687D01*
X0058992Y0046625D01*
X0058998Y0046563D01*
X0059000Y0046500D01*
X0058998Y0046437D01*
X0058992Y0046375D01*
X0058982Y0046313D01*
X0058969Y0046251D01*
X0058951Y0046191D01*
X0058930Y0046132D01*
X0058905Y0046074D01*
X0058876Y0046018D01*
X0058844Y0045964D01*
X0058809Y0045912D01*
X0058771Y0045863D01*
X0058729Y0045815D01*
X0058685Y0045771D01*
X0058637Y0045729D01*
X0058588Y0045691D01*
X0058536Y0045656D01*
X0058482Y0045624D01*
X0058426Y0045595D01*
X0058368Y0045570D01*
X0058309Y0045549D01*
X0058249Y0045531D01*
X0058187Y0045518D01*
X0058125Y0045508D01*
X0058063Y0045502D01*
X0058000Y0045500D01*
X0057937Y0045502D01*
X0057875Y0045508D01*
X0057813Y0045518D01*
X0057751Y0045531D01*
X0057691Y0045549D01*
X0057632Y0045570D01*
X0057574Y0045595D01*
X0057518Y0045624D01*
X0057464Y0045656D01*
X0057412Y0045691D01*
X0057363Y0045729D01*
X0057315Y0045771D01*
X0057271Y0045815D01*
X0057229Y0045863D01*
X0057191Y0045912D01*
X0057156Y0045964D01*
X0057124Y0046018D01*
X0057095Y0046074D01*
X0057070Y0046132D01*
X0057049Y0046191D01*
X0057031Y0046251D01*
X0057018Y0046313D01*
X0057008Y0046375D01*
X0057002Y0046437D01*
X0057000Y0046500D01*
X0051000Y0046500D02*
X0051002Y0046563D01*
X0051008Y0046625D01*
X0051018Y0046687D01*
X0051031Y0046749D01*
X0051049Y0046809D01*
X0051070Y0046868D01*
X0051095Y0046926D01*
X0051124Y0046982D01*
X0051156Y0047036D01*
X0051191Y0047088D01*
X0051229Y0047137D01*
X0051271Y0047185D01*
X0051315Y0047229D01*
X0051363Y0047271D01*
X0051412Y0047309D01*
X0051464Y0047344D01*
X0051518Y0047376D01*
X0051574Y0047405D01*
X0051632Y0047430D01*
X0051691Y0047451D01*
X0051751Y0047469D01*
X0051813Y0047482D01*
X0051875Y0047492D01*
X0051937Y0047498D01*
X0052000Y0047500D01*
X0052063Y0047498D01*
X0052125Y0047492D01*
X0052187Y0047482D01*
X0052249Y0047469D01*
X0052309Y0047451D01*
X0052368Y0047430D01*
X0052426Y0047405D01*
X0052482Y0047376D01*
X0052536Y0047344D01*
X0052588Y0047309D01*
X0052637Y0047271D01*
X0052685Y0047229D01*
X0052729Y0047185D01*
X0052771Y0047137D01*
X0052809Y0047088D01*
X0052844Y0047036D01*
X0052876Y0046982D01*
X0052905Y0046926D01*
X0052930Y0046868D01*
X0052951Y0046809D01*
X0052969Y0046749D01*
X0052982Y0046687D01*
X0052992Y0046625D01*
X0052998Y0046563D01*
X0053000Y0046500D01*
X0052998Y0046437D01*
X0052992Y0046375D01*
X0052982Y0046313D01*
X0052969Y0046251D01*
X0052951Y0046191D01*
X0052930Y0046132D01*
X0052905Y0046074D01*
X0052876Y0046018D01*
X0052844Y0045964D01*
X0052809Y0045912D01*
X0052771Y0045863D01*
X0052729Y0045815D01*
X0052685Y0045771D01*
X0052637Y0045729D01*
X0052588Y0045691D01*
X0052536Y0045656D01*
X0052482Y0045624D01*
X0052426Y0045595D01*
X0052368Y0045570D01*
X0052309Y0045549D01*
X0052249Y0045531D01*
X0052187Y0045518D01*
X0052125Y0045508D01*
X0052063Y0045502D01*
X0052000Y0045500D01*
X0051937Y0045502D01*
X0051875Y0045508D01*
X0051813Y0045518D01*
X0051751Y0045531D01*
X0051691Y0045549D01*
X0051632Y0045570D01*
X0051574Y0045595D01*
X0051518Y0045624D01*
X0051464Y0045656D01*
X0051412Y0045691D01*
X0051363Y0045729D01*
X0051315Y0045771D01*
X0051271Y0045815D01*
X0051229Y0045863D01*
X0051191Y0045912D01*
X0051156Y0045964D01*
X0051124Y0046018D01*
X0051095Y0046074D01*
X0051070Y0046132D01*
X0051049Y0046191D01*
X0051031Y0046251D01*
X0051018Y0046313D01*
X0051008Y0046375D01*
X0051002Y0046437D01*
X0051000Y0046500D01*
X0078500Y0056000D02*
X0078502Y0056063D01*
X0078508Y0056125D01*
X0078518Y0056187D01*
X0078531Y0056249D01*
X0078549Y0056309D01*
X0078570Y0056368D01*
X0078595Y0056426D01*
X0078624Y0056482D01*
X0078656Y0056536D01*
X0078691Y0056588D01*
X0078729Y0056637D01*
X0078771Y0056685D01*
X0078815Y0056729D01*
X0078863Y0056771D01*
X0078912Y0056809D01*
X0078964Y0056844D01*
X0079018Y0056876D01*
X0079074Y0056905D01*
X0079132Y0056930D01*
X0079191Y0056951D01*
X0079251Y0056969D01*
X0079313Y0056982D01*
X0079375Y0056992D01*
X0079437Y0056998D01*
X0079500Y0057000D01*
X0079563Y0056998D01*
X0079625Y0056992D01*
X0079687Y0056982D01*
X0079749Y0056969D01*
X0079809Y0056951D01*
X0079868Y0056930D01*
X0079926Y0056905D01*
X0079982Y0056876D01*
X0080036Y0056844D01*
X0080088Y0056809D01*
X0080137Y0056771D01*
X0080185Y0056729D01*
X0080229Y0056685D01*
X0080271Y0056637D01*
X0080309Y0056588D01*
X0080344Y0056536D01*
X0080376Y0056482D01*
X0080405Y0056426D01*
X0080430Y0056368D01*
X0080451Y0056309D01*
X0080469Y0056249D01*
X0080482Y0056187D01*
X0080492Y0056125D01*
X0080498Y0056063D01*
X0080500Y0056000D01*
X0080498Y0055937D01*
X0080492Y0055875D01*
X0080482Y0055813D01*
X0080469Y0055751D01*
X0080451Y0055691D01*
X0080430Y0055632D01*
X0080405Y0055574D01*
X0080376Y0055518D01*
X0080344Y0055464D01*
X0080309Y0055412D01*
X0080271Y0055363D01*
X0080229Y0055315D01*
X0080185Y0055271D01*
X0080137Y0055229D01*
X0080088Y0055191D01*
X0080036Y0055156D01*
X0079982Y0055124D01*
X0079926Y0055095D01*
X0079868Y0055070D01*
X0079809Y0055049D01*
X0079749Y0055031D01*
X0079687Y0055018D01*
X0079625Y0055008D01*
X0079563Y0055002D01*
X0079500Y0055000D01*
X0079437Y0055002D01*
X0079375Y0055008D01*
X0079313Y0055018D01*
X0079251Y0055031D01*
X0079191Y0055049D01*
X0079132Y0055070D01*
X0079074Y0055095D01*
X0079018Y0055124D01*
X0078964Y0055156D01*
X0078912Y0055191D01*
X0078863Y0055229D01*
X0078815Y0055271D01*
X0078771Y0055315D01*
X0078729Y0055363D01*
X0078691Y0055412D01*
X0078656Y0055464D01*
X0078624Y0055518D01*
X0078595Y0055574D01*
X0078570Y0055632D01*
X0078549Y0055691D01*
X0078531Y0055751D01*
X0078518Y0055813D01*
X0078508Y0055875D01*
X0078502Y0055937D01*
X0078500Y0056000D01*
X0081500Y0061000D02*
X0081502Y0061063D01*
X0081508Y0061125D01*
X0081518Y0061187D01*
X0081531Y0061249D01*
X0081549Y0061309D01*
X0081570Y0061368D01*
X0081595Y0061426D01*
X0081624Y0061482D01*
X0081656Y0061536D01*
X0081691Y0061588D01*
X0081729Y0061637D01*
X0081771Y0061685D01*
X0081815Y0061729D01*
X0081863Y0061771D01*
X0081912Y0061809D01*
X0081964Y0061844D01*
X0082018Y0061876D01*
X0082074Y0061905D01*
X0082132Y0061930D01*
X0082191Y0061951D01*
X0082251Y0061969D01*
X0082313Y0061982D01*
X0082375Y0061992D01*
X0082437Y0061998D01*
X0082500Y0062000D01*
X0082563Y0061998D01*
X0082625Y0061992D01*
X0082687Y0061982D01*
X0082749Y0061969D01*
X0082809Y0061951D01*
X0082868Y0061930D01*
X0082926Y0061905D01*
X0082982Y0061876D01*
X0083036Y0061844D01*
X0083088Y0061809D01*
X0083137Y0061771D01*
X0083185Y0061729D01*
X0083229Y0061685D01*
X0083271Y0061637D01*
X0083309Y0061588D01*
X0083344Y0061536D01*
X0083376Y0061482D01*
X0083405Y0061426D01*
X0083430Y0061368D01*
X0083451Y0061309D01*
X0083469Y0061249D01*
X0083482Y0061187D01*
X0083492Y0061125D01*
X0083498Y0061063D01*
X0083500Y0061000D01*
X0083498Y0060937D01*
X0083492Y0060875D01*
X0083482Y0060813D01*
X0083469Y0060751D01*
X0083451Y0060691D01*
X0083430Y0060632D01*
X0083405Y0060574D01*
X0083376Y0060518D01*
X0083344Y0060464D01*
X0083309Y0060412D01*
X0083271Y0060363D01*
X0083229Y0060315D01*
X0083185Y0060271D01*
X0083137Y0060229D01*
X0083088Y0060191D01*
X0083036Y0060156D01*
X0082982Y0060124D01*
X0082926Y0060095D01*
X0082868Y0060070D01*
X0082809Y0060049D01*
X0082749Y0060031D01*
X0082687Y0060018D01*
X0082625Y0060008D01*
X0082563Y0060002D01*
X0082500Y0060000D01*
X0082437Y0060002D01*
X0082375Y0060008D01*
X0082313Y0060018D01*
X0082251Y0060031D01*
X0082191Y0060049D01*
X0082132Y0060070D01*
X0082074Y0060095D01*
X0082018Y0060124D01*
X0081964Y0060156D01*
X0081912Y0060191D01*
X0081863Y0060229D01*
X0081815Y0060271D01*
X0081771Y0060315D01*
X0081729Y0060363D01*
X0081691Y0060412D01*
X0081656Y0060464D01*
X0081624Y0060518D01*
X0081595Y0060574D01*
X0081570Y0060632D01*
X0081549Y0060691D01*
X0081531Y0060751D01*
X0081518Y0060813D01*
X0081508Y0060875D01*
X0081502Y0060937D01*
X0081500Y0061000D01*
X0078500Y0066000D02*
X0078502Y0066063D01*
X0078508Y0066125D01*
X0078518Y0066187D01*
X0078531Y0066249D01*
X0078549Y0066309D01*
X0078570Y0066368D01*
X0078595Y0066426D01*
X0078624Y0066482D01*
X0078656Y0066536D01*
X0078691Y0066588D01*
X0078729Y0066637D01*
X0078771Y0066685D01*
X0078815Y0066729D01*
X0078863Y0066771D01*
X0078912Y0066809D01*
X0078964Y0066844D01*
X0079018Y0066876D01*
X0079074Y0066905D01*
X0079132Y0066930D01*
X0079191Y0066951D01*
X0079251Y0066969D01*
X0079313Y0066982D01*
X0079375Y0066992D01*
X0079437Y0066998D01*
X0079500Y0067000D01*
X0079563Y0066998D01*
X0079625Y0066992D01*
X0079687Y0066982D01*
X0079749Y0066969D01*
X0079809Y0066951D01*
X0079868Y0066930D01*
X0079926Y0066905D01*
X0079982Y0066876D01*
X0080036Y0066844D01*
X0080088Y0066809D01*
X0080137Y0066771D01*
X0080185Y0066729D01*
X0080229Y0066685D01*
X0080271Y0066637D01*
X0080309Y0066588D01*
X0080344Y0066536D01*
X0080376Y0066482D01*
X0080405Y0066426D01*
X0080430Y0066368D01*
X0080451Y0066309D01*
X0080469Y0066249D01*
X0080482Y0066187D01*
X0080492Y0066125D01*
X0080498Y0066063D01*
X0080500Y0066000D01*
X0080498Y0065937D01*
X0080492Y0065875D01*
X0080482Y0065813D01*
X0080469Y0065751D01*
X0080451Y0065691D01*
X0080430Y0065632D01*
X0080405Y0065574D01*
X0080376Y0065518D01*
X0080344Y0065464D01*
X0080309Y0065412D01*
X0080271Y0065363D01*
X0080229Y0065315D01*
X0080185Y0065271D01*
X0080137Y0065229D01*
X0080088Y0065191D01*
X0080036Y0065156D01*
X0079982Y0065124D01*
X0079926Y0065095D01*
X0079868Y0065070D01*
X0079809Y0065049D01*
X0079749Y0065031D01*
X0079687Y0065018D01*
X0079625Y0065008D01*
X0079563Y0065002D01*
X0079500Y0065000D01*
X0079437Y0065002D01*
X0079375Y0065008D01*
X0079313Y0065018D01*
X0079251Y0065031D01*
X0079191Y0065049D01*
X0079132Y0065070D01*
X0079074Y0065095D01*
X0079018Y0065124D01*
X0078964Y0065156D01*
X0078912Y0065191D01*
X0078863Y0065229D01*
X0078815Y0065271D01*
X0078771Y0065315D01*
X0078729Y0065363D01*
X0078691Y0065412D01*
X0078656Y0065464D01*
X0078624Y0065518D01*
X0078595Y0065574D01*
X0078570Y0065632D01*
X0078549Y0065691D01*
X0078531Y0065751D01*
X0078518Y0065813D01*
X0078508Y0065875D01*
X0078502Y0065937D01*
X0078500Y0066000D01*
X0081500Y0071000D02*
X0081502Y0071063D01*
X0081508Y0071125D01*
X0081518Y0071187D01*
X0081531Y0071249D01*
X0081549Y0071309D01*
X0081570Y0071368D01*
X0081595Y0071426D01*
X0081624Y0071482D01*
X0081656Y0071536D01*
X0081691Y0071588D01*
X0081729Y0071637D01*
X0081771Y0071685D01*
X0081815Y0071729D01*
X0081863Y0071771D01*
X0081912Y0071809D01*
X0081964Y0071844D01*
X0082018Y0071876D01*
X0082074Y0071905D01*
X0082132Y0071930D01*
X0082191Y0071951D01*
X0082251Y0071969D01*
X0082313Y0071982D01*
X0082375Y0071992D01*
X0082437Y0071998D01*
X0082500Y0072000D01*
X0082563Y0071998D01*
X0082625Y0071992D01*
X0082687Y0071982D01*
X0082749Y0071969D01*
X0082809Y0071951D01*
X0082868Y0071930D01*
X0082926Y0071905D01*
X0082982Y0071876D01*
X0083036Y0071844D01*
X0083088Y0071809D01*
X0083137Y0071771D01*
X0083185Y0071729D01*
X0083229Y0071685D01*
X0083271Y0071637D01*
X0083309Y0071588D01*
X0083344Y0071536D01*
X0083376Y0071482D01*
X0083405Y0071426D01*
X0083430Y0071368D01*
X0083451Y0071309D01*
X0083469Y0071249D01*
X0083482Y0071187D01*
X0083492Y0071125D01*
X0083498Y0071063D01*
X0083500Y0071000D01*
X0083498Y0070937D01*
X0083492Y0070875D01*
X0083482Y0070813D01*
X0083469Y0070751D01*
X0083451Y0070691D01*
X0083430Y0070632D01*
X0083405Y0070574D01*
X0083376Y0070518D01*
X0083344Y0070464D01*
X0083309Y0070412D01*
X0083271Y0070363D01*
X0083229Y0070315D01*
X0083185Y0070271D01*
X0083137Y0070229D01*
X0083088Y0070191D01*
X0083036Y0070156D01*
X0082982Y0070124D01*
X0082926Y0070095D01*
X0082868Y0070070D01*
X0082809Y0070049D01*
X0082749Y0070031D01*
X0082687Y0070018D01*
X0082625Y0070008D01*
X0082563Y0070002D01*
X0082500Y0070000D01*
X0082437Y0070002D01*
X0082375Y0070008D01*
X0082313Y0070018D01*
X0082251Y0070031D01*
X0082191Y0070049D01*
X0082132Y0070070D01*
X0082074Y0070095D01*
X0082018Y0070124D01*
X0081964Y0070156D01*
X0081912Y0070191D01*
X0081863Y0070229D01*
X0081815Y0070271D01*
X0081771Y0070315D01*
X0081729Y0070363D01*
X0081691Y0070412D01*
X0081656Y0070464D01*
X0081624Y0070518D01*
X0081595Y0070574D01*
X0081570Y0070632D01*
X0081549Y0070691D01*
X0081531Y0070751D01*
X0081518Y0070813D01*
X0081508Y0070875D01*
X0081502Y0070937D01*
X0081500Y0071000D01*
X0078500Y0076000D02*
X0078502Y0076063D01*
X0078508Y0076125D01*
X0078518Y0076187D01*
X0078531Y0076249D01*
X0078549Y0076309D01*
X0078570Y0076368D01*
X0078595Y0076426D01*
X0078624Y0076482D01*
X0078656Y0076536D01*
X0078691Y0076588D01*
X0078729Y0076637D01*
X0078771Y0076685D01*
X0078815Y0076729D01*
X0078863Y0076771D01*
X0078912Y0076809D01*
X0078964Y0076844D01*
X0079018Y0076876D01*
X0079074Y0076905D01*
X0079132Y0076930D01*
X0079191Y0076951D01*
X0079251Y0076969D01*
X0079313Y0076982D01*
X0079375Y0076992D01*
X0079437Y0076998D01*
X0079500Y0077000D01*
X0079563Y0076998D01*
X0079625Y0076992D01*
X0079687Y0076982D01*
X0079749Y0076969D01*
X0079809Y0076951D01*
X0079868Y0076930D01*
X0079926Y0076905D01*
X0079982Y0076876D01*
X0080036Y0076844D01*
X0080088Y0076809D01*
X0080137Y0076771D01*
X0080185Y0076729D01*
X0080229Y0076685D01*
X0080271Y0076637D01*
X0080309Y0076588D01*
X0080344Y0076536D01*
X0080376Y0076482D01*
X0080405Y0076426D01*
X0080430Y0076368D01*
X0080451Y0076309D01*
X0080469Y0076249D01*
X0080482Y0076187D01*
X0080492Y0076125D01*
X0080498Y0076063D01*
X0080500Y0076000D01*
X0080498Y0075937D01*
X0080492Y0075875D01*
X0080482Y0075813D01*
X0080469Y0075751D01*
X0080451Y0075691D01*
X0080430Y0075632D01*
X0080405Y0075574D01*
X0080376Y0075518D01*
X0080344Y0075464D01*
X0080309Y0075412D01*
X0080271Y0075363D01*
X0080229Y0075315D01*
X0080185Y0075271D01*
X0080137Y0075229D01*
X0080088Y0075191D01*
X0080036Y0075156D01*
X0079982Y0075124D01*
X0079926Y0075095D01*
X0079868Y0075070D01*
X0079809Y0075049D01*
X0079749Y0075031D01*
X0079687Y0075018D01*
X0079625Y0075008D01*
X0079563Y0075002D01*
X0079500Y0075000D01*
X0079437Y0075002D01*
X0079375Y0075008D01*
X0079313Y0075018D01*
X0079251Y0075031D01*
X0079191Y0075049D01*
X0079132Y0075070D01*
X0079074Y0075095D01*
X0079018Y0075124D01*
X0078964Y0075156D01*
X0078912Y0075191D01*
X0078863Y0075229D01*
X0078815Y0075271D01*
X0078771Y0075315D01*
X0078729Y0075363D01*
X0078691Y0075412D01*
X0078656Y0075464D01*
X0078624Y0075518D01*
X0078595Y0075574D01*
X0078570Y0075632D01*
X0078549Y0075691D01*
X0078531Y0075751D01*
X0078518Y0075813D01*
X0078508Y0075875D01*
X0078502Y0075937D01*
X0078500Y0076000D01*
X0084500Y0076000D02*
X0084502Y0076063D01*
X0084508Y0076125D01*
X0084518Y0076187D01*
X0084531Y0076249D01*
X0084549Y0076309D01*
X0084570Y0076368D01*
X0084595Y0076426D01*
X0084624Y0076482D01*
X0084656Y0076536D01*
X0084691Y0076588D01*
X0084729Y0076637D01*
X0084771Y0076685D01*
X0084815Y0076729D01*
X0084863Y0076771D01*
X0084912Y0076809D01*
X0084964Y0076844D01*
X0085018Y0076876D01*
X0085074Y0076905D01*
X0085132Y0076930D01*
X0085191Y0076951D01*
X0085251Y0076969D01*
X0085313Y0076982D01*
X0085375Y0076992D01*
X0085437Y0076998D01*
X0085500Y0077000D01*
X0085563Y0076998D01*
X0085625Y0076992D01*
X0085687Y0076982D01*
X0085749Y0076969D01*
X0085809Y0076951D01*
X0085868Y0076930D01*
X0085926Y0076905D01*
X0085982Y0076876D01*
X0086036Y0076844D01*
X0086088Y0076809D01*
X0086137Y0076771D01*
X0086185Y0076729D01*
X0086229Y0076685D01*
X0086271Y0076637D01*
X0086309Y0076588D01*
X0086344Y0076536D01*
X0086376Y0076482D01*
X0086405Y0076426D01*
X0086430Y0076368D01*
X0086451Y0076309D01*
X0086469Y0076249D01*
X0086482Y0076187D01*
X0086492Y0076125D01*
X0086498Y0076063D01*
X0086500Y0076000D01*
X0086498Y0075937D01*
X0086492Y0075875D01*
X0086482Y0075813D01*
X0086469Y0075751D01*
X0086451Y0075691D01*
X0086430Y0075632D01*
X0086405Y0075574D01*
X0086376Y0075518D01*
X0086344Y0075464D01*
X0086309Y0075412D01*
X0086271Y0075363D01*
X0086229Y0075315D01*
X0086185Y0075271D01*
X0086137Y0075229D01*
X0086088Y0075191D01*
X0086036Y0075156D01*
X0085982Y0075124D01*
X0085926Y0075095D01*
X0085868Y0075070D01*
X0085809Y0075049D01*
X0085749Y0075031D01*
X0085687Y0075018D01*
X0085625Y0075008D01*
X0085563Y0075002D01*
X0085500Y0075000D01*
X0085437Y0075002D01*
X0085375Y0075008D01*
X0085313Y0075018D01*
X0085251Y0075031D01*
X0085191Y0075049D01*
X0085132Y0075070D01*
X0085074Y0075095D01*
X0085018Y0075124D01*
X0084964Y0075156D01*
X0084912Y0075191D01*
X0084863Y0075229D01*
X0084815Y0075271D01*
X0084771Y0075315D01*
X0084729Y0075363D01*
X0084691Y0075412D01*
X0084656Y0075464D01*
X0084624Y0075518D01*
X0084595Y0075574D01*
X0084570Y0075632D01*
X0084549Y0075691D01*
X0084531Y0075751D01*
X0084518Y0075813D01*
X0084508Y0075875D01*
X0084502Y0075937D01*
X0084500Y0076000D01*
X0087500Y0071000D02*
X0087502Y0071063D01*
X0087508Y0071125D01*
X0087518Y0071187D01*
X0087531Y0071249D01*
X0087549Y0071309D01*
X0087570Y0071368D01*
X0087595Y0071426D01*
X0087624Y0071482D01*
X0087656Y0071536D01*
X0087691Y0071588D01*
X0087729Y0071637D01*
X0087771Y0071685D01*
X0087815Y0071729D01*
X0087863Y0071771D01*
X0087912Y0071809D01*
X0087964Y0071844D01*
X0088018Y0071876D01*
X0088074Y0071905D01*
X0088132Y0071930D01*
X0088191Y0071951D01*
X0088251Y0071969D01*
X0088313Y0071982D01*
X0088375Y0071992D01*
X0088437Y0071998D01*
X0088500Y0072000D01*
X0088563Y0071998D01*
X0088625Y0071992D01*
X0088687Y0071982D01*
X0088749Y0071969D01*
X0088809Y0071951D01*
X0088868Y0071930D01*
X0088926Y0071905D01*
X0088982Y0071876D01*
X0089036Y0071844D01*
X0089088Y0071809D01*
X0089137Y0071771D01*
X0089185Y0071729D01*
X0089229Y0071685D01*
X0089271Y0071637D01*
X0089309Y0071588D01*
X0089344Y0071536D01*
X0089376Y0071482D01*
X0089405Y0071426D01*
X0089430Y0071368D01*
X0089451Y0071309D01*
X0089469Y0071249D01*
X0089482Y0071187D01*
X0089492Y0071125D01*
X0089498Y0071063D01*
X0089500Y0071000D01*
X0089498Y0070937D01*
X0089492Y0070875D01*
X0089482Y0070813D01*
X0089469Y0070751D01*
X0089451Y0070691D01*
X0089430Y0070632D01*
X0089405Y0070574D01*
X0089376Y0070518D01*
X0089344Y0070464D01*
X0089309Y0070412D01*
X0089271Y0070363D01*
X0089229Y0070315D01*
X0089185Y0070271D01*
X0089137Y0070229D01*
X0089088Y0070191D01*
X0089036Y0070156D01*
X0088982Y0070124D01*
X0088926Y0070095D01*
X0088868Y0070070D01*
X0088809Y0070049D01*
X0088749Y0070031D01*
X0088687Y0070018D01*
X0088625Y0070008D01*
X0088563Y0070002D01*
X0088500Y0070000D01*
X0088437Y0070002D01*
X0088375Y0070008D01*
X0088313Y0070018D01*
X0088251Y0070031D01*
X0088191Y0070049D01*
X0088132Y0070070D01*
X0088074Y0070095D01*
X0088018Y0070124D01*
X0087964Y0070156D01*
X0087912Y0070191D01*
X0087863Y0070229D01*
X0087815Y0070271D01*
X0087771Y0070315D01*
X0087729Y0070363D01*
X0087691Y0070412D01*
X0087656Y0070464D01*
X0087624Y0070518D01*
X0087595Y0070574D01*
X0087570Y0070632D01*
X0087549Y0070691D01*
X0087531Y0070751D01*
X0087518Y0070813D01*
X0087508Y0070875D01*
X0087502Y0070937D01*
X0087500Y0071000D01*
X0084500Y0066000D02*
X0084502Y0066063D01*
X0084508Y0066125D01*
X0084518Y0066187D01*
X0084531Y0066249D01*
X0084549Y0066309D01*
X0084570Y0066368D01*
X0084595Y0066426D01*
X0084624Y0066482D01*
X0084656Y0066536D01*
X0084691Y0066588D01*
X0084729Y0066637D01*
X0084771Y0066685D01*
X0084815Y0066729D01*
X0084863Y0066771D01*
X0084912Y0066809D01*
X0084964Y0066844D01*
X0085018Y0066876D01*
X0085074Y0066905D01*
X0085132Y0066930D01*
X0085191Y0066951D01*
X0085251Y0066969D01*
X0085313Y0066982D01*
X0085375Y0066992D01*
X0085437Y0066998D01*
X0085500Y0067000D01*
X0085563Y0066998D01*
X0085625Y0066992D01*
X0085687Y0066982D01*
X0085749Y0066969D01*
X0085809Y0066951D01*
X0085868Y0066930D01*
X0085926Y0066905D01*
X0085982Y0066876D01*
X0086036Y0066844D01*
X0086088Y0066809D01*
X0086137Y0066771D01*
X0086185Y0066729D01*
X0086229Y0066685D01*
X0086271Y0066637D01*
X0086309Y0066588D01*
X0086344Y0066536D01*
X0086376Y0066482D01*
X0086405Y0066426D01*
X0086430Y0066368D01*
X0086451Y0066309D01*
X0086469Y0066249D01*
X0086482Y0066187D01*
X0086492Y0066125D01*
X0086498Y0066063D01*
X0086500Y0066000D01*
X0086498Y0065937D01*
X0086492Y0065875D01*
X0086482Y0065813D01*
X0086469Y0065751D01*
X0086451Y0065691D01*
X0086430Y0065632D01*
X0086405Y0065574D01*
X0086376Y0065518D01*
X0086344Y0065464D01*
X0086309Y0065412D01*
X0086271Y0065363D01*
X0086229Y0065315D01*
X0086185Y0065271D01*
X0086137Y0065229D01*
X0086088Y0065191D01*
X0086036Y0065156D01*
X0085982Y0065124D01*
X0085926Y0065095D01*
X0085868Y0065070D01*
X0085809Y0065049D01*
X0085749Y0065031D01*
X0085687Y0065018D01*
X0085625Y0065008D01*
X0085563Y0065002D01*
X0085500Y0065000D01*
X0085437Y0065002D01*
X0085375Y0065008D01*
X0085313Y0065018D01*
X0085251Y0065031D01*
X0085191Y0065049D01*
X0085132Y0065070D01*
X0085074Y0065095D01*
X0085018Y0065124D01*
X0084964Y0065156D01*
X0084912Y0065191D01*
X0084863Y0065229D01*
X0084815Y0065271D01*
X0084771Y0065315D01*
X0084729Y0065363D01*
X0084691Y0065412D01*
X0084656Y0065464D01*
X0084624Y0065518D01*
X0084595Y0065574D01*
X0084570Y0065632D01*
X0084549Y0065691D01*
X0084531Y0065751D01*
X0084518Y0065813D01*
X0084508Y0065875D01*
X0084502Y0065937D01*
X0084500Y0066000D01*
X0087500Y0061000D02*
X0087502Y0061063D01*
X0087508Y0061125D01*
X0087518Y0061187D01*
X0087531Y0061249D01*
X0087549Y0061309D01*
X0087570Y0061368D01*
X0087595Y0061426D01*
X0087624Y0061482D01*
X0087656Y0061536D01*
X0087691Y0061588D01*
X0087729Y0061637D01*
X0087771Y0061685D01*
X0087815Y0061729D01*
X0087863Y0061771D01*
X0087912Y0061809D01*
X0087964Y0061844D01*
X0088018Y0061876D01*
X0088074Y0061905D01*
X0088132Y0061930D01*
X0088191Y0061951D01*
X0088251Y0061969D01*
X0088313Y0061982D01*
X0088375Y0061992D01*
X0088437Y0061998D01*
X0088500Y0062000D01*
X0088563Y0061998D01*
X0088625Y0061992D01*
X0088687Y0061982D01*
X0088749Y0061969D01*
X0088809Y0061951D01*
X0088868Y0061930D01*
X0088926Y0061905D01*
X0088982Y0061876D01*
X0089036Y0061844D01*
X0089088Y0061809D01*
X0089137Y0061771D01*
X0089185Y0061729D01*
X0089229Y0061685D01*
X0089271Y0061637D01*
X0089309Y0061588D01*
X0089344Y0061536D01*
X0089376Y0061482D01*
X0089405Y0061426D01*
X0089430Y0061368D01*
X0089451Y0061309D01*
X0089469Y0061249D01*
X0089482Y0061187D01*
X0089492Y0061125D01*
X0089498Y0061063D01*
X0089500Y0061000D01*
X0089498Y0060937D01*
X0089492Y0060875D01*
X0089482Y0060813D01*
X0089469Y0060751D01*
X0089451Y0060691D01*
X0089430Y0060632D01*
X0089405Y0060574D01*
X0089376Y0060518D01*
X0089344Y0060464D01*
X0089309Y0060412D01*
X0089271Y0060363D01*
X0089229Y0060315D01*
X0089185Y0060271D01*
X0089137Y0060229D01*
X0089088Y0060191D01*
X0089036Y0060156D01*
X0088982Y0060124D01*
X0088926Y0060095D01*
X0088868Y0060070D01*
X0088809Y0060049D01*
X0088749Y0060031D01*
X0088687Y0060018D01*
X0088625Y0060008D01*
X0088563Y0060002D01*
X0088500Y0060000D01*
X0088437Y0060002D01*
X0088375Y0060008D01*
X0088313Y0060018D01*
X0088251Y0060031D01*
X0088191Y0060049D01*
X0088132Y0060070D01*
X0088074Y0060095D01*
X0088018Y0060124D01*
X0087964Y0060156D01*
X0087912Y0060191D01*
X0087863Y0060229D01*
X0087815Y0060271D01*
X0087771Y0060315D01*
X0087729Y0060363D01*
X0087691Y0060412D01*
X0087656Y0060464D01*
X0087624Y0060518D01*
X0087595Y0060574D01*
X0087570Y0060632D01*
X0087549Y0060691D01*
X0087531Y0060751D01*
X0087518Y0060813D01*
X0087508Y0060875D01*
X0087502Y0060937D01*
X0087500Y0061000D01*
X0090500Y0066000D02*
X0090502Y0066063D01*
X0090508Y0066125D01*
X0090518Y0066187D01*
X0090531Y0066249D01*
X0090549Y0066309D01*
X0090570Y0066368D01*
X0090595Y0066426D01*
X0090624Y0066482D01*
X0090656Y0066536D01*
X0090691Y0066588D01*
X0090729Y0066637D01*
X0090771Y0066685D01*
X0090815Y0066729D01*
X0090863Y0066771D01*
X0090912Y0066809D01*
X0090964Y0066844D01*
X0091018Y0066876D01*
X0091074Y0066905D01*
X0091132Y0066930D01*
X0091191Y0066951D01*
X0091251Y0066969D01*
X0091313Y0066982D01*
X0091375Y0066992D01*
X0091437Y0066998D01*
X0091500Y0067000D01*
X0091563Y0066998D01*
X0091625Y0066992D01*
X0091687Y0066982D01*
X0091749Y0066969D01*
X0091809Y0066951D01*
X0091868Y0066930D01*
X0091926Y0066905D01*
X0091982Y0066876D01*
X0092036Y0066844D01*
X0092088Y0066809D01*
X0092137Y0066771D01*
X0092185Y0066729D01*
X0092229Y0066685D01*
X0092271Y0066637D01*
X0092309Y0066588D01*
X0092344Y0066536D01*
X0092376Y0066482D01*
X0092405Y0066426D01*
X0092430Y0066368D01*
X0092451Y0066309D01*
X0092469Y0066249D01*
X0092482Y0066187D01*
X0092492Y0066125D01*
X0092498Y0066063D01*
X0092500Y0066000D01*
X0092498Y0065937D01*
X0092492Y0065875D01*
X0092482Y0065813D01*
X0092469Y0065751D01*
X0092451Y0065691D01*
X0092430Y0065632D01*
X0092405Y0065574D01*
X0092376Y0065518D01*
X0092344Y0065464D01*
X0092309Y0065412D01*
X0092271Y0065363D01*
X0092229Y0065315D01*
X0092185Y0065271D01*
X0092137Y0065229D01*
X0092088Y0065191D01*
X0092036Y0065156D01*
X0091982Y0065124D01*
X0091926Y0065095D01*
X0091868Y0065070D01*
X0091809Y0065049D01*
X0091749Y0065031D01*
X0091687Y0065018D01*
X0091625Y0065008D01*
X0091563Y0065002D01*
X0091500Y0065000D01*
X0091437Y0065002D01*
X0091375Y0065008D01*
X0091313Y0065018D01*
X0091251Y0065031D01*
X0091191Y0065049D01*
X0091132Y0065070D01*
X0091074Y0065095D01*
X0091018Y0065124D01*
X0090964Y0065156D01*
X0090912Y0065191D01*
X0090863Y0065229D01*
X0090815Y0065271D01*
X0090771Y0065315D01*
X0090729Y0065363D01*
X0090691Y0065412D01*
X0090656Y0065464D01*
X0090624Y0065518D01*
X0090595Y0065574D01*
X0090570Y0065632D01*
X0090549Y0065691D01*
X0090531Y0065751D01*
X0090518Y0065813D01*
X0090508Y0065875D01*
X0090502Y0065937D01*
X0090500Y0066000D01*
X0093500Y0061000D02*
X0093502Y0061063D01*
X0093508Y0061125D01*
X0093518Y0061187D01*
X0093531Y0061249D01*
X0093549Y0061309D01*
X0093570Y0061368D01*
X0093595Y0061426D01*
X0093624Y0061482D01*
X0093656Y0061536D01*
X0093691Y0061588D01*
X0093729Y0061637D01*
X0093771Y0061685D01*
X0093815Y0061729D01*
X0093863Y0061771D01*
X0093912Y0061809D01*
X0093964Y0061844D01*
X0094018Y0061876D01*
X0094074Y0061905D01*
X0094132Y0061930D01*
X0094191Y0061951D01*
X0094251Y0061969D01*
X0094313Y0061982D01*
X0094375Y0061992D01*
X0094437Y0061998D01*
X0094500Y0062000D01*
X0094563Y0061998D01*
X0094625Y0061992D01*
X0094687Y0061982D01*
X0094749Y0061969D01*
X0094809Y0061951D01*
X0094868Y0061930D01*
X0094926Y0061905D01*
X0094982Y0061876D01*
X0095036Y0061844D01*
X0095088Y0061809D01*
X0095137Y0061771D01*
X0095185Y0061729D01*
X0095229Y0061685D01*
X0095271Y0061637D01*
X0095309Y0061588D01*
X0095344Y0061536D01*
X0095376Y0061482D01*
X0095405Y0061426D01*
X0095430Y0061368D01*
X0095451Y0061309D01*
X0095469Y0061249D01*
X0095482Y0061187D01*
X0095492Y0061125D01*
X0095498Y0061063D01*
X0095500Y0061000D01*
X0095498Y0060937D01*
X0095492Y0060875D01*
X0095482Y0060813D01*
X0095469Y0060751D01*
X0095451Y0060691D01*
X0095430Y0060632D01*
X0095405Y0060574D01*
X0095376Y0060518D01*
X0095344Y0060464D01*
X0095309Y0060412D01*
X0095271Y0060363D01*
X0095229Y0060315D01*
X0095185Y0060271D01*
X0095137Y0060229D01*
X0095088Y0060191D01*
X0095036Y0060156D01*
X0094982Y0060124D01*
X0094926Y0060095D01*
X0094868Y0060070D01*
X0094809Y0060049D01*
X0094749Y0060031D01*
X0094687Y0060018D01*
X0094625Y0060008D01*
X0094563Y0060002D01*
X0094500Y0060000D01*
X0094437Y0060002D01*
X0094375Y0060008D01*
X0094313Y0060018D01*
X0094251Y0060031D01*
X0094191Y0060049D01*
X0094132Y0060070D01*
X0094074Y0060095D01*
X0094018Y0060124D01*
X0093964Y0060156D01*
X0093912Y0060191D01*
X0093863Y0060229D01*
X0093815Y0060271D01*
X0093771Y0060315D01*
X0093729Y0060363D01*
X0093691Y0060412D01*
X0093656Y0060464D01*
X0093624Y0060518D01*
X0093595Y0060574D01*
X0093570Y0060632D01*
X0093549Y0060691D01*
X0093531Y0060751D01*
X0093518Y0060813D01*
X0093508Y0060875D01*
X0093502Y0060937D01*
X0093500Y0061000D01*
X0096500Y0066000D02*
X0096502Y0066063D01*
X0096508Y0066125D01*
X0096518Y0066187D01*
X0096531Y0066249D01*
X0096549Y0066309D01*
X0096570Y0066368D01*
X0096595Y0066426D01*
X0096624Y0066482D01*
X0096656Y0066536D01*
X0096691Y0066588D01*
X0096729Y0066637D01*
X0096771Y0066685D01*
X0096815Y0066729D01*
X0096863Y0066771D01*
X0096912Y0066809D01*
X0096964Y0066844D01*
X0097018Y0066876D01*
X0097074Y0066905D01*
X0097132Y0066930D01*
X0097191Y0066951D01*
X0097251Y0066969D01*
X0097313Y0066982D01*
X0097375Y0066992D01*
X0097437Y0066998D01*
X0097500Y0067000D01*
X0097563Y0066998D01*
X0097625Y0066992D01*
X0097687Y0066982D01*
X0097749Y0066969D01*
X0097809Y0066951D01*
X0097868Y0066930D01*
X0097926Y0066905D01*
X0097982Y0066876D01*
X0098036Y0066844D01*
X0098088Y0066809D01*
X0098137Y0066771D01*
X0098185Y0066729D01*
X0098229Y0066685D01*
X0098271Y0066637D01*
X0098309Y0066588D01*
X0098344Y0066536D01*
X0098376Y0066482D01*
X0098405Y0066426D01*
X0098430Y0066368D01*
X0098451Y0066309D01*
X0098469Y0066249D01*
X0098482Y0066187D01*
X0098492Y0066125D01*
X0098498Y0066063D01*
X0098500Y0066000D01*
X0098498Y0065937D01*
X0098492Y0065875D01*
X0098482Y0065813D01*
X0098469Y0065751D01*
X0098451Y0065691D01*
X0098430Y0065632D01*
X0098405Y0065574D01*
X0098376Y0065518D01*
X0098344Y0065464D01*
X0098309Y0065412D01*
X0098271Y0065363D01*
X0098229Y0065315D01*
X0098185Y0065271D01*
X0098137Y0065229D01*
X0098088Y0065191D01*
X0098036Y0065156D01*
X0097982Y0065124D01*
X0097926Y0065095D01*
X0097868Y0065070D01*
X0097809Y0065049D01*
X0097749Y0065031D01*
X0097687Y0065018D01*
X0097625Y0065008D01*
X0097563Y0065002D01*
X0097500Y0065000D01*
X0097437Y0065002D01*
X0097375Y0065008D01*
X0097313Y0065018D01*
X0097251Y0065031D01*
X0097191Y0065049D01*
X0097132Y0065070D01*
X0097074Y0065095D01*
X0097018Y0065124D01*
X0096964Y0065156D01*
X0096912Y0065191D01*
X0096863Y0065229D01*
X0096815Y0065271D01*
X0096771Y0065315D01*
X0096729Y0065363D01*
X0096691Y0065412D01*
X0096656Y0065464D01*
X0096624Y0065518D01*
X0096595Y0065574D01*
X0096570Y0065632D01*
X0096549Y0065691D01*
X0096531Y0065751D01*
X0096518Y0065813D01*
X0096508Y0065875D01*
X0096502Y0065937D01*
X0096500Y0066000D01*
X0093500Y0071000D02*
X0093502Y0071063D01*
X0093508Y0071125D01*
X0093518Y0071187D01*
X0093531Y0071249D01*
X0093549Y0071309D01*
X0093570Y0071368D01*
X0093595Y0071426D01*
X0093624Y0071482D01*
X0093656Y0071536D01*
X0093691Y0071588D01*
X0093729Y0071637D01*
X0093771Y0071685D01*
X0093815Y0071729D01*
X0093863Y0071771D01*
X0093912Y0071809D01*
X0093964Y0071844D01*
X0094018Y0071876D01*
X0094074Y0071905D01*
X0094132Y0071930D01*
X0094191Y0071951D01*
X0094251Y0071969D01*
X0094313Y0071982D01*
X0094375Y0071992D01*
X0094437Y0071998D01*
X0094500Y0072000D01*
X0094563Y0071998D01*
X0094625Y0071992D01*
X0094687Y0071982D01*
X0094749Y0071969D01*
X0094809Y0071951D01*
X0094868Y0071930D01*
X0094926Y0071905D01*
X0094982Y0071876D01*
X0095036Y0071844D01*
X0095088Y0071809D01*
X0095137Y0071771D01*
X0095185Y0071729D01*
X0095229Y0071685D01*
X0095271Y0071637D01*
X0095309Y0071588D01*
X0095344Y0071536D01*
X0095376Y0071482D01*
X0095405Y0071426D01*
X0095430Y0071368D01*
X0095451Y0071309D01*
X0095469Y0071249D01*
X0095482Y0071187D01*
X0095492Y0071125D01*
X0095498Y0071063D01*
X0095500Y0071000D01*
X0095498Y0070937D01*
X0095492Y0070875D01*
X0095482Y0070813D01*
X0095469Y0070751D01*
X0095451Y0070691D01*
X0095430Y0070632D01*
X0095405Y0070574D01*
X0095376Y0070518D01*
X0095344Y0070464D01*
X0095309Y0070412D01*
X0095271Y0070363D01*
X0095229Y0070315D01*
X0095185Y0070271D01*
X0095137Y0070229D01*
X0095088Y0070191D01*
X0095036Y0070156D01*
X0094982Y0070124D01*
X0094926Y0070095D01*
X0094868Y0070070D01*
X0094809Y0070049D01*
X0094749Y0070031D01*
X0094687Y0070018D01*
X0094625Y0070008D01*
X0094563Y0070002D01*
X0094500Y0070000D01*
X0094437Y0070002D01*
X0094375Y0070008D01*
X0094313Y0070018D01*
X0094251Y0070031D01*
X0094191Y0070049D01*
X0094132Y0070070D01*
X0094074Y0070095D01*
X0094018Y0070124D01*
X0093964Y0070156D01*
X0093912Y0070191D01*
X0093863Y0070229D01*
X0093815Y0070271D01*
X0093771Y0070315D01*
X0093729Y0070363D01*
X0093691Y0070412D01*
X0093656Y0070464D01*
X0093624Y0070518D01*
X0093595Y0070574D01*
X0093570Y0070632D01*
X0093549Y0070691D01*
X0093531Y0070751D01*
X0093518Y0070813D01*
X0093508Y0070875D01*
X0093502Y0070937D01*
X0093500Y0071000D01*
X0090500Y0076000D02*
X0090502Y0076063D01*
X0090508Y0076125D01*
X0090518Y0076187D01*
X0090531Y0076249D01*
X0090549Y0076309D01*
X0090570Y0076368D01*
X0090595Y0076426D01*
X0090624Y0076482D01*
X0090656Y0076536D01*
X0090691Y0076588D01*
X0090729Y0076637D01*
X0090771Y0076685D01*
X0090815Y0076729D01*
X0090863Y0076771D01*
X0090912Y0076809D01*
X0090964Y0076844D01*
X0091018Y0076876D01*
X0091074Y0076905D01*
X0091132Y0076930D01*
X0091191Y0076951D01*
X0091251Y0076969D01*
X0091313Y0076982D01*
X0091375Y0076992D01*
X0091437Y0076998D01*
X0091500Y0077000D01*
X0091563Y0076998D01*
X0091625Y0076992D01*
X0091687Y0076982D01*
X0091749Y0076969D01*
X0091809Y0076951D01*
X0091868Y0076930D01*
X0091926Y0076905D01*
X0091982Y0076876D01*
X0092036Y0076844D01*
X0092088Y0076809D01*
X0092137Y0076771D01*
X0092185Y0076729D01*
X0092229Y0076685D01*
X0092271Y0076637D01*
X0092309Y0076588D01*
X0092344Y0076536D01*
X0092376Y0076482D01*
X0092405Y0076426D01*
X0092430Y0076368D01*
X0092451Y0076309D01*
X0092469Y0076249D01*
X0092482Y0076187D01*
X0092492Y0076125D01*
X0092498Y0076063D01*
X0092500Y0076000D01*
X0092498Y0075937D01*
X0092492Y0075875D01*
X0092482Y0075813D01*
X0092469Y0075751D01*
X0092451Y0075691D01*
X0092430Y0075632D01*
X0092405Y0075574D01*
X0092376Y0075518D01*
X0092344Y0075464D01*
X0092309Y0075412D01*
X0092271Y0075363D01*
X0092229Y0075315D01*
X0092185Y0075271D01*
X0092137Y0075229D01*
X0092088Y0075191D01*
X0092036Y0075156D01*
X0091982Y0075124D01*
X0091926Y0075095D01*
X0091868Y0075070D01*
X0091809Y0075049D01*
X0091749Y0075031D01*
X0091687Y0075018D01*
X0091625Y0075008D01*
X0091563Y0075002D01*
X0091500Y0075000D01*
X0091437Y0075002D01*
X0091375Y0075008D01*
X0091313Y0075018D01*
X0091251Y0075031D01*
X0091191Y0075049D01*
X0091132Y0075070D01*
X0091074Y0075095D01*
X0091018Y0075124D01*
X0090964Y0075156D01*
X0090912Y0075191D01*
X0090863Y0075229D01*
X0090815Y0075271D01*
X0090771Y0075315D01*
X0090729Y0075363D01*
X0090691Y0075412D01*
X0090656Y0075464D01*
X0090624Y0075518D01*
X0090595Y0075574D01*
X0090570Y0075632D01*
X0090549Y0075691D01*
X0090531Y0075751D01*
X0090518Y0075813D01*
X0090508Y0075875D01*
X0090502Y0075937D01*
X0090500Y0076000D01*
X0096500Y0076000D02*
X0096502Y0076063D01*
X0096508Y0076125D01*
X0096518Y0076187D01*
X0096531Y0076249D01*
X0096549Y0076309D01*
X0096570Y0076368D01*
X0096595Y0076426D01*
X0096624Y0076482D01*
X0096656Y0076536D01*
X0096691Y0076588D01*
X0096729Y0076637D01*
X0096771Y0076685D01*
X0096815Y0076729D01*
X0096863Y0076771D01*
X0096912Y0076809D01*
X0096964Y0076844D01*
X0097018Y0076876D01*
X0097074Y0076905D01*
X0097132Y0076930D01*
X0097191Y0076951D01*
X0097251Y0076969D01*
X0097313Y0076982D01*
X0097375Y0076992D01*
X0097437Y0076998D01*
X0097500Y0077000D01*
X0097563Y0076998D01*
X0097625Y0076992D01*
X0097687Y0076982D01*
X0097749Y0076969D01*
X0097809Y0076951D01*
X0097868Y0076930D01*
X0097926Y0076905D01*
X0097982Y0076876D01*
X0098036Y0076844D01*
X0098088Y0076809D01*
X0098137Y0076771D01*
X0098185Y0076729D01*
X0098229Y0076685D01*
X0098271Y0076637D01*
X0098309Y0076588D01*
X0098344Y0076536D01*
X0098376Y0076482D01*
X0098405Y0076426D01*
X0098430Y0076368D01*
X0098451Y0076309D01*
X0098469Y0076249D01*
X0098482Y0076187D01*
X0098492Y0076125D01*
X0098498Y0076063D01*
X0098500Y0076000D01*
X0098498Y0075937D01*
X0098492Y0075875D01*
X0098482Y0075813D01*
X0098469Y0075751D01*
X0098451Y0075691D01*
X0098430Y0075632D01*
X0098405Y0075574D01*
X0098376Y0075518D01*
X0098344Y0075464D01*
X0098309Y0075412D01*
X0098271Y0075363D01*
X0098229Y0075315D01*
X0098185Y0075271D01*
X0098137Y0075229D01*
X0098088Y0075191D01*
X0098036Y0075156D01*
X0097982Y0075124D01*
X0097926Y0075095D01*
X0097868Y0075070D01*
X0097809Y0075049D01*
X0097749Y0075031D01*
X0097687Y0075018D01*
X0097625Y0075008D01*
X0097563Y0075002D01*
X0097500Y0075000D01*
X0097437Y0075002D01*
X0097375Y0075008D01*
X0097313Y0075018D01*
X0097251Y0075031D01*
X0097191Y0075049D01*
X0097132Y0075070D01*
X0097074Y0075095D01*
X0097018Y0075124D01*
X0096964Y0075156D01*
X0096912Y0075191D01*
X0096863Y0075229D01*
X0096815Y0075271D01*
X0096771Y0075315D01*
X0096729Y0075363D01*
X0096691Y0075412D01*
X0096656Y0075464D01*
X0096624Y0075518D01*
X0096595Y0075574D01*
X0096570Y0075632D01*
X0096549Y0075691D01*
X0096531Y0075751D01*
X0096518Y0075813D01*
X0096508Y0075875D01*
X0096502Y0075937D01*
X0096500Y0076000D01*
X0096500Y0056000D02*
X0096502Y0056063D01*
X0096508Y0056125D01*
X0096518Y0056187D01*
X0096531Y0056249D01*
X0096549Y0056309D01*
X0096570Y0056368D01*
X0096595Y0056426D01*
X0096624Y0056482D01*
X0096656Y0056536D01*
X0096691Y0056588D01*
X0096729Y0056637D01*
X0096771Y0056685D01*
X0096815Y0056729D01*
X0096863Y0056771D01*
X0096912Y0056809D01*
X0096964Y0056844D01*
X0097018Y0056876D01*
X0097074Y0056905D01*
X0097132Y0056930D01*
X0097191Y0056951D01*
X0097251Y0056969D01*
X0097313Y0056982D01*
X0097375Y0056992D01*
X0097437Y0056998D01*
X0097500Y0057000D01*
X0097563Y0056998D01*
X0097625Y0056992D01*
X0097687Y0056982D01*
X0097749Y0056969D01*
X0097809Y0056951D01*
X0097868Y0056930D01*
X0097926Y0056905D01*
X0097982Y0056876D01*
X0098036Y0056844D01*
X0098088Y0056809D01*
X0098137Y0056771D01*
X0098185Y0056729D01*
X0098229Y0056685D01*
X0098271Y0056637D01*
X0098309Y0056588D01*
X0098344Y0056536D01*
X0098376Y0056482D01*
X0098405Y0056426D01*
X0098430Y0056368D01*
X0098451Y0056309D01*
X0098469Y0056249D01*
X0098482Y0056187D01*
X0098492Y0056125D01*
X0098498Y0056063D01*
X0098500Y0056000D01*
X0098498Y0055937D01*
X0098492Y0055875D01*
X0098482Y0055813D01*
X0098469Y0055751D01*
X0098451Y0055691D01*
X0098430Y0055632D01*
X0098405Y0055574D01*
X0098376Y0055518D01*
X0098344Y0055464D01*
X0098309Y0055412D01*
X0098271Y0055363D01*
X0098229Y0055315D01*
X0098185Y0055271D01*
X0098137Y0055229D01*
X0098088Y0055191D01*
X0098036Y0055156D01*
X0097982Y0055124D01*
X0097926Y0055095D01*
X0097868Y0055070D01*
X0097809Y0055049D01*
X0097749Y0055031D01*
X0097687Y0055018D01*
X0097625Y0055008D01*
X0097563Y0055002D01*
X0097500Y0055000D01*
X0097437Y0055002D01*
X0097375Y0055008D01*
X0097313Y0055018D01*
X0097251Y0055031D01*
X0097191Y0055049D01*
X0097132Y0055070D01*
X0097074Y0055095D01*
X0097018Y0055124D01*
X0096964Y0055156D01*
X0096912Y0055191D01*
X0096863Y0055229D01*
X0096815Y0055271D01*
X0096771Y0055315D01*
X0096729Y0055363D01*
X0096691Y0055412D01*
X0096656Y0055464D01*
X0096624Y0055518D01*
X0096595Y0055574D01*
X0096570Y0055632D01*
X0096549Y0055691D01*
X0096531Y0055751D01*
X0096518Y0055813D01*
X0096508Y0055875D01*
X0096502Y0055937D01*
X0096500Y0056000D01*
X0090500Y0056000D02*
X0090502Y0056063D01*
X0090508Y0056125D01*
X0090518Y0056187D01*
X0090531Y0056249D01*
X0090549Y0056309D01*
X0090570Y0056368D01*
X0090595Y0056426D01*
X0090624Y0056482D01*
X0090656Y0056536D01*
X0090691Y0056588D01*
X0090729Y0056637D01*
X0090771Y0056685D01*
X0090815Y0056729D01*
X0090863Y0056771D01*
X0090912Y0056809D01*
X0090964Y0056844D01*
X0091018Y0056876D01*
X0091074Y0056905D01*
X0091132Y0056930D01*
X0091191Y0056951D01*
X0091251Y0056969D01*
X0091313Y0056982D01*
X0091375Y0056992D01*
X0091437Y0056998D01*
X0091500Y0057000D01*
X0091563Y0056998D01*
X0091625Y0056992D01*
X0091687Y0056982D01*
X0091749Y0056969D01*
X0091809Y0056951D01*
X0091868Y0056930D01*
X0091926Y0056905D01*
X0091982Y0056876D01*
X0092036Y0056844D01*
X0092088Y0056809D01*
X0092137Y0056771D01*
X0092185Y0056729D01*
X0092229Y0056685D01*
X0092271Y0056637D01*
X0092309Y0056588D01*
X0092344Y0056536D01*
X0092376Y0056482D01*
X0092405Y0056426D01*
X0092430Y0056368D01*
X0092451Y0056309D01*
X0092469Y0056249D01*
X0092482Y0056187D01*
X0092492Y0056125D01*
X0092498Y0056063D01*
X0092500Y0056000D01*
X0092498Y0055937D01*
X0092492Y0055875D01*
X0092482Y0055813D01*
X0092469Y0055751D01*
X0092451Y0055691D01*
X0092430Y0055632D01*
X0092405Y0055574D01*
X0092376Y0055518D01*
X0092344Y0055464D01*
X0092309Y0055412D01*
X0092271Y0055363D01*
X0092229Y0055315D01*
X0092185Y0055271D01*
X0092137Y0055229D01*
X0092088Y0055191D01*
X0092036Y0055156D01*
X0091982Y0055124D01*
X0091926Y0055095D01*
X0091868Y0055070D01*
X0091809Y0055049D01*
X0091749Y0055031D01*
X0091687Y0055018D01*
X0091625Y0055008D01*
X0091563Y0055002D01*
X0091500Y0055000D01*
X0091437Y0055002D01*
X0091375Y0055008D01*
X0091313Y0055018D01*
X0091251Y0055031D01*
X0091191Y0055049D01*
X0091132Y0055070D01*
X0091074Y0055095D01*
X0091018Y0055124D01*
X0090964Y0055156D01*
X0090912Y0055191D01*
X0090863Y0055229D01*
X0090815Y0055271D01*
X0090771Y0055315D01*
X0090729Y0055363D01*
X0090691Y0055412D01*
X0090656Y0055464D01*
X0090624Y0055518D01*
X0090595Y0055574D01*
X0090570Y0055632D01*
X0090549Y0055691D01*
X0090531Y0055751D01*
X0090518Y0055813D01*
X0090508Y0055875D01*
X0090502Y0055937D01*
X0090500Y0056000D01*
X0084500Y0056000D02*
X0084502Y0056063D01*
X0084508Y0056125D01*
X0084518Y0056187D01*
X0084531Y0056249D01*
X0084549Y0056309D01*
X0084570Y0056368D01*
X0084595Y0056426D01*
X0084624Y0056482D01*
X0084656Y0056536D01*
X0084691Y0056588D01*
X0084729Y0056637D01*
X0084771Y0056685D01*
X0084815Y0056729D01*
X0084863Y0056771D01*
X0084912Y0056809D01*
X0084964Y0056844D01*
X0085018Y0056876D01*
X0085074Y0056905D01*
X0085132Y0056930D01*
X0085191Y0056951D01*
X0085251Y0056969D01*
X0085313Y0056982D01*
X0085375Y0056992D01*
X0085437Y0056998D01*
X0085500Y0057000D01*
X0085563Y0056998D01*
X0085625Y0056992D01*
X0085687Y0056982D01*
X0085749Y0056969D01*
X0085809Y0056951D01*
X0085868Y0056930D01*
X0085926Y0056905D01*
X0085982Y0056876D01*
X0086036Y0056844D01*
X0086088Y0056809D01*
X0086137Y0056771D01*
X0086185Y0056729D01*
X0086229Y0056685D01*
X0086271Y0056637D01*
X0086309Y0056588D01*
X0086344Y0056536D01*
X0086376Y0056482D01*
X0086405Y0056426D01*
X0086430Y0056368D01*
X0086451Y0056309D01*
X0086469Y0056249D01*
X0086482Y0056187D01*
X0086492Y0056125D01*
X0086498Y0056063D01*
X0086500Y0056000D01*
X0086498Y0055937D01*
X0086492Y0055875D01*
X0086482Y0055813D01*
X0086469Y0055751D01*
X0086451Y0055691D01*
X0086430Y0055632D01*
X0086405Y0055574D01*
X0086376Y0055518D01*
X0086344Y0055464D01*
X0086309Y0055412D01*
X0086271Y0055363D01*
X0086229Y0055315D01*
X0086185Y0055271D01*
X0086137Y0055229D01*
X0086088Y0055191D01*
X0086036Y0055156D01*
X0085982Y0055124D01*
X0085926Y0055095D01*
X0085868Y0055070D01*
X0085809Y0055049D01*
X0085749Y0055031D01*
X0085687Y0055018D01*
X0085625Y0055008D01*
X0085563Y0055002D01*
X0085500Y0055000D01*
X0085437Y0055002D01*
X0085375Y0055008D01*
X0085313Y0055018D01*
X0085251Y0055031D01*
X0085191Y0055049D01*
X0085132Y0055070D01*
X0085074Y0055095D01*
X0085018Y0055124D01*
X0084964Y0055156D01*
X0084912Y0055191D01*
X0084863Y0055229D01*
X0084815Y0055271D01*
X0084771Y0055315D01*
X0084729Y0055363D01*
X0084691Y0055412D01*
X0084656Y0055464D01*
X0084624Y0055518D01*
X0084595Y0055574D01*
X0084570Y0055632D01*
X0084549Y0055691D01*
X0084531Y0055751D01*
X0084518Y0055813D01*
X0084508Y0055875D01*
X0084502Y0055937D01*
X0084500Y0056000D01*
M02*
