G75*
%MOIN*%
%OFA0B0*%
%FSLAX25Y25*%
%IPPOS*%
%LPD*%
%AMOC8*
5,1,8,0,0,1.08239X$1,22.5*
%
%ADD10C,0.02800*%
%ADD11C,0.01800*%
%ADD12C,0.08200*%
D10*
X0052000Y0046500D03*
X0049000Y0051500D03*
X0052000Y0056500D03*
X0055000Y0051500D03*
X0058000Y0056500D03*
X0061000Y0051500D03*
X0058000Y0046500D03*
X0079500Y0056000D03*
X0082500Y0061000D03*
X0079500Y0066000D03*
X0082500Y0071000D03*
X0079500Y0076000D03*
X0085500Y0076000D03*
X0088500Y0071000D03*
X0085500Y0066000D03*
X0088500Y0061000D03*
X0091500Y0066000D03*
X0094500Y0061000D03*
X0097500Y0066000D03*
X0094500Y0071000D03*
X0091500Y0076000D03*
X0097500Y0076000D03*
X0097500Y0056000D03*
X0091500Y0056000D03*
X0085500Y0056000D03*
D11*
X0113500Y0055500D02*
X0113500Y0077500D01*
X0135500Y0077500D01*
X0135500Y0055500D01*
X0113500Y0055500D01*
X0113500Y0057254D02*
X0135500Y0057254D01*
X0135500Y0059052D02*
X0113500Y0059052D01*
X0113500Y0060851D02*
X0135500Y0060851D01*
X0135500Y0062649D02*
X0113500Y0062649D01*
X0113500Y0064448D02*
X0135500Y0064448D01*
X0135500Y0066246D02*
X0113500Y0066246D01*
X0113500Y0068045D02*
X0135500Y0068045D01*
X0135500Y0069843D02*
X0113500Y0069843D01*
X0113500Y0071642D02*
X0135500Y0071642D01*
X0135500Y0073440D02*
X0113500Y0073440D01*
X0113500Y0075239D02*
X0135500Y0075239D01*
X0135500Y0077037D02*
X0113500Y0077037D01*
X0073000Y0083500D02*
X0057000Y0083500D01*
X0057000Y0099500D01*
X0073000Y0099500D01*
X0073000Y0083500D01*
X0073000Y0084232D02*
X0057000Y0084232D01*
X0057000Y0086030D02*
X0073000Y0086030D01*
X0073000Y0087829D02*
X0057000Y0087829D01*
X0057000Y0089627D02*
X0073000Y0089627D01*
X0073000Y0091426D02*
X0057000Y0091426D01*
X0057000Y0093224D02*
X0073000Y0093224D01*
X0073000Y0095023D02*
X0057000Y0095023D01*
X0057000Y0096821D02*
X0073000Y0096821D01*
X0073000Y0098620D02*
X0057000Y0098620D01*
X0053000Y0098620D02*
X0037000Y0098620D01*
X0037000Y0100000D02*
X0037000Y0083500D01*
X0053000Y0083500D01*
X0053000Y0100000D01*
X0037000Y0100000D01*
X0037000Y0096821D02*
X0053000Y0096821D01*
X0053000Y0095023D02*
X0037000Y0095023D01*
X0037000Y0093224D02*
X0053000Y0093224D01*
X0053000Y0091426D02*
X0037000Y0091426D01*
X0037000Y0089627D02*
X0053000Y0089627D01*
X0053000Y0087829D02*
X0037000Y0087829D01*
X0037000Y0086030D02*
X0053000Y0086030D01*
X0053000Y0084232D02*
X0037000Y0084232D01*
D12*
X0020000Y0031500D03*
X0030000Y0031500D03*
X0030000Y0101500D03*
X0020000Y0101500D03*
X0120000Y0101500D03*
X0130000Y0101500D03*
X0130000Y0031500D03*
X0120000Y0031500D03*
M02*
