G75*
%MOIN*%
%OFA0B0*%
%FSLAX25Y25*%
%IPPOS*%
%LPD*%
%AMOC8*
5,1,8,0,0,1.08239X$1,22.5*
%
%ADD10C,0.02800*%
%ADD11C,0.01800*%
%ADD12R,0.18504X0.00039*%
%ADD13R,0.18583X0.00039*%
%ADD14R,0.18858X0.00079*%
%ADD15R,0.18937X0.00039*%
%ADD16R,0.19134X0.00039*%
%ADD17R,0.19213X0.00039*%
%ADD18R,0.19291X0.00079*%
%ADD19R,0.19370X0.00039*%
%ADD20R,0.19449X0.00039*%
%ADD21R,0.19528X0.00039*%
%ADD22R,0.19528X0.00079*%
%ADD23R,0.19606X0.00039*%
%ADD24R,0.19685X0.00039*%
%ADD25R,0.19685X0.00079*%
%ADD26R,0.01732X0.00079*%
%ADD27R,0.01693X0.00079*%
%ADD28R,0.01732X0.00039*%
%ADD29R,0.01693X0.00039*%
%ADD30R,0.01260X0.00039*%
%ADD31R,0.01929X0.00039*%
%ADD32R,0.02323X0.00079*%
%ADD33R,0.02795X0.00039*%
%ADD34R,0.03031X0.00039*%
%ADD35R,0.03425X0.00039*%
%ADD36R,0.03583X0.00079*%
%ADD37R,0.03898X0.00039*%
%ADD38R,0.04055X0.00039*%
%ADD39R,0.04370X0.00039*%
%ADD40R,0.00394X0.00039*%
%ADD41R,0.04449X0.00079*%
%ADD42R,0.00512X0.00079*%
%ADD43R,0.04724X0.00039*%
%ADD44R,0.00630X0.00039*%
%ADD45R,0.04843X0.00039*%
%ADD46R,0.00748X0.00039*%
%ADD47R,0.05079X0.00039*%
%ADD48R,0.00827X0.00039*%
%ADD49R,0.05236X0.00079*%
%ADD50R,0.00866X0.00079*%
%ADD51R,0.05394X0.00039*%
%ADD52R,0.00906X0.00039*%
%ADD53R,0.05591X0.00039*%
%ADD54R,0.00984X0.00039*%
%ADD55R,0.05669X0.00039*%
%ADD56R,0.01063X0.00039*%
%ADD57R,0.05866X0.00039*%
%ADD58R,0.01102X0.00039*%
%ADD59R,0.05984X0.00079*%
%ADD60R,0.01142X0.00079*%
%ADD61R,0.06063X0.00039*%
%ADD62R,0.01181X0.00039*%
%ADD63R,0.06181X0.00039*%
%ADD64R,0.06378X0.00039*%
%ADD65R,0.01299X0.00039*%
%ADD66R,0.06457X0.00079*%
%ADD67R,0.01339X0.00079*%
%ADD68R,0.06614X0.00039*%
%ADD69R,0.01378X0.00039*%
%ADD70R,0.06654X0.00039*%
%ADD71R,0.01457X0.00039*%
%ADD72R,0.06850X0.00039*%
%ADD73R,0.01496X0.00039*%
%ADD74R,0.06929X0.00079*%
%ADD75R,0.01535X0.00079*%
%ADD76R,0.08622X0.00039*%
%ADD77R,0.08701X0.00039*%
%ADD78R,0.08740X0.00039*%
%ADD79R,0.08780X0.00039*%
%ADD80R,0.08819X0.00079*%
%ADD81R,0.08858X0.00039*%
%ADD82R,0.03268X0.00039*%
%ADD83R,0.04488X0.00039*%
%ADD84R,0.03150X0.00079*%
%ADD85R,0.04370X0.00079*%
%ADD86R,0.02913X0.00039*%
%ADD87R,0.02835X0.00039*%
%ADD88R,0.03976X0.00039*%
%ADD89R,0.02717X0.00039*%
%ADD90R,0.03819X0.00039*%
%ADD91R,0.02677X0.00079*%
%ADD92R,0.03740X0.00079*%
%ADD93R,0.02598X0.00039*%
%ADD94R,0.03622X0.00039*%
%ADD95R,0.02559X0.00039*%
%ADD96R,0.03543X0.00039*%
%ADD97R,0.02520X0.00039*%
%ADD98R,0.02402X0.00079*%
%ADD99R,0.03346X0.00079*%
%ADD100R,0.02402X0.00039*%
%ADD101R,0.03189X0.00039*%
%ADD102R,0.02283X0.00039*%
%ADD103R,0.03150X0.00039*%
%ADD104R,0.02283X0.00079*%
%ADD105R,0.02992X0.00079*%
%ADD106R,0.02165X0.00039*%
%ADD107R,0.02953X0.00039*%
%ADD108R,0.02126X0.00039*%
%ADD109R,0.02165X0.00079*%
%ADD110R,0.02795X0.00079*%
%ADD111R,0.02087X0.00039*%
%ADD112R,0.02047X0.00039*%
%ADD113R,0.02047X0.00079*%
%ADD114R,0.01969X0.00039*%
%ADD115R,0.03110X0.00039*%
%ADD116R,0.02008X0.00079*%
%ADD117R,0.03189X0.00079*%
%ADD118R,0.03228X0.00039*%
%ADD119R,0.01890X0.00039*%
%ADD120R,0.03346X0.00039*%
%ADD121R,0.03386X0.00039*%
%ADD122R,0.01890X0.00079*%
%ADD123R,0.03425X0.00079*%
%ADD124R,0.01850X0.00039*%
%ADD125R,0.03465X0.00039*%
%ADD126R,0.03583X0.00039*%
%ADD127R,0.01850X0.00079*%
%ADD128R,0.03622X0.00079*%
%ADD129R,0.03661X0.00039*%
%ADD130R,0.03780X0.00039*%
%ADD131R,0.03780X0.00079*%
%ADD132R,0.01811X0.00039*%
%ADD133R,0.01811X0.00079*%
%ADD134R,0.03819X0.00079*%
%ADD135R,0.03740X0.00039*%
%ADD136R,0.01772X0.00039*%
%ADD137R,0.03661X0.00079*%
%ADD138R,0.01614X0.00039*%
%ADD139R,0.01535X0.00039*%
%ADD140R,0.01417X0.00039*%
%ADD141R,0.01654X0.00039*%
%ADD142R,0.03701X0.00039*%
%ADD143R,0.03858X0.00039*%
%ADD144R,0.03858X0.00079*%
%ADD145R,0.03504X0.00039*%
%ADD146R,0.03307X0.00039*%
%ADD147R,0.03228X0.00079*%
%ADD148R,0.03071X0.00039*%
%ADD149R,0.01969X0.00079*%
%ADD150R,0.02874X0.00039*%
%ADD151R,0.02835X0.00079*%
%ADD152R,0.02087X0.00079*%
%ADD153R,0.02205X0.00039*%
%ADD154R,0.03031X0.00079*%
%ADD155R,0.02323X0.00039*%
%ADD156R,0.02441X0.00039*%
%ADD157R,0.02480X0.00039*%
%ADD158R,0.02677X0.00039*%
%ADD159R,0.04094X0.00039*%
%ADD160R,0.04331X0.00079*%
%ADD161R,0.03110X0.00079*%
%ADD162R,0.08819X0.00039*%
%ADD163R,0.08740X0.00079*%
%ADD164R,0.08661X0.00039*%
%ADD165R,0.01496X0.00079*%
%ADD166R,0.06850X0.00079*%
%ADD167R,0.06772X0.00039*%
%ADD168R,0.06575X0.00039*%
%ADD169R,0.01339X0.00039*%
%ADD170R,0.01220X0.00039*%
%ADD171R,0.01142X0.00039*%
%ADD172R,0.01024X0.00039*%
%ADD173R,0.00945X0.00039*%
%ADD174R,0.05197X0.00079*%
%ADD175R,0.00787X0.00039*%
%ADD176R,0.05039X0.00039*%
%ADD177R,0.04882X0.00039*%
%ADD178R,0.00551X0.00079*%
%ADD179R,0.04488X0.00079*%
%ADD180R,0.00433X0.00039*%
%ADD181R,0.03937X0.00039*%
%ADD182R,0.02992X0.00039*%
%ADD183R,0.18976X0.00039*%
%ADD184R,0.18898X0.00079*%
%ADD185R,0.00945X0.00079*%
%ADD186R,0.04173X0.00079*%
%ADD187R,0.04646X0.00039*%
%ADD188R,0.05039X0.00079*%
%ADD189R,0.05236X0.00039*%
%ADD190R,0.05354X0.00039*%
%ADD191R,0.05551X0.00039*%
%ADD192R,0.02362X0.00039*%
%ADD193R,0.05630X0.00079*%
%ADD194R,0.05787X0.00039*%
%ADD195R,0.05906X0.00039*%
%ADD196R,0.06024X0.00039*%
%ADD197R,0.02638X0.00039*%
%ADD198R,0.06142X0.00079*%
%ADD199R,0.02756X0.00079*%
%ADD200R,0.06299X0.00039*%
%ADD201R,0.06496X0.00039*%
%ADD202R,0.06693X0.00079*%
%ADD203R,0.06890X0.00039*%
%ADD204R,0.07008X0.00039*%
%ADD205R,0.07087X0.00079*%
%ADD206R,0.07165X0.00039*%
%ADD207R,0.07244X0.00039*%
%ADD208R,0.10866X0.00039*%
%ADD209R,0.10906X0.00079*%
%ADD210R,0.06929X0.00039*%
%ADD211R,0.06535X0.00039*%
%ADD212R,0.02913X0.00079*%
%ADD213R,0.05866X0.00079*%
%ADD214R,0.05709X0.00039*%
%ADD215R,0.05433X0.00039*%
%ADD216R,0.05276X0.00039*%
%ADD217R,0.02559X0.00079*%
%ADD218R,0.04921X0.00079*%
%ADD219R,0.04409X0.00039*%
%ADD220R,0.04134X0.00039*%
%ADD221R,0.02244X0.00039*%
%ADD222R,0.02126X0.00079*%
%ADD223R,0.03543X0.00079*%
%ADD224R,0.02008X0.00039*%
%ADD225R,0.01929X0.00079*%
%ADD226R,0.03504X0.00079*%
%ADD227R,0.01772X0.00079*%
%ADD228R,0.02756X0.00039*%
%ADD229R,0.03268X0.00079*%
%ADD230R,0.02205X0.00079*%
%ADD231R,0.05630X0.00039*%
%ADD232R,0.06142X0.00039*%
%ADD233R,0.10827X0.00039*%
%ADD234R,0.07283X0.00039*%
%ADD235R,0.07205X0.00039*%
%ADD236R,0.07047X0.00039*%
%ADD237R,0.06772X0.00079*%
%ADD238R,0.05827X0.00039*%
%ADD239R,0.05118X0.00079*%
%ADD240R,0.04764X0.00039*%
%ADD241R,0.00472X0.00039*%
%ADD242R,0.00079X0.00039*%
%ADD243R,0.04016X0.00039*%
%ADD244R,0.04213X0.00079*%
%ADD245R,0.04567X0.00039*%
%ADD246R,0.04921X0.00039*%
%ADD247R,0.05079X0.00079*%
%ADD248R,0.05315X0.00039*%
%ADD249R,0.05945X0.00039*%
%ADD250R,0.06417X0.00039*%
%ADD251R,0.07126X0.00039*%
%ADD252R,0.07323X0.00039*%
%ADD253R,0.07441X0.00079*%
%ADD254R,0.07598X0.00039*%
%ADD255R,0.07638X0.00039*%
%ADD256R,0.07795X0.00039*%
%ADD257R,0.07913X0.00079*%
%ADD258R,0.02520X0.00079*%
%ADD259R,0.02244X0.00079*%
%ADD260R,0.03307X0.00079*%
%ADD261R,0.02717X0.00079*%
%ADD262R,0.02953X0.00079*%
%ADD263R,0.07874X0.00039*%
%ADD264R,0.07717X0.00039*%
%ADD265R,0.06220X0.00079*%
%ADD266R,0.04685X0.00039*%
%ADD267R,0.00472X0.00079*%
%ADD268R,0.00709X0.00039*%
%ADD269R,0.00276X0.00039*%
%ADD270R,0.00866X0.00039*%
%ADD271R,0.00827X0.00079*%
%ADD272R,0.01102X0.00079*%
%ADD273R,0.01220X0.00079*%
%ADD274R,0.01417X0.00079*%
%ADD275R,0.01575X0.00039*%
%ADD276R,0.01654X0.00079*%
%ADD277R,0.01575X0.00079*%
%ADD278R,0.02362X0.00079*%
%ADD279R,0.03937X0.00079*%
%ADD280R,0.01614X0.00079*%
%ADD281R,0.03465X0.00079*%
%ADD282R,0.01181X0.00079*%
%ADD283R,0.01457X0.00079*%
%ADD284R,0.01063X0.00079*%
%ADD285R,0.00709X0.00079*%
%ADD286R,0.00591X0.00039*%
%ADD287R,0.00512X0.00039*%
%ADD288R,0.00551X0.00039*%
%ADD289R,0.01024X0.00079*%
%ADD290R,0.00984X0.00079*%
%ADD291R,0.00630X0.00079*%
%ADD292R,0.00669X0.00039*%
%ADD293R,0.00787X0.00079*%
%ADD294R,0.00591X0.00079*%
%ADD295R,0.00276X0.00079*%
%ADD296R,0.00433X0.00079*%
%ADD297R,0.00906X0.00079*%
%ADD298R,0.00197X0.00039*%
%ADD299R,0.00354X0.00039*%
%ADD300R,0.00039X0.00039*%
%ADD301R,0.00118X0.00079*%
%ADD302R,0.00236X0.00039*%
%ADD303R,0.00748X0.00079*%
%ADD304R,0.00669X0.00079*%
%ADD305R,0.01378X0.00079*%
%ADD306R,0.00157X0.00079*%
%ADD307R,0.00118X0.00039*%
%ADD308R,0.00197X0.00079*%
%ADD309R,0.00315X0.00039*%
%ADD310C,0.08200*%
%ADD311R,0.15354X0.00157*%
%ADD312R,0.15354X0.00197*%
%ADD313R,0.05039X0.00197*%
%ADD314R,0.08937X0.00197*%
%ADD315R,0.00394X0.00197*%
%ADD316R,0.00197X0.00197*%
%ADD317R,0.02913X0.00197*%
%ADD318R,0.02362X0.00197*%
%ADD319R,0.10118X0.00197*%
%ADD320R,0.00591X0.00197*%
%ADD321R,0.04449X0.00197*%
%ADD322R,0.05236X0.00197*%
%ADD323R,0.03898X0.00197*%
%ADD324R,0.03110X0.00197*%
%ADD325R,0.04252X0.00197*%
%ADD326R,0.01575X0.00197*%
%ADD327R,0.04685X0.00197*%
%ADD328R,0.01181X0.00197*%
%ADD329R,0.00945X0.00197*%
%ADD330R,0.00787X0.00197*%
%ADD331R,0.04055X0.00197*%
%ADD332R,0.04488X0.00197*%
%ADD333R,0.00354X0.00197*%
%ADD334R,0.00748X0.00197*%
%ADD335R,0.03858X0.00197*%
%ADD336R,0.04291X0.00197*%
%ADD337R,0.00551X0.00197*%
%ADD338R,0.00984X0.00197*%
%ADD339R,0.03661X0.00197*%
%ADD340R,0.03307X0.00197*%
%ADD341R,0.03504X0.00197*%
%ADD342R,0.03701X0.00197*%
%ADD343R,0.04094X0.00197*%
%ADD344R,0.00394X0.00157*%
%ADD345R,0.00197X0.00157*%
%ADD346R,0.03110X0.00157*%
%ADD347R,0.04646X0.00157*%
%ADD348R,0.02913X0.00157*%
%ADD349R,0.04843X0.00197*%
%ADD350R,0.02717X0.00197*%
%ADD351R,0.02520X0.00197*%
%ADD352R,0.05433X0.00197*%
%ADD353R,0.00157X0.00197*%
%ADD354R,0.02126X0.00197*%
%ADD355R,0.05630X0.00197*%
%ADD356R,0.01929X0.00197*%
%ADD357R,0.06417X0.00197*%
%ADD358R,0.00354X0.00157*%
%ADD359R,0.02520X0.00157*%
%ADD360R,0.05630X0.00157*%
%ADD361R,0.03307X0.00157*%
%ADD362R,0.04646X0.00197*%
%ADD363R,0.00591X0.00157*%
%ADD364R,0.04449X0.00157*%
%ADD365R,0.03898X0.00157*%
%ADD366R,0.01142X0.00197*%
%ADD367R,0.06024X0.00197*%
%ADD368R,0.04882X0.00197*%
%ADD369R,0.02165X0.00197*%
D10*
X0052000Y0046500D03*
X0049000Y0051500D03*
X0052000Y0056500D03*
X0055000Y0051500D03*
X0058000Y0056500D03*
X0061000Y0051500D03*
X0058000Y0046500D03*
X0079500Y0056000D03*
X0082500Y0061000D03*
X0079500Y0066000D03*
X0082500Y0071000D03*
X0079500Y0076000D03*
X0085500Y0076000D03*
X0088500Y0071000D03*
X0085500Y0066000D03*
X0088500Y0061000D03*
X0091500Y0066000D03*
X0094500Y0061000D03*
X0097500Y0066000D03*
X0094500Y0071000D03*
X0091500Y0076000D03*
X0097500Y0076000D03*
X0097500Y0056000D03*
X0091500Y0056000D03*
X0085500Y0056000D03*
D11*
X0094000Y0082500D02*
X0076000Y0082500D01*
X0076000Y0100500D01*
X0094000Y0100500D01*
X0094000Y0082500D01*
D12*
X0065000Y0081677D03*
X0065000Y0101323D03*
X0045000Y0101323D03*
X0045000Y0081677D03*
X0124500Y0076323D03*
X0124500Y0056677D03*
D13*
X0124500Y0056717D03*
X0124500Y0076283D03*
X0065000Y0081717D03*
X0065000Y0101283D03*
X0045000Y0101283D03*
X0045000Y0081717D03*
D14*
X0045020Y0101224D03*
X0065020Y0101224D03*
X0124520Y0076224D03*
D15*
X0124520Y0076165D03*
X0065020Y0101165D03*
X0045020Y0101165D03*
D16*
X0045000Y0101126D03*
X0045000Y0081874D03*
X0065000Y0081874D03*
X0065000Y0101126D03*
X0124500Y0076126D03*
X0124500Y0056874D03*
D17*
X0124500Y0056913D03*
X0124500Y0076087D03*
X0065000Y0081913D03*
X0065000Y0101087D03*
X0045000Y0101087D03*
X0045000Y0081913D03*
D18*
X0045000Y0081972D03*
X0045000Y0101028D03*
X0065000Y0101028D03*
X0065000Y0081972D03*
X0124500Y0076028D03*
X0124500Y0056972D03*
D19*
X0124500Y0057031D03*
X0124500Y0075969D03*
X0065000Y0082031D03*
X0065000Y0100969D03*
X0045000Y0100969D03*
X0045000Y0082031D03*
D20*
X0045039Y0100929D03*
X0065039Y0100929D03*
X0124539Y0075929D03*
D21*
X0124500Y0075890D03*
X0124500Y0057110D03*
X0124500Y0057071D03*
X0065000Y0082071D03*
X0065000Y0082110D03*
X0065000Y0100890D03*
X0045000Y0100890D03*
X0045000Y0082110D03*
X0045000Y0082071D03*
D22*
X0045000Y0082169D03*
X0045000Y0100831D03*
X0065000Y0100831D03*
X0065000Y0082169D03*
X0124500Y0075831D03*
X0124500Y0057169D03*
D23*
X0124500Y0057228D03*
X0124500Y0075772D03*
X0065000Y0082228D03*
X0065000Y0100772D03*
X0045000Y0100772D03*
X0045000Y0082228D03*
D24*
X0045000Y0082268D03*
X0045000Y0082307D03*
X0045000Y0082425D03*
X0045000Y0082465D03*
X0045000Y0082504D03*
X0045000Y0082543D03*
X0045000Y0082661D03*
X0045000Y0082701D03*
X0045000Y0082740D03*
X0045000Y0082858D03*
X0045000Y0082898D03*
X0045000Y0082937D03*
X0045000Y0083055D03*
X0045000Y0083094D03*
X0045000Y0083134D03*
X0045000Y0083252D03*
X0045000Y0083291D03*
X0045000Y0083331D03*
X0045000Y0099630D03*
X0045000Y0099669D03*
X0045000Y0099709D03*
X0045000Y0099748D03*
X0045000Y0099866D03*
X0045000Y0099906D03*
X0045000Y0099945D03*
X0045000Y0100063D03*
X0045000Y0100102D03*
X0045000Y0100142D03*
X0045000Y0100260D03*
X0045000Y0100299D03*
X0045000Y0100339D03*
X0045000Y0100457D03*
X0045000Y0100496D03*
X0045000Y0100535D03*
X0045000Y0100575D03*
X0045000Y0100693D03*
X0045000Y0100732D03*
X0065000Y0100732D03*
X0065000Y0100693D03*
X0065000Y0100575D03*
X0065000Y0100535D03*
X0065000Y0100496D03*
X0065000Y0100457D03*
X0065000Y0100339D03*
X0065000Y0100299D03*
X0065000Y0100260D03*
X0065000Y0100142D03*
X0065000Y0100102D03*
X0065000Y0100063D03*
X0065000Y0099945D03*
X0065000Y0099906D03*
X0065000Y0099866D03*
X0065000Y0099748D03*
X0065000Y0099709D03*
X0065000Y0099669D03*
X0065000Y0099630D03*
X0065000Y0083331D03*
X0065000Y0083291D03*
X0065000Y0083252D03*
X0065000Y0083134D03*
X0065000Y0083094D03*
X0065000Y0083055D03*
X0065000Y0082937D03*
X0065000Y0082898D03*
X0065000Y0082858D03*
X0065000Y0082740D03*
X0065000Y0082701D03*
X0065000Y0082661D03*
X0065000Y0082543D03*
X0065000Y0082504D03*
X0065000Y0082465D03*
X0065000Y0082425D03*
X0065000Y0082307D03*
X0065000Y0082268D03*
X0124500Y0075732D03*
X0124500Y0075693D03*
X0124500Y0075575D03*
X0124500Y0075535D03*
X0124500Y0075496D03*
X0124500Y0075457D03*
X0124500Y0075339D03*
X0124500Y0075299D03*
X0124500Y0075260D03*
X0124500Y0075142D03*
X0124500Y0075102D03*
X0124500Y0075063D03*
X0124500Y0074945D03*
X0124500Y0074906D03*
X0124500Y0074866D03*
X0124500Y0074748D03*
X0124500Y0074709D03*
X0124500Y0074669D03*
X0124500Y0074630D03*
X0124500Y0058331D03*
X0124500Y0058291D03*
X0124500Y0058252D03*
X0124500Y0058134D03*
X0124500Y0058094D03*
X0124500Y0058055D03*
X0124500Y0057937D03*
X0124500Y0057898D03*
X0124500Y0057858D03*
X0124500Y0057740D03*
X0124500Y0057701D03*
X0124500Y0057661D03*
X0124500Y0057543D03*
X0124500Y0057504D03*
X0124500Y0057465D03*
X0124500Y0057425D03*
X0124500Y0057307D03*
X0124500Y0057268D03*
D25*
X0124500Y0057366D03*
X0124500Y0057602D03*
X0124500Y0057799D03*
X0124500Y0057996D03*
X0124500Y0058193D03*
X0124500Y0074807D03*
X0124500Y0075004D03*
X0124500Y0075201D03*
X0124500Y0075398D03*
X0124500Y0075634D03*
X0065000Y0082366D03*
X0065000Y0082602D03*
X0065000Y0082799D03*
X0065000Y0082996D03*
X0065000Y0083193D03*
X0065000Y0099807D03*
X0065000Y0100004D03*
X0065000Y0100201D03*
X0065000Y0100398D03*
X0065000Y0100634D03*
X0045000Y0100634D03*
X0045000Y0100398D03*
X0045000Y0100201D03*
X0045000Y0100004D03*
X0045000Y0099807D03*
X0045000Y0083193D03*
X0045000Y0082996D03*
X0045000Y0082799D03*
X0045000Y0082602D03*
X0045000Y0082366D03*
D26*
X0036024Y0083429D03*
X0036024Y0083626D03*
X0036024Y0083823D03*
X0036024Y0084059D03*
X0036024Y0084256D03*
X0036024Y0084453D03*
X0036024Y0084650D03*
X0036024Y0084886D03*
X0036024Y0085083D03*
X0036024Y0085280D03*
X0036024Y0085476D03*
X0036024Y0085713D03*
X0036024Y0085909D03*
X0036024Y0086106D03*
X0036024Y0086303D03*
X0036024Y0086539D03*
X0036024Y0086736D03*
X0036024Y0086933D03*
X0036024Y0087130D03*
X0036024Y0087366D03*
X0036024Y0087563D03*
X0036024Y0087760D03*
X0036024Y0087996D03*
X0036024Y0088193D03*
X0036024Y0088390D03*
X0036024Y0088587D03*
X0036024Y0088823D03*
X0036024Y0089020D03*
X0036024Y0089217D03*
X0036024Y0089413D03*
X0036024Y0089650D03*
X0036024Y0089846D03*
X0036024Y0090043D03*
X0036024Y0090240D03*
X0036024Y0090476D03*
X0036024Y0090673D03*
X0036024Y0090870D03*
X0036024Y0091067D03*
X0036024Y0091303D03*
X0036024Y0091500D03*
X0036024Y0091697D03*
X0036024Y0091933D03*
X0036024Y0092130D03*
X0036024Y0092327D03*
X0036024Y0092524D03*
X0036024Y0092760D03*
X0036024Y0092957D03*
X0036024Y0093154D03*
X0036024Y0093350D03*
X0036024Y0093587D03*
X0036024Y0093783D03*
X0036024Y0093980D03*
X0036024Y0094177D03*
X0036024Y0094413D03*
X0036024Y0094610D03*
X0036024Y0094807D03*
X0036024Y0095004D03*
X0036024Y0095240D03*
X0036024Y0095437D03*
X0036024Y0095634D03*
X0036024Y0095870D03*
X0036024Y0096067D03*
X0036024Y0096264D03*
X0036024Y0096461D03*
X0036024Y0096697D03*
X0036024Y0096894D03*
X0036024Y0097091D03*
X0036024Y0097287D03*
X0036024Y0097524D03*
X0036024Y0097720D03*
X0036024Y0097917D03*
X0036024Y0098114D03*
X0036024Y0098350D03*
X0036024Y0098547D03*
X0036024Y0098744D03*
X0036024Y0098941D03*
X0036024Y0099177D03*
X0036024Y0099374D03*
X0036024Y0099571D03*
X0056024Y0099571D03*
X0056024Y0099374D03*
X0056024Y0099177D03*
X0056024Y0098941D03*
X0056024Y0098744D03*
X0056024Y0098547D03*
X0056024Y0098350D03*
X0056024Y0098114D03*
X0056024Y0097917D03*
X0056024Y0097720D03*
X0056024Y0097524D03*
X0056024Y0097287D03*
X0056024Y0097091D03*
X0056024Y0096894D03*
X0056024Y0096697D03*
X0056024Y0096461D03*
X0056024Y0096264D03*
X0056024Y0096067D03*
X0056024Y0095870D03*
X0056024Y0095634D03*
X0056024Y0095437D03*
X0056024Y0095240D03*
X0056024Y0095004D03*
X0056024Y0094807D03*
X0056024Y0094610D03*
X0056024Y0094413D03*
X0056024Y0094177D03*
X0056024Y0093980D03*
X0056024Y0093783D03*
X0056024Y0093587D03*
X0056024Y0093350D03*
X0056024Y0093154D03*
X0056024Y0092957D03*
X0056024Y0092760D03*
X0056024Y0092524D03*
X0056024Y0092327D03*
X0056024Y0092130D03*
X0056024Y0091933D03*
X0056024Y0091697D03*
X0056024Y0091500D03*
X0056024Y0091303D03*
X0056024Y0091067D03*
X0056024Y0090870D03*
X0056024Y0090673D03*
X0056024Y0090476D03*
X0056024Y0090240D03*
X0056024Y0090043D03*
X0056024Y0089846D03*
X0056024Y0089650D03*
X0056024Y0089413D03*
X0056024Y0089217D03*
X0056024Y0089020D03*
X0056024Y0088823D03*
X0056024Y0088587D03*
X0056024Y0088390D03*
X0056024Y0088193D03*
X0056024Y0087996D03*
X0056024Y0087760D03*
X0056024Y0087563D03*
X0056024Y0087366D03*
X0056024Y0087130D03*
X0056024Y0086933D03*
X0056024Y0086736D03*
X0056024Y0086539D03*
X0056024Y0086303D03*
X0056024Y0086106D03*
X0056024Y0085909D03*
X0056024Y0085713D03*
X0056024Y0085476D03*
X0056024Y0085280D03*
X0056024Y0085083D03*
X0056024Y0084886D03*
X0056024Y0084650D03*
X0056024Y0084453D03*
X0056024Y0084256D03*
X0056024Y0084059D03*
X0056024Y0083823D03*
X0056024Y0083626D03*
X0056024Y0083429D03*
X0063740Y0096264D03*
X0081575Y0097287D03*
X0082008Y0098114D03*
X0083858Y0095870D03*
X0086142Y0095870D03*
X0088425Y0097287D03*
X0088386Y0088587D03*
X0115524Y0074571D03*
X0115524Y0074374D03*
X0115524Y0074177D03*
X0115524Y0073941D03*
X0115524Y0073744D03*
X0115524Y0073547D03*
X0115524Y0073350D03*
X0115524Y0073114D03*
X0115524Y0072917D03*
X0115524Y0072720D03*
X0115524Y0072524D03*
X0115524Y0072287D03*
X0115524Y0072091D03*
X0115524Y0071894D03*
X0115524Y0071697D03*
X0115524Y0071461D03*
X0115524Y0071264D03*
X0115524Y0071067D03*
X0115524Y0070870D03*
X0115524Y0070634D03*
X0115524Y0070437D03*
X0115524Y0070240D03*
X0115524Y0070004D03*
X0115524Y0069807D03*
X0115524Y0069610D03*
X0115524Y0069413D03*
X0115524Y0069177D03*
X0115524Y0068980D03*
X0115524Y0068783D03*
X0115524Y0068587D03*
X0115524Y0068350D03*
X0115524Y0068154D03*
X0115524Y0067957D03*
X0115524Y0067760D03*
X0115524Y0067524D03*
X0115524Y0067327D03*
X0115524Y0067130D03*
X0115524Y0066933D03*
X0115524Y0066697D03*
X0115524Y0066500D03*
X0115524Y0066303D03*
X0115524Y0066067D03*
X0115524Y0065870D03*
X0115524Y0065673D03*
X0115524Y0065476D03*
X0115524Y0065240D03*
X0115524Y0065043D03*
X0115524Y0064846D03*
X0115524Y0064650D03*
X0115524Y0064413D03*
X0115524Y0064217D03*
X0115524Y0064020D03*
X0115524Y0063823D03*
X0115524Y0063587D03*
X0115524Y0063390D03*
X0115524Y0063193D03*
X0115524Y0062996D03*
X0115524Y0062760D03*
X0115524Y0062563D03*
X0115524Y0062366D03*
X0115524Y0062130D03*
X0115524Y0061933D03*
X0115524Y0061736D03*
X0115524Y0061539D03*
X0115524Y0061303D03*
X0115524Y0061106D03*
X0115524Y0060909D03*
X0115524Y0060713D03*
X0115524Y0060476D03*
X0115524Y0060280D03*
X0115524Y0060083D03*
X0115524Y0059886D03*
X0115524Y0059650D03*
X0115524Y0059453D03*
X0115524Y0059256D03*
X0115524Y0059059D03*
X0115524Y0058823D03*
X0115524Y0058626D03*
X0115524Y0058429D03*
X0120445Y0067524D03*
X0128555Y0065240D03*
X0128634Y0065476D03*
D27*
X0133496Y0065476D03*
X0133496Y0065673D03*
X0133496Y0065870D03*
X0133496Y0066067D03*
X0133496Y0066303D03*
X0133496Y0066500D03*
X0133496Y0066697D03*
X0133496Y0066933D03*
X0133496Y0067130D03*
X0133496Y0067327D03*
X0133496Y0067524D03*
X0133496Y0067760D03*
X0133496Y0067957D03*
X0133496Y0068154D03*
X0133496Y0068350D03*
X0133496Y0068587D03*
X0133496Y0068783D03*
X0133496Y0068980D03*
X0133496Y0069177D03*
X0133496Y0069413D03*
X0133496Y0069610D03*
X0133496Y0069807D03*
X0133496Y0070004D03*
X0133496Y0070240D03*
X0133496Y0070437D03*
X0133496Y0070634D03*
X0133496Y0070870D03*
X0133496Y0071067D03*
X0133496Y0071264D03*
X0133496Y0071461D03*
X0133496Y0071697D03*
X0133496Y0071894D03*
X0133496Y0072091D03*
X0133496Y0072287D03*
X0133496Y0072524D03*
X0133496Y0072720D03*
X0133496Y0072917D03*
X0133496Y0073114D03*
X0133496Y0073350D03*
X0133496Y0073547D03*
X0133496Y0073744D03*
X0133496Y0073941D03*
X0133496Y0074177D03*
X0133496Y0074374D03*
X0133496Y0074571D03*
X0133496Y0065240D03*
X0133496Y0065043D03*
X0133496Y0064846D03*
X0133496Y0064650D03*
X0133496Y0064413D03*
X0133496Y0064217D03*
X0133496Y0064020D03*
X0133496Y0063823D03*
X0133496Y0063587D03*
X0133496Y0063390D03*
X0133496Y0063193D03*
X0133496Y0062996D03*
X0133496Y0062760D03*
X0133496Y0062563D03*
X0133496Y0062366D03*
X0133496Y0062130D03*
X0133496Y0061933D03*
X0133496Y0061736D03*
X0133496Y0061539D03*
X0133496Y0061303D03*
X0133496Y0061106D03*
X0133496Y0060909D03*
X0133496Y0060713D03*
X0133496Y0060476D03*
X0133496Y0060280D03*
X0133496Y0060083D03*
X0133496Y0059886D03*
X0133496Y0059650D03*
X0133496Y0059453D03*
X0133496Y0059256D03*
X0133496Y0059059D03*
X0133496Y0058823D03*
X0133496Y0058626D03*
X0133496Y0058429D03*
X0088563Y0093587D03*
X0088563Y0097091D03*
X0081437Y0097091D03*
X0081437Y0093587D03*
X0073996Y0093587D03*
X0073996Y0093783D03*
X0073996Y0093980D03*
X0073996Y0094177D03*
X0073996Y0094413D03*
X0073996Y0094610D03*
X0073996Y0094807D03*
X0073996Y0095004D03*
X0073996Y0095240D03*
X0073996Y0095437D03*
X0073996Y0095634D03*
X0073996Y0095870D03*
X0073996Y0096067D03*
X0073996Y0096264D03*
X0073996Y0096461D03*
X0073996Y0096697D03*
X0073996Y0096894D03*
X0073996Y0097091D03*
X0073996Y0097287D03*
X0073996Y0097524D03*
X0073996Y0097720D03*
X0073996Y0097917D03*
X0073996Y0098114D03*
X0073996Y0098350D03*
X0073996Y0098547D03*
X0073996Y0098744D03*
X0073996Y0098941D03*
X0073996Y0099177D03*
X0073996Y0099374D03*
X0073996Y0099571D03*
X0073996Y0093350D03*
X0073996Y0093154D03*
X0073996Y0092957D03*
X0073996Y0092760D03*
X0073996Y0092524D03*
X0073996Y0092327D03*
X0073996Y0092130D03*
X0073996Y0091933D03*
X0073996Y0091697D03*
X0073996Y0091500D03*
X0073996Y0091303D03*
X0073996Y0091067D03*
X0073996Y0090870D03*
X0073996Y0090673D03*
X0073996Y0090476D03*
X0073996Y0090240D03*
X0073996Y0090043D03*
X0073996Y0089846D03*
X0073996Y0089650D03*
X0073996Y0089413D03*
X0073996Y0089217D03*
X0073996Y0089020D03*
X0073996Y0088823D03*
X0073996Y0088587D03*
X0073996Y0088390D03*
X0073996Y0088193D03*
X0073996Y0087996D03*
X0073996Y0087760D03*
X0073996Y0087563D03*
X0073996Y0087366D03*
X0073996Y0087130D03*
X0073996Y0086933D03*
X0073996Y0086736D03*
X0073996Y0086539D03*
X0073996Y0086303D03*
X0073996Y0086106D03*
X0073996Y0085909D03*
X0073996Y0085713D03*
X0073996Y0085476D03*
X0073996Y0085280D03*
X0073996Y0085083D03*
X0073996Y0084886D03*
X0073996Y0084650D03*
X0073996Y0084453D03*
X0073996Y0084256D03*
X0073996Y0084059D03*
X0073996Y0083823D03*
X0073996Y0083626D03*
X0073996Y0083429D03*
X0080571Y0084453D03*
X0053996Y0084453D03*
X0053996Y0084650D03*
X0053996Y0084886D03*
X0053996Y0085083D03*
X0053996Y0085280D03*
X0053996Y0085476D03*
X0053996Y0085713D03*
X0053996Y0085909D03*
X0053996Y0086106D03*
X0053996Y0086303D03*
X0053996Y0086539D03*
X0053996Y0086736D03*
X0053996Y0086933D03*
X0053996Y0087130D03*
X0053996Y0087366D03*
X0053996Y0087563D03*
X0053996Y0087760D03*
X0053996Y0087996D03*
X0053996Y0088193D03*
X0053996Y0088390D03*
X0053996Y0088587D03*
X0053996Y0088823D03*
X0053996Y0089020D03*
X0053996Y0089217D03*
X0053996Y0089413D03*
X0053996Y0089650D03*
X0053996Y0089846D03*
X0053996Y0090043D03*
X0053996Y0090240D03*
X0053996Y0090476D03*
X0053996Y0090673D03*
X0053996Y0090870D03*
X0053996Y0091067D03*
X0053996Y0091303D03*
X0053996Y0091500D03*
X0053996Y0091697D03*
X0053996Y0091933D03*
X0053996Y0092130D03*
X0053996Y0092327D03*
X0053996Y0092524D03*
X0053996Y0092760D03*
X0053996Y0092957D03*
X0053996Y0093154D03*
X0053996Y0093350D03*
X0053996Y0093587D03*
X0053996Y0093783D03*
X0053996Y0093980D03*
X0053996Y0094177D03*
X0053996Y0094413D03*
X0053996Y0094610D03*
X0053996Y0094807D03*
X0053996Y0095004D03*
X0053996Y0095240D03*
X0053996Y0095437D03*
X0053996Y0095634D03*
X0053996Y0095870D03*
X0053996Y0096067D03*
X0053996Y0096264D03*
X0053996Y0096461D03*
X0053996Y0096697D03*
X0053996Y0096894D03*
X0053996Y0097091D03*
X0053996Y0097287D03*
X0053996Y0097524D03*
X0053996Y0097720D03*
X0053996Y0097917D03*
X0053996Y0098114D03*
X0053996Y0098350D03*
X0053996Y0098547D03*
X0053996Y0098744D03*
X0053996Y0098941D03*
X0053996Y0099177D03*
X0053996Y0099374D03*
X0053996Y0099571D03*
X0043091Y0096264D03*
X0053996Y0084256D03*
X0053996Y0084059D03*
X0053996Y0083823D03*
X0053996Y0083626D03*
X0053996Y0083429D03*
D28*
X0053976Y0083370D03*
X0056024Y0083370D03*
X0056024Y0083488D03*
X0056024Y0083528D03*
X0056024Y0083567D03*
X0056024Y0083685D03*
X0056024Y0083724D03*
X0056024Y0083764D03*
X0056024Y0083882D03*
X0056024Y0083921D03*
X0056024Y0083961D03*
X0056024Y0084000D03*
X0056024Y0084118D03*
X0056024Y0084157D03*
X0056024Y0084197D03*
X0056024Y0084315D03*
X0056024Y0084354D03*
X0056024Y0084394D03*
X0056024Y0084512D03*
X0056024Y0084551D03*
X0056024Y0084591D03*
X0056024Y0084709D03*
X0056024Y0084748D03*
X0056024Y0084787D03*
X0056024Y0084827D03*
X0056024Y0084945D03*
X0056024Y0084984D03*
X0056024Y0085024D03*
X0056024Y0085142D03*
X0056024Y0085181D03*
X0056024Y0085220D03*
X0056024Y0085339D03*
X0056024Y0085378D03*
X0056024Y0085417D03*
X0056024Y0085535D03*
X0056024Y0085575D03*
X0056024Y0085614D03*
X0056024Y0085654D03*
X0056024Y0085772D03*
X0056024Y0085811D03*
X0056024Y0085850D03*
X0056024Y0085969D03*
X0056024Y0086008D03*
X0056024Y0086047D03*
X0056024Y0086165D03*
X0056024Y0086205D03*
X0056024Y0086244D03*
X0056024Y0086362D03*
X0056024Y0086402D03*
X0056024Y0086441D03*
X0056024Y0086480D03*
X0056024Y0086598D03*
X0056024Y0086638D03*
X0056024Y0086677D03*
X0056024Y0086795D03*
X0056024Y0086835D03*
X0056024Y0086874D03*
X0056024Y0086992D03*
X0056024Y0087031D03*
X0056024Y0087071D03*
X0056024Y0087189D03*
X0056024Y0087228D03*
X0056024Y0087268D03*
X0056024Y0087307D03*
X0056024Y0087425D03*
X0056024Y0087465D03*
X0056024Y0087504D03*
X0056024Y0087622D03*
X0056024Y0087661D03*
X0056024Y0087701D03*
X0056024Y0087819D03*
X0056024Y0087858D03*
X0056024Y0087898D03*
X0056024Y0087937D03*
X0056024Y0088055D03*
X0056024Y0088094D03*
X0056024Y0088134D03*
X0056024Y0088252D03*
X0056024Y0088291D03*
X0056024Y0088331D03*
X0056024Y0088449D03*
X0056024Y0088488D03*
X0056024Y0088528D03*
X0056024Y0088646D03*
X0056024Y0088685D03*
X0056024Y0088724D03*
X0056024Y0088764D03*
X0056024Y0088882D03*
X0056024Y0088921D03*
X0056024Y0088961D03*
X0056024Y0089079D03*
X0056024Y0089118D03*
X0056024Y0089157D03*
X0056024Y0089276D03*
X0056024Y0089315D03*
X0056024Y0089354D03*
X0056024Y0089472D03*
X0056024Y0089512D03*
X0056024Y0089551D03*
X0056024Y0089591D03*
X0056024Y0089709D03*
X0056024Y0089748D03*
X0056024Y0089787D03*
X0056024Y0089906D03*
X0056024Y0089945D03*
X0056024Y0089984D03*
X0056024Y0090102D03*
X0056024Y0090142D03*
X0056024Y0090181D03*
X0056024Y0090299D03*
X0056024Y0090339D03*
X0056024Y0090378D03*
X0056024Y0090417D03*
X0056024Y0090535D03*
X0056024Y0090575D03*
X0056024Y0090614D03*
X0056024Y0090732D03*
X0056024Y0090772D03*
X0056024Y0090811D03*
X0056024Y0090929D03*
X0056024Y0090969D03*
X0056024Y0091008D03*
X0056024Y0091126D03*
X0056024Y0091165D03*
X0056024Y0091205D03*
X0056024Y0091244D03*
X0056024Y0091362D03*
X0056024Y0091402D03*
X0056024Y0091441D03*
X0056024Y0091559D03*
X0056024Y0091598D03*
X0056024Y0091638D03*
X0056024Y0091756D03*
X0056024Y0091795D03*
X0056024Y0091835D03*
X0056024Y0091874D03*
X0056024Y0091992D03*
X0056024Y0092031D03*
X0056024Y0092071D03*
X0056024Y0092189D03*
X0056024Y0092228D03*
X0056024Y0092268D03*
X0056024Y0092386D03*
X0056024Y0092425D03*
X0056024Y0092465D03*
X0056024Y0092583D03*
X0056024Y0092622D03*
X0056024Y0092661D03*
X0056024Y0092701D03*
X0056024Y0092819D03*
X0056024Y0092858D03*
X0056024Y0092898D03*
X0056024Y0093016D03*
X0056024Y0093055D03*
X0056024Y0093094D03*
X0056024Y0093213D03*
X0056024Y0093252D03*
X0056024Y0093291D03*
X0056024Y0093409D03*
X0056024Y0093449D03*
X0056024Y0093488D03*
X0056024Y0093528D03*
X0056024Y0093646D03*
X0056024Y0093685D03*
X0056024Y0093724D03*
X0056024Y0093843D03*
X0056024Y0093882D03*
X0056024Y0093921D03*
X0056024Y0094039D03*
X0056024Y0094079D03*
X0056024Y0094118D03*
X0056024Y0094236D03*
X0056024Y0094276D03*
X0056024Y0094315D03*
X0056024Y0094354D03*
X0056024Y0094472D03*
X0056024Y0094512D03*
X0056024Y0094551D03*
X0056024Y0094669D03*
X0056024Y0094709D03*
X0056024Y0094748D03*
X0056024Y0094866D03*
X0056024Y0094906D03*
X0056024Y0094945D03*
X0056024Y0095063D03*
X0056024Y0095102D03*
X0056024Y0095142D03*
X0056024Y0095181D03*
X0056024Y0095299D03*
X0056024Y0095339D03*
X0056024Y0095378D03*
X0056024Y0095496D03*
X0056024Y0095535D03*
X0056024Y0095575D03*
X0056024Y0095693D03*
X0056024Y0095732D03*
X0056024Y0095772D03*
X0056024Y0095811D03*
X0056024Y0095929D03*
X0056024Y0095969D03*
X0056024Y0096008D03*
X0056024Y0096126D03*
X0056024Y0096165D03*
X0056024Y0096205D03*
X0056024Y0096323D03*
X0056024Y0096362D03*
X0056024Y0096402D03*
X0056024Y0096520D03*
X0056024Y0096559D03*
X0056024Y0096598D03*
X0056024Y0096638D03*
X0056024Y0096756D03*
X0056024Y0096795D03*
X0056024Y0096835D03*
X0056024Y0096953D03*
X0056024Y0096992D03*
X0056024Y0097031D03*
X0056024Y0097150D03*
X0056024Y0097189D03*
X0056024Y0097228D03*
X0056024Y0097346D03*
X0056024Y0097386D03*
X0056024Y0097425D03*
X0056024Y0097465D03*
X0056024Y0097583D03*
X0056024Y0097622D03*
X0056024Y0097661D03*
X0056024Y0097780D03*
X0056024Y0097819D03*
X0056024Y0097858D03*
X0056024Y0097976D03*
X0056024Y0098016D03*
X0056024Y0098055D03*
X0056024Y0098173D03*
X0056024Y0098213D03*
X0056024Y0098252D03*
X0056024Y0098291D03*
X0056024Y0098409D03*
X0056024Y0098449D03*
X0056024Y0098488D03*
X0056024Y0098606D03*
X0056024Y0098646D03*
X0056024Y0098685D03*
X0056024Y0098803D03*
X0056024Y0098843D03*
X0056024Y0098882D03*
X0056024Y0099000D03*
X0056024Y0099039D03*
X0056024Y0099079D03*
X0056024Y0099118D03*
X0056024Y0099236D03*
X0056024Y0099276D03*
X0056024Y0099315D03*
X0056024Y0099433D03*
X0056024Y0099472D03*
X0056024Y0099512D03*
X0073976Y0083370D03*
X0082165Y0092425D03*
X0081575Y0093409D03*
X0081535Y0093488D03*
X0083858Y0094866D03*
X0086142Y0094866D03*
X0086181Y0095811D03*
X0085000Y0093449D03*
X0087992Y0092622D03*
X0088425Y0093409D03*
X0088465Y0093449D03*
X0088465Y0093488D03*
X0088465Y0097228D03*
X0088425Y0097346D03*
X0088386Y0097386D03*
X0087835Y0098252D03*
X0087835Y0098291D03*
X0082008Y0098055D03*
X0081614Y0097386D03*
X0081575Y0097346D03*
X0081535Y0097228D03*
X0115524Y0074512D03*
X0115524Y0074472D03*
X0115524Y0074433D03*
X0115524Y0074315D03*
X0115524Y0074276D03*
X0115524Y0074236D03*
X0115524Y0074118D03*
X0115524Y0074079D03*
X0115524Y0074039D03*
X0115524Y0074000D03*
X0115524Y0073882D03*
X0115524Y0073843D03*
X0115524Y0073803D03*
X0115524Y0073685D03*
X0115524Y0073646D03*
X0115524Y0073606D03*
X0115524Y0073488D03*
X0115524Y0073449D03*
X0115524Y0073409D03*
X0115524Y0073291D03*
X0115524Y0073252D03*
X0115524Y0073213D03*
X0115524Y0073173D03*
X0115524Y0073055D03*
X0115524Y0073016D03*
X0115524Y0072976D03*
X0115524Y0072858D03*
X0115524Y0072819D03*
X0115524Y0072780D03*
X0115524Y0072661D03*
X0115524Y0072622D03*
X0115524Y0072583D03*
X0115524Y0072465D03*
X0115524Y0072425D03*
X0115524Y0072386D03*
X0115524Y0072346D03*
X0115524Y0072228D03*
X0115524Y0072189D03*
X0115524Y0072150D03*
X0115524Y0072031D03*
X0115524Y0071992D03*
X0115524Y0071953D03*
X0115524Y0071835D03*
X0115524Y0071795D03*
X0115524Y0071756D03*
X0115524Y0071638D03*
X0115524Y0071598D03*
X0115524Y0071559D03*
X0115524Y0071520D03*
X0115524Y0071402D03*
X0115524Y0071362D03*
X0115524Y0071323D03*
X0115524Y0071205D03*
X0115524Y0071165D03*
X0115524Y0071126D03*
X0115524Y0071008D03*
X0115524Y0070969D03*
X0115524Y0070929D03*
X0115524Y0070811D03*
X0115524Y0070772D03*
X0115524Y0070732D03*
X0115524Y0070693D03*
X0115524Y0070575D03*
X0115524Y0070535D03*
X0115524Y0070496D03*
X0115524Y0070378D03*
X0115524Y0070339D03*
X0115524Y0070299D03*
X0115524Y0070181D03*
X0115524Y0070142D03*
X0115524Y0070102D03*
X0115524Y0070063D03*
X0115524Y0069945D03*
X0115524Y0069906D03*
X0115524Y0069866D03*
X0115524Y0069748D03*
X0115524Y0069709D03*
X0115524Y0069669D03*
X0115524Y0069551D03*
X0115524Y0069512D03*
X0115524Y0069472D03*
X0115524Y0069354D03*
X0115524Y0069315D03*
X0115524Y0069276D03*
X0115524Y0069236D03*
X0115524Y0069118D03*
X0115524Y0069079D03*
X0115524Y0069039D03*
X0115524Y0068921D03*
X0115524Y0068882D03*
X0115524Y0068843D03*
X0115524Y0068724D03*
X0115524Y0068685D03*
X0115524Y0068646D03*
X0115524Y0068528D03*
X0115524Y0068488D03*
X0115524Y0068449D03*
X0115524Y0068409D03*
X0115524Y0068291D03*
X0115524Y0068252D03*
X0115524Y0068213D03*
X0115524Y0068094D03*
X0115524Y0068055D03*
X0115524Y0068016D03*
X0115524Y0067898D03*
X0115524Y0067858D03*
X0115524Y0067819D03*
X0115524Y0067701D03*
X0115524Y0067661D03*
X0115524Y0067622D03*
X0115524Y0067583D03*
X0115524Y0067465D03*
X0115524Y0067425D03*
X0115524Y0067386D03*
X0115524Y0067268D03*
X0115524Y0067228D03*
X0115524Y0067189D03*
X0115524Y0067071D03*
X0115524Y0067031D03*
X0115524Y0066992D03*
X0115524Y0066874D03*
X0115524Y0066835D03*
X0115524Y0066795D03*
X0115524Y0066756D03*
X0115524Y0066638D03*
X0115524Y0066598D03*
X0115524Y0066559D03*
X0115524Y0066441D03*
X0115524Y0066402D03*
X0115524Y0066362D03*
X0115524Y0066244D03*
X0115524Y0066205D03*
X0115524Y0066165D03*
X0115524Y0066126D03*
X0115524Y0066008D03*
X0115524Y0065969D03*
X0115524Y0065929D03*
X0115524Y0065811D03*
X0115524Y0065772D03*
X0115524Y0065732D03*
X0115524Y0065614D03*
X0115524Y0065575D03*
X0115524Y0065535D03*
X0115524Y0065417D03*
X0115524Y0065378D03*
X0115524Y0065339D03*
X0115524Y0065299D03*
X0115524Y0065181D03*
X0115524Y0065142D03*
X0115524Y0065102D03*
X0115524Y0064984D03*
X0115524Y0064945D03*
X0115524Y0064906D03*
X0115524Y0064787D03*
X0115524Y0064748D03*
X0115524Y0064709D03*
X0115524Y0064591D03*
X0115524Y0064551D03*
X0115524Y0064512D03*
X0115524Y0064472D03*
X0115524Y0064354D03*
X0115524Y0064315D03*
X0115524Y0064276D03*
X0115524Y0064157D03*
X0115524Y0064118D03*
X0115524Y0064079D03*
X0115524Y0063961D03*
X0115524Y0063921D03*
X0115524Y0063882D03*
X0115524Y0063764D03*
X0115524Y0063724D03*
X0115524Y0063685D03*
X0115524Y0063646D03*
X0115524Y0063528D03*
X0115524Y0063488D03*
X0115524Y0063449D03*
X0115524Y0063331D03*
X0115524Y0063291D03*
X0115524Y0063252D03*
X0115524Y0063134D03*
X0115524Y0063094D03*
X0115524Y0063055D03*
X0115524Y0062937D03*
X0115524Y0062898D03*
X0115524Y0062858D03*
X0115524Y0062819D03*
X0115524Y0062701D03*
X0115524Y0062661D03*
X0115524Y0062622D03*
X0115524Y0062504D03*
X0115524Y0062465D03*
X0115524Y0062425D03*
X0115524Y0062307D03*
X0115524Y0062268D03*
X0115524Y0062228D03*
X0115524Y0062189D03*
X0115524Y0062071D03*
X0115524Y0062031D03*
X0115524Y0061992D03*
X0115524Y0061874D03*
X0115524Y0061835D03*
X0115524Y0061795D03*
X0115524Y0061677D03*
X0115524Y0061638D03*
X0115524Y0061598D03*
X0115524Y0061480D03*
X0115524Y0061441D03*
X0115524Y0061402D03*
X0115524Y0061362D03*
X0115524Y0061244D03*
X0115524Y0061205D03*
X0115524Y0061165D03*
X0115524Y0061047D03*
X0115524Y0061008D03*
X0115524Y0060969D03*
X0115524Y0060850D03*
X0115524Y0060811D03*
X0115524Y0060772D03*
X0115524Y0060654D03*
X0115524Y0060614D03*
X0115524Y0060575D03*
X0115524Y0060535D03*
X0115524Y0060417D03*
X0115524Y0060378D03*
X0115524Y0060339D03*
X0115524Y0060220D03*
X0115524Y0060181D03*
X0115524Y0060142D03*
X0115524Y0060024D03*
X0115524Y0059984D03*
X0115524Y0059945D03*
X0115524Y0059827D03*
X0115524Y0059787D03*
X0115524Y0059748D03*
X0115524Y0059709D03*
X0115524Y0059591D03*
X0115524Y0059551D03*
X0115524Y0059512D03*
X0115524Y0059394D03*
X0115524Y0059354D03*
X0115524Y0059315D03*
X0115524Y0059197D03*
X0115524Y0059157D03*
X0115524Y0059118D03*
X0115524Y0059000D03*
X0115524Y0058961D03*
X0115524Y0058921D03*
X0115524Y0058882D03*
X0115524Y0058764D03*
X0115524Y0058724D03*
X0115524Y0058685D03*
X0115524Y0058567D03*
X0115524Y0058528D03*
X0115524Y0058488D03*
X0115524Y0058370D03*
X0128555Y0065181D03*
X0128555Y0065299D03*
X0128634Y0065378D03*
X0128634Y0065417D03*
X0133476Y0058370D03*
X0036024Y0083370D03*
X0036024Y0083488D03*
X0036024Y0083528D03*
X0036024Y0083567D03*
X0036024Y0083685D03*
X0036024Y0083724D03*
X0036024Y0083764D03*
X0036024Y0083882D03*
X0036024Y0083921D03*
X0036024Y0083961D03*
X0036024Y0084000D03*
X0036024Y0084118D03*
X0036024Y0084157D03*
X0036024Y0084197D03*
X0036024Y0084315D03*
X0036024Y0084354D03*
X0036024Y0084394D03*
X0036024Y0084512D03*
X0036024Y0084551D03*
X0036024Y0084591D03*
X0036024Y0084709D03*
X0036024Y0084748D03*
X0036024Y0084787D03*
X0036024Y0084827D03*
X0036024Y0084945D03*
X0036024Y0084984D03*
X0036024Y0085024D03*
X0036024Y0085142D03*
X0036024Y0085181D03*
X0036024Y0085220D03*
X0036024Y0085339D03*
X0036024Y0085378D03*
X0036024Y0085417D03*
X0036024Y0085535D03*
X0036024Y0085575D03*
X0036024Y0085614D03*
X0036024Y0085654D03*
X0036024Y0085772D03*
X0036024Y0085811D03*
X0036024Y0085850D03*
X0036024Y0085969D03*
X0036024Y0086008D03*
X0036024Y0086047D03*
X0036024Y0086165D03*
X0036024Y0086205D03*
X0036024Y0086244D03*
X0036024Y0086362D03*
X0036024Y0086402D03*
X0036024Y0086441D03*
X0036024Y0086480D03*
X0036024Y0086598D03*
X0036024Y0086638D03*
X0036024Y0086677D03*
X0036024Y0086795D03*
X0036024Y0086835D03*
X0036024Y0086874D03*
X0036024Y0086992D03*
X0036024Y0087031D03*
X0036024Y0087071D03*
X0036024Y0087189D03*
X0036024Y0087228D03*
X0036024Y0087268D03*
X0036024Y0087307D03*
X0036024Y0087425D03*
X0036024Y0087465D03*
X0036024Y0087504D03*
X0036024Y0087622D03*
X0036024Y0087661D03*
X0036024Y0087701D03*
X0036024Y0087819D03*
X0036024Y0087858D03*
X0036024Y0087898D03*
X0036024Y0087937D03*
X0036024Y0088055D03*
X0036024Y0088094D03*
X0036024Y0088134D03*
X0036024Y0088252D03*
X0036024Y0088291D03*
X0036024Y0088331D03*
X0036024Y0088449D03*
X0036024Y0088488D03*
X0036024Y0088528D03*
X0036024Y0088646D03*
X0036024Y0088685D03*
X0036024Y0088724D03*
X0036024Y0088764D03*
X0036024Y0088882D03*
X0036024Y0088921D03*
X0036024Y0088961D03*
X0036024Y0089079D03*
X0036024Y0089118D03*
X0036024Y0089157D03*
X0036024Y0089276D03*
X0036024Y0089315D03*
X0036024Y0089354D03*
X0036024Y0089472D03*
X0036024Y0089512D03*
X0036024Y0089551D03*
X0036024Y0089591D03*
X0036024Y0089709D03*
X0036024Y0089748D03*
X0036024Y0089787D03*
X0036024Y0089906D03*
X0036024Y0089945D03*
X0036024Y0089984D03*
X0036024Y0090102D03*
X0036024Y0090142D03*
X0036024Y0090181D03*
X0036024Y0090299D03*
X0036024Y0090339D03*
X0036024Y0090378D03*
X0036024Y0090417D03*
X0036024Y0090535D03*
X0036024Y0090575D03*
X0036024Y0090614D03*
X0036024Y0090732D03*
X0036024Y0090772D03*
X0036024Y0090811D03*
X0036024Y0090929D03*
X0036024Y0090969D03*
X0036024Y0091008D03*
X0036024Y0091126D03*
X0036024Y0091165D03*
X0036024Y0091205D03*
X0036024Y0091244D03*
X0036024Y0091362D03*
X0036024Y0091402D03*
X0036024Y0091441D03*
X0036024Y0091559D03*
X0036024Y0091598D03*
X0036024Y0091638D03*
X0036024Y0091756D03*
X0036024Y0091795D03*
X0036024Y0091835D03*
X0036024Y0091874D03*
X0036024Y0091992D03*
X0036024Y0092031D03*
X0036024Y0092071D03*
X0036024Y0092189D03*
X0036024Y0092228D03*
X0036024Y0092268D03*
X0036024Y0092386D03*
X0036024Y0092425D03*
X0036024Y0092465D03*
X0036024Y0092583D03*
X0036024Y0092622D03*
X0036024Y0092661D03*
X0036024Y0092701D03*
X0036024Y0092819D03*
X0036024Y0092858D03*
X0036024Y0092898D03*
X0036024Y0093016D03*
X0036024Y0093055D03*
X0036024Y0093094D03*
X0036024Y0093213D03*
X0036024Y0093252D03*
X0036024Y0093291D03*
X0036024Y0093409D03*
X0036024Y0093449D03*
X0036024Y0093488D03*
X0036024Y0093528D03*
X0036024Y0093646D03*
X0036024Y0093685D03*
X0036024Y0093724D03*
X0036024Y0093843D03*
X0036024Y0093882D03*
X0036024Y0093921D03*
X0036024Y0094039D03*
X0036024Y0094079D03*
X0036024Y0094118D03*
X0036024Y0094236D03*
X0036024Y0094276D03*
X0036024Y0094315D03*
X0036024Y0094354D03*
X0036024Y0094472D03*
X0036024Y0094512D03*
X0036024Y0094551D03*
X0036024Y0094669D03*
X0036024Y0094709D03*
X0036024Y0094748D03*
X0036024Y0094866D03*
X0036024Y0094906D03*
X0036024Y0094945D03*
X0036024Y0095063D03*
X0036024Y0095102D03*
X0036024Y0095142D03*
X0036024Y0095181D03*
X0036024Y0095299D03*
X0036024Y0095339D03*
X0036024Y0095378D03*
X0036024Y0095496D03*
X0036024Y0095535D03*
X0036024Y0095575D03*
X0036024Y0095693D03*
X0036024Y0095732D03*
X0036024Y0095772D03*
X0036024Y0095811D03*
X0036024Y0095929D03*
X0036024Y0095969D03*
X0036024Y0096008D03*
X0036024Y0096126D03*
X0036024Y0096165D03*
X0036024Y0096205D03*
X0036024Y0096323D03*
X0036024Y0096362D03*
X0036024Y0096402D03*
X0036024Y0096520D03*
X0036024Y0096559D03*
X0036024Y0096598D03*
X0036024Y0096638D03*
X0036024Y0096756D03*
X0036024Y0096795D03*
X0036024Y0096835D03*
X0036024Y0096953D03*
X0036024Y0096992D03*
X0036024Y0097031D03*
X0036024Y0097150D03*
X0036024Y0097189D03*
X0036024Y0097228D03*
X0036024Y0097346D03*
X0036024Y0097386D03*
X0036024Y0097425D03*
X0036024Y0097465D03*
X0036024Y0097583D03*
X0036024Y0097622D03*
X0036024Y0097661D03*
X0036024Y0097780D03*
X0036024Y0097819D03*
X0036024Y0097858D03*
X0036024Y0097976D03*
X0036024Y0098016D03*
X0036024Y0098055D03*
X0036024Y0098173D03*
X0036024Y0098213D03*
X0036024Y0098252D03*
X0036024Y0098291D03*
X0036024Y0098409D03*
X0036024Y0098449D03*
X0036024Y0098488D03*
X0036024Y0098606D03*
X0036024Y0098646D03*
X0036024Y0098685D03*
X0036024Y0098803D03*
X0036024Y0098843D03*
X0036024Y0098882D03*
X0036024Y0099000D03*
X0036024Y0099039D03*
X0036024Y0099079D03*
X0036024Y0099118D03*
X0036024Y0099236D03*
X0036024Y0099276D03*
X0036024Y0099315D03*
X0036024Y0099433D03*
X0036024Y0099472D03*
X0036024Y0099512D03*
D29*
X0053996Y0099512D03*
X0053996Y0099472D03*
X0053996Y0099433D03*
X0053996Y0099315D03*
X0053996Y0099276D03*
X0053996Y0099236D03*
X0053996Y0099118D03*
X0053996Y0099079D03*
X0053996Y0099039D03*
X0053996Y0099000D03*
X0053996Y0098882D03*
X0053996Y0098843D03*
X0053996Y0098803D03*
X0053996Y0098685D03*
X0053996Y0098646D03*
X0053996Y0098606D03*
X0053996Y0098488D03*
X0053996Y0098449D03*
X0053996Y0098409D03*
X0053996Y0098291D03*
X0053996Y0098252D03*
X0053996Y0098213D03*
X0053996Y0098173D03*
X0053996Y0098055D03*
X0053996Y0098016D03*
X0053996Y0097976D03*
X0053996Y0097858D03*
X0053996Y0097819D03*
X0053996Y0097780D03*
X0053996Y0097661D03*
X0053996Y0097622D03*
X0053996Y0097583D03*
X0053996Y0097465D03*
X0053996Y0097425D03*
X0053996Y0097386D03*
X0053996Y0097346D03*
X0053996Y0097228D03*
X0053996Y0097189D03*
X0053996Y0097150D03*
X0053996Y0097031D03*
X0053996Y0096992D03*
X0053996Y0096953D03*
X0053996Y0096835D03*
X0053996Y0096795D03*
X0053996Y0096756D03*
X0053996Y0096638D03*
X0053996Y0096598D03*
X0053996Y0096559D03*
X0053996Y0096520D03*
X0053996Y0096402D03*
X0053996Y0096362D03*
X0053996Y0096323D03*
X0053996Y0096205D03*
X0053996Y0096165D03*
X0053996Y0096126D03*
X0053996Y0096008D03*
X0053996Y0095969D03*
X0053996Y0095929D03*
X0053996Y0095811D03*
X0053996Y0095772D03*
X0053996Y0095732D03*
X0053996Y0095693D03*
X0053996Y0095575D03*
X0053996Y0095535D03*
X0053996Y0095496D03*
X0053996Y0095378D03*
X0053996Y0095339D03*
X0053996Y0095299D03*
X0053996Y0095181D03*
X0053996Y0095142D03*
X0053996Y0095102D03*
X0053996Y0095063D03*
X0053996Y0094945D03*
X0053996Y0094906D03*
X0053996Y0094866D03*
X0053996Y0094748D03*
X0053996Y0094709D03*
X0053996Y0094669D03*
X0053996Y0094551D03*
X0053996Y0094512D03*
X0053996Y0094472D03*
X0053996Y0094354D03*
X0053996Y0094315D03*
X0053996Y0094276D03*
X0053996Y0094236D03*
X0053996Y0094118D03*
X0053996Y0094079D03*
X0053996Y0094039D03*
X0053996Y0093921D03*
X0053996Y0093882D03*
X0053996Y0093843D03*
X0053996Y0093724D03*
X0053996Y0093685D03*
X0053996Y0093646D03*
X0053996Y0093528D03*
X0053996Y0093488D03*
X0053996Y0093449D03*
X0053996Y0093409D03*
X0053996Y0093291D03*
X0053996Y0093252D03*
X0053996Y0093213D03*
X0053996Y0093094D03*
X0053996Y0093055D03*
X0053996Y0093016D03*
X0053996Y0092898D03*
X0053996Y0092858D03*
X0053996Y0092819D03*
X0053996Y0092701D03*
X0053996Y0092661D03*
X0053996Y0092622D03*
X0053996Y0092583D03*
X0053996Y0092465D03*
X0053996Y0092425D03*
X0053996Y0092386D03*
X0053996Y0092268D03*
X0053996Y0092228D03*
X0053996Y0092189D03*
X0053996Y0092071D03*
X0053996Y0092031D03*
X0053996Y0091992D03*
X0053996Y0091874D03*
X0053996Y0091835D03*
X0053996Y0091795D03*
X0053996Y0091756D03*
X0053996Y0091638D03*
X0053996Y0091598D03*
X0053996Y0091559D03*
X0053996Y0091441D03*
X0053996Y0091402D03*
X0053996Y0091362D03*
X0053996Y0091244D03*
X0053996Y0091205D03*
X0053996Y0091165D03*
X0053996Y0091126D03*
X0053996Y0091008D03*
X0053996Y0090969D03*
X0053996Y0090929D03*
X0053996Y0090811D03*
X0053996Y0090772D03*
X0053996Y0090732D03*
X0053996Y0090614D03*
X0053996Y0090575D03*
X0053996Y0090535D03*
X0053996Y0090417D03*
X0053996Y0090378D03*
X0053996Y0090339D03*
X0053996Y0090299D03*
X0053996Y0090181D03*
X0053996Y0090142D03*
X0053996Y0090102D03*
X0053996Y0089984D03*
X0053996Y0089945D03*
X0053996Y0089906D03*
X0053996Y0089787D03*
X0053996Y0089748D03*
X0053996Y0089709D03*
X0053996Y0089591D03*
X0053996Y0089551D03*
X0053996Y0089512D03*
X0053996Y0089472D03*
X0053996Y0089354D03*
X0053996Y0089315D03*
X0053996Y0089276D03*
X0053996Y0089157D03*
X0053996Y0089118D03*
X0053996Y0089079D03*
X0053996Y0088961D03*
X0053996Y0088921D03*
X0053996Y0088882D03*
X0053996Y0088764D03*
X0053996Y0088724D03*
X0053996Y0088685D03*
X0053996Y0088646D03*
X0053996Y0088528D03*
X0053996Y0088488D03*
X0053996Y0088449D03*
X0053996Y0088331D03*
X0053996Y0088291D03*
X0053996Y0088252D03*
X0053996Y0088134D03*
X0053996Y0088094D03*
X0053996Y0088055D03*
X0053996Y0087937D03*
X0053996Y0087898D03*
X0053996Y0087858D03*
X0053996Y0087819D03*
X0053996Y0087701D03*
X0053996Y0087661D03*
X0053996Y0087622D03*
X0053996Y0087504D03*
X0053996Y0087465D03*
X0053996Y0087425D03*
X0053996Y0087307D03*
X0053996Y0087268D03*
X0053996Y0087228D03*
X0053996Y0087189D03*
X0053996Y0087071D03*
X0053996Y0087031D03*
X0053996Y0086992D03*
X0053996Y0086874D03*
X0053996Y0086835D03*
X0053996Y0086795D03*
X0053996Y0086677D03*
X0053996Y0086638D03*
X0053996Y0086598D03*
X0053996Y0086480D03*
X0053996Y0086441D03*
X0053996Y0086402D03*
X0053996Y0086362D03*
X0053996Y0086244D03*
X0053996Y0086205D03*
X0053996Y0086165D03*
X0053996Y0086047D03*
X0053996Y0086008D03*
X0053996Y0085969D03*
X0053996Y0085850D03*
X0053996Y0085811D03*
X0053996Y0085772D03*
X0053996Y0085654D03*
X0053996Y0085614D03*
X0053996Y0085575D03*
X0053996Y0085535D03*
X0053996Y0085417D03*
X0053996Y0085378D03*
X0053996Y0085339D03*
X0053996Y0085220D03*
X0053996Y0085181D03*
X0053996Y0085142D03*
X0053996Y0085024D03*
X0053996Y0084984D03*
X0053996Y0084945D03*
X0053996Y0084827D03*
X0053996Y0084787D03*
X0053996Y0084748D03*
X0053996Y0084709D03*
X0053996Y0084591D03*
X0053996Y0084551D03*
X0053996Y0084512D03*
X0053996Y0084394D03*
X0053996Y0084354D03*
X0053996Y0084315D03*
X0053996Y0084197D03*
X0053996Y0084157D03*
X0053996Y0084118D03*
X0053996Y0084000D03*
X0053996Y0083961D03*
X0053996Y0083921D03*
X0053996Y0083882D03*
X0053996Y0083764D03*
X0053996Y0083724D03*
X0053996Y0083685D03*
X0053996Y0083567D03*
X0053996Y0083528D03*
X0053996Y0083488D03*
X0073996Y0083488D03*
X0073996Y0083528D03*
X0073996Y0083567D03*
X0073996Y0083685D03*
X0073996Y0083724D03*
X0073996Y0083764D03*
X0073996Y0083882D03*
X0073996Y0083921D03*
X0073996Y0083961D03*
X0073996Y0084000D03*
X0073996Y0084118D03*
X0073996Y0084157D03*
X0073996Y0084197D03*
X0073996Y0084315D03*
X0073996Y0084354D03*
X0073996Y0084394D03*
X0073996Y0084512D03*
X0073996Y0084551D03*
X0073996Y0084591D03*
X0073996Y0084709D03*
X0073996Y0084748D03*
X0073996Y0084787D03*
X0073996Y0084827D03*
X0073996Y0084945D03*
X0073996Y0084984D03*
X0073996Y0085024D03*
X0073996Y0085142D03*
X0073996Y0085181D03*
X0073996Y0085220D03*
X0073996Y0085339D03*
X0073996Y0085378D03*
X0073996Y0085417D03*
X0073996Y0085535D03*
X0073996Y0085575D03*
X0073996Y0085614D03*
X0073996Y0085654D03*
X0073996Y0085772D03*
X0073996Y0085811D03*
X0073996Y0085850D03*
X0073996Y0085969D03*
X0073996Y0086008D03*
X0073996Y0086047D03*
X0073996Y0086165D03*
X0073996Y0086205D03*
X0073996Y0086244D03*
X0073996Y0086362D03*
X0073996Y0086402D03*
X0073996Y0086441D03*
X0073996Y0086480D03*
X0073996Y0086598D03*
X0073996Y0086638D03*
X0073996Y0086677D03*
X0073996Y0086795D03*
X0073996Y0086835D03*
X0073996Y0086874D03*
X0073996Y0086992D03*
X0073996Y0087031D03*
X0073996Y0087071D03*
X0073996Y0087189D03*
X0073996Y0087228D03*
X0073996Y0087268D03*
X0073996Y0087307D03*
X0073996Y0087425D03*
X0073996Y0087465D03*
X0073996Y0087504D03*
X0073996Y0087622D03*
X0073996Y0087661D03*
X0073996Y0087701D03*
X0073996Y0087819D03*
X0073996Y0087858D03*
X0073996Y0087898D03*
X0073996Y0087937D03*
X0073996Y0088055D03*
X0073996Y0088094D03*
X0073996Y0088134D03*
X0073996Y0088252D03*
X0073996Y0088291D03*
X0073996Y0088331D03*
X0073996Y0088449D03*
X0073996Y0088488D03*
X0073996Y0088528D03*
X0073996Y0088646D03*
X0073996Y0088685D03*
X0073996Y0088724D03*
X0073996Y0088764D03*
X0073996Y0088882D03*
X0073996Y0088921D03*
X0073996Y0088961D03*
X0073996Y0089079D03*
X0073996Y0089118D03*
X0073996Y0089157D03*
X0073996Y0089276D03*
X0073996Y0089315D03*
X0073996Y0089354D03*
X0073996Y0089472D03*
X0073996Y0089512D03*
X0073996Y0089551D03*
X0073996Y0089591D03*
X0073996Y0089709D03*
X0073996Y0089748D03*
X0073996Y0089787D03*
X0073996Y0089906D03*
X0073996Y0089945D03*
X0073996Y0089984D03*
X0073996Y0090102D03*
X0073996Y0090142D03*
X0073996Y0090181D03*
X0073996Y0090299D03*
X0073996Y0090339D03*
X0073996Y0090378D03*
X0073996Y0090417D03*
X0073996Y0090535D03*
X0073996Y0090575D03*
X0073996Y0090614D03*
X0073996Y0090732D03*
X0073996Y0090772D03*
X0073996Y0090811D03*
X0073996Y0090929D03*
X0073996Y0090969D03*
X0073996Y0091008D03*
X0073996Y0091126D03*
X0073996Y0091165D03*
X0073996Y0091205D03*
X0073996Y0091244D03*
X0073996Y0091362D03*
X0073996Y0091402D03*
X0073996Y0091441D03*
X0073996Y0091559D03*
X0073996Y0091598D03*
X0073996Y0091638D03*
X0073996Y0091756D03*
X0073996Y0091795D03*
X0073996Y0091835D03*
X0073996Y0091874D03*
X0073996Y0091992D03*
X0073996Y0092031D03*
X0073996Y0092071D03*
X0073996Y0092189D03*
X0073996Y0092228D03*
X0073996Y0092268D03*
X0073996Y0092386D03*
X0073996Y0092425D03*
X0073996Y0092465D03*
X0073996Y0092583D03*
X0073996Y0092622D03*
X0073996Y0092661D03*
X0073996Y0092701D03*
X0073996Y0092819D03*
X0073996Y0092858D03*
X0073996Y0092898D03*
X0073996Y0093016D03*
X0073996Y0093055D03*
X0073996Y0093094D03*
X0073996Y0093213D03*
X0073996Y0093252D03*
X0073996Y0093291D03*
X0073996Y0093409D03*
X0073996Y0093449D03*
X0073996Y0093488D03*
X0073996Y0093528D03*
X0073996Y0093646D03*
X0073996Y0093685D03*
X0073996Y0093724D03*
X0073996Y0093843D03*
X0073996Y0093882D03*
X0073996Y0093921D03*
X0073996Y0094039D03*
X0073996Y0094079D03*
X0073996Y0094118D03*
X0073996Y0094236D03*
X0073996Y0094276D03*
X0073996Y0094315D03*
X0073996Y0094354D03*
X0073996Y0094472D03*
X0073996Y0094512D03*
X0073996Y0094551D03*
X0073996Y0094669D03*
X0073996Y0094709D03*
X0073996Y0094748D03*
X0073996Y0094866D03*
X0073996Y0094906D03*
X0073996Y0094945D03*
X0073996Y0095063D03*
X0073996Y0095102D03*
X0073996Y0095142D03*
X0073996Y0095181D03*
X0073996Y0095299D03*
X0073996Y0095339D03*
X0073996Y0095378D03*
X0073996Y0095496D03*
X0073996Y0095535D03*
X0073996Y0095575D03*
X0073996Y0095693D03*
X0073996Y0095732D03*
X0073996Y0095772D03*
X0073996Y0095811D03*
X0073996Y0095929D03*
X0073996Y0095969D03*
X0073996Y0096008D03*
X0073996Y0096126D03*
X0073996Y0096165D03*
X0073996Y0096205D03*
X0073996Y0096323D03*
X0073996Y0096362D03*
X0073996Y0096402D03*
X0073996Y0096520D03*
X0073996Y0096559D03*
X0073996Y0096598D03*
X0073996Y0096638D03*
X0073996Y0096756D03*
X0073996Y0096795D03*
X0073996Y0096835D03*
X0073996Y0096953D03*
X0073996Y0096992D03*
X0073996Y0097031D03*
X0073996Y0097150D03*
X0073996Y0097189D03*
X0073996Y0097228D03*
X0073996Y0097346D03*
X0073996Y0097386D03*
X0073996Y0097425D03*
X0073996Y0097465D03*
X0073996Y0097583D03*
X0073996Y0097622D03*
X0073996Y0097661D03*
X0073996Y0097780D03*
X0073996Y0097819D03*
X0073996Y0097858D03*
X0073996Y0097976D03*
X0073996Y0098016D03*
X0073996Y0098055D03*
X0073996Y0098173D03*
X0073996Y0098213D03*
X0073996Y0098252D03*
X0073996Y0098291D03*
X0073996Y0098409D03*
X0073996Y0098449D03*
X0073996Y0098488D03*
X0073996Y0098606D03*
X0073996Y0098646D03*
X0073996Y0098685D03*
X0073996Y0098803D03*
X0073996Y0098843D03*
X0073996Y0098882D03*
X0073996Y0099000D03*
X0073996Y0099039D03*
X0073996Y0099079D03*
X0073996Y0099118D03*
X0073996Y0099236D03*
X0073996Y0099276D03*
X0073996Y0099315D03*
X0073996Y0099433D03*
X0073996Y0099472D03*
X0073996Y0099512D03*
X0081398Y0096992D03*
X0081516Y0097189D03*
X0082028Y0098173D03*
X0083839Y0095811D03*
X0083799Y0094906D03*
X0086201Y0094906D03*
X0088484Y0093528D03*
X0088563Y0093646D03*
X0088602Y0093685D03*
X0088602Y0093724D03*
X0087972Y0092583D03*
X0088406Y0088685D03*
X0088406Y0088646D03*
X0086752Y0084394D03*
X0082185Y0092386D03*
X0081555Y0093449D03*
X0081516Y0093528D03*
X0081437Y0093646D03*
X0081398Y0093685D03*
X0081398Y0093724D03*
X0088484Y0097189D03*
X0088602Y0096992D03*
X0120465Y0067465D03*
X0133496Y0067465D03*
X0133496Y0067425D03*
X0133496Y0067386D03*
X0133496Y0067268D03*
X0133496Y0067228D03*
X0133496Y0067189D03*
X0133496Y0067071D03*
X0133496Y0067031D03*
X0133496Y0066992D03*
X0133496Y0066874D03*
X0133496Y0066835D03*
X0133496Y0066795D03*
X0133496Y0066756D03*
X0133496Y0066638D03*
X0133496Y0066598D03*
X0133496Y0066559D03*
X0133496Y0066441D03*
X0133496Y0066402D03*
X0133496Y0066362D03*
X0133496Y0066244D03*
X0133496Y0066205D03*
X0133496Y0066165D03*
X0133496Y0066126D03*
X0133496Y0066008D03*
X0133496Y0065969D03*
X0133496Y0065929D03*
X0133496Y0065811D03*
X0133496Y0065772D03*
X0133496Y0065732D03*
X0133496Y0065614D03*
X0133496Y0065575D03*
X0133496Y0065535D03*
X0133496Y0065417D03*
X0133496Y0065378D03*
X0133496Y0065339D03*
X0133496Y0065299D03*
X0133496Y0065181D03*
X0133496Y0065142D03*
X0133496Y0065102D03*
X0133496Y0064984D03*
X0133496Y0064945D03*
X0133496Y0064906D03*
X0133496Y0064787D03*
X0133496Y0064748D03*
X0133496Y0064709D03*
X0133496Y0064591D03*
X0133496Y0064551D03*
X0133496Y0064512D03*
X0133496Y0064472D03*
X0133496Y0064354D03*
X0133496Y0064315D03*
X0133496Y0064276D03*
X0133496Y0064157D03*
X0133496Y0064118D03*
X0133496Y0064079D03*
X0133496Y0063961D03*
X0133496Y0063921D03*
X0133496Y0063882D03*
X0133496Y0063764D03*
X0133496Y0063724D03*
X0133496Y0063685D03*
X0133496Y0063646D03*
X0133496Y0063528D03*
X0133496Y0063488D03*
X0133496Y0063449D03*
X0133496Y0063331D03*
X0133496Y0063291D03*
X0133496Y0063252D03*
X0133496Y0063134D03*
X0133496Y0063094D03*
X0133496Y0063055D03*
X0133496Y0062937D03*
X0133496Y0062898D03*
X0133496Y0062858D03*
X0133496Y0062819D03*
X0133496Y0062701D03*
X0133496Y0062661D03*
X0133496Y0062622D03*
X0133496Y0062504D03*
X0133496Y0062465D03*
X0133496Y0062425D03*
X0133496Y0062307D03*
X0133496Y0062268D03*
X0133496Y0062228D03*
X0133496Y0062189D03*
X0133496Y0062071D03*
X0133496Y0062031D03*
X0133496Y0061992D03*
X0133496Y0061874D03*
X0133496Y0061835D03*
X0133496Y0061795D03*
X0133496Y0061677D03*
X0133496Y0061638D03*
X0133496Y0061598D03*
X0133496Y0061480D03*
X0133496Y0061441D03*
X0133496Y0061402D03*
X0133496Y0061362D03*
X0133496Y0061244D03*
X0133496Y0061205D03*
X0133496Y0061165D03*
X0133496Y0061047D03*
X0133496Y0061008D03*
X0133496Y0060969D03*
X0133496Y0060850D03*
X0133496Y0060811D03*
X0133496Y0060772D03*
X0133496Y0060654D03*
X0133496Y0060614D03*
X0133496Y0060575D03*
X0133496Y0060535D03*
X0133496Y0060417D03*
X0133496Y0060378D03*
X0133496Y0060339D03*
X0133496Y0060220D03*
X0133496Y0060181D03*
X0133496Y0060142D03*
X0133496Y0060024D03*
X0133496Y0059984D03*
X0133496Y0059945D03*
X0133496Y0059827D03*
X0133496Y0059787D03*
X0133496Y0059748D03*
X0133496Y0059709D03*
X0133496Y0059591D03*
X0133496Y0059551D03*
X0133496Y0059512D03*
X0133496Y0059394D03*
X0133496Y0059354D03*
X0133496Y0059315D03*
X0133496Y0059197D03*
X0133496Y0059157D03*
X0133496Y0059118D03*
X0133496Y0059000D03*
X0133496Y0058961D03*
X0133496Y0058921D03*
X0133496Y0058882D03*
X0133496Y0058764D03*
X0133496Y0058724D03*
X0133496Y0058685D03*
X0133496Y0058567D03*
X0133496Y0058528D03*
X0133496Y0058488D03*
X0133496Y0067583D03*
X0133496Y0067622D03*
X0133496Y0067661D03*
X0133496Y0067701D03*
X0133496Y0067819D03*
X0133496Y0067858D03*
X0133496Y0067898D03*
X0133496Y0068016D03*
X0133496Y0068055D03*
X0133496Y0068094D03*
X0133496Y0068213D03*
X0133496Y0068252D03*
X0133496Y0068291D03*
X0133496Y0068409D03*
X0133496Y0068449D03*
X0133496Y0068488D03*
X0133496Y0068528D03*
X0133496Y0068646D03*
X0133496Y0068685D03*
X0133496Y0068724D03*
X0133496Y0068843D03*
X0133496Y0068882D03*
X0133496Y0068921D03*
X0133496Y0069039D03*
X0133496Y0069079D03*
X0133496Y0069118D03*
X0133496Y0069236D03*
X0133496Y0069276D03*
X0133496Y0069315D03*
X0133496Y0069354D03*
X0133496Y0069472D03*
X0133496Y0069512D03*
X0133496Y0069551D03*
X0133496Y0069669D03*
X0133496Y0069709D03*
X0133496Y0069748D03*
X0133496Y0069866D03*
X0133496Y0069906D03*
X0133496Y0069945D03*
X0133496Y0070063D03*
X0133496Y0070102D03*
X0133496Y0070142D03*
X0133496Y0070181D03*
X0133496Y0070299D03*
X0133496Y0070339D03*
X0133496Y0070378D03*
X0133496Y0070496D03*
X0133496Y0070535D03*
X0133496Y0070575D03*
X0133496Y0070693D03*
X0133496Y0070732D03*
X0133496Y0070772D03*
X0133496Y0070811D03*
X0133496Y0070929D03*
X0133496Y0070969D03*
X0133496Y0071008D03*
X0133496Y0071126D03*
X0133496Y0071165D03*
X0133496Y0071205D03*
X0133496Y0071323D03*
X0133496Y0071362D03*
X0133496Y0071402D03*
X0133496Y0071520D03*
X0133496Y0071559D03*
X0133496Y0071598D03*
X0133496Y0071638D03*
X0133496Y0071756D03*
X0133496Y0071795D03*
X0133496Y0071835D03*
X0133496Y0071953D03*
X0133496Y0071992D03*
X0133496Y0072031D03*
X0133496Y0072150D03*
X0133496Y0072189D03*
X0133496Y0072228D03*
X0133496Y0072346D03*
X0133496Y0072386D03*
X0133496Y0072425D03*
X0133496Y0072465D03*
X0133496Y0072583D03*
X0133496Y0072622D03*
X0133496Y0072661D03*
X0133496Y0072780D03*
X0133496Y0072819D03*
X0133496Y0072858D03*
X0133496Y0072976D03*
X0133496Y0073016D03*
X0133496Y0073055D03*
X0133496Y0073173D03*
X0133496Y0073213D03*
X0133496Y0073252D03*
X0133496Y0073291D03*
X0133496Y0073409D03*
X0133496Y0073449D03*
X0133496Y0073488D03*
X0133496Y0073606D03*
X0133496Y0073646D03*
X0133496Y0073685D03*
X0133496Y0073803D03*
X0133496Y0073843D03*
X0133496Y0073882D03*
X0133496Y0074000D03*
X0133496Y0074039D03*
X0133496Y0074079D03*
X0133496Y0074118D03*
X0133496Y0074236D03*
X0133496Y0074276D03*
X0133496Y0074315D03*
X0133496Y0074433D03*
X0133496Y0074472D03*
X0133496Y0074512D03*
D30*
X0129028Y0070535D03*
X0124539Y0071559D03*
X0087756Y0098646D03*
X0082244Y0092031D03*
X0080354Y0086480D03*
X0070315Y0087031D03*
X0063701Y0096323D03*
D31*
X0060020Y0092819D03*
X0039587Y0093213D03*
X0039429Y0092898D03*
X0039429Y0090102D03*
X0039587Y0089787D03*
X0081791Y0093094D03*
X0081870Y0093016D03*
X0081909Y0092898D03*
X0081988Y0092819D03*
X0081791Y0097622D03*
X0088091Y0097780D03*
X0088209Y0097622D03*
X0120819Y0068488D03*
X0124520Y0071520D03*
X0128220Y0064472D03*
X0128181Y0064354D03*
D32*
X0124559Y0061539D03*
X0124520Y0071461D03*
X0040177Y0093980D03*
D33*
X0040650Y0094354D03*
X0040650Y0088646D03*
X0050413Y0091402D03*
X0050413Y0091598D03*
X0061240Y0094354D03*
X0061240Y0088646D03*
X0124520Y0071402D03*
X0128260Y0069039D03*
D34*
X0128142Y0069236D03*
X0128142Y0068724D03*
X0124520Y0071362D03*
X0120976Y0064276D03*
X0063720Y0086874D03*
X0064390Y0091244D03*
X0064390Y0091756D03*
X0061437Y0094472D03*
X0050295Y0091756D03*
X0050295Y0091244D03*
X0043130Y0086874D03*
X0043130Y0096126D03*
D35*
X0049980Y0092031D03*
X0049980Y0090969D03*
X0069272Y0088252D03*
X0069272Y0094748D03*
X0121173Y0064591D03*
X0124520Y0071323D03*
X0127945Y0069472D03*
D36*
X0124520Y0071264D03*
X0065177Y0090673D03*
X0065177Y0092327D03*
X0048091Y0093154D03*
X0047736Y0093350D03*
X0048091Y0089846D03*
X0047028Y0089217D03*
X0046673Y0089020D03*
D37*
X0045610Y0088488D03*
X0045571Y0094512D03*
X0124520Y0071205D03*
D38*
X0124520Y0071165D03*
X0127630Y0069748D03*
X0121488Y0063291D03*
X0045413Y0088449D03*
D39*
X0043130Y0087189D03*
X0043130Y0095811D03*
X0063720Y0095811D03*
X0063720Y0087189D03*
X0124520Y0071126D03*
X0124559Y0061874D03*
D40*
X0129224Y0071126D03*
X0087244Y0086047D03*
X0079528Y0089906D03*
X0079094Y0090339D03*
D41*
X0124520Y0071067D03*
D42*
X0129244Y0071067D03*
X0087894Y0089020D03*
X0087579Y0087996D03*
X0086358Y0087996D03*
X0085965Y0085713D03*
X0085925Y0085476D03*
X0085925Y0085280D03*
X0085925Y0085083D03*
X0085965Y0084886D03*
X0084390Y0084886D03*
X0084390Y0085083D03*
X0084390Y0085280D03*
X0084390Y0085476D03*
X0084390Y0085713D03*
X0084390Y0085909D03*
X0084390Y0084650D03*
X0084390Y0084453D03*
X0084390Y0084256D03*
X0084390Y0084059D03*
X0081358Y0084886D03*
X0081358Y0085083D03*
X0081398Y0085280D03*
X0081358Y0085713D03*
X0082185Y0088587D03*
X0082224Y0089650D03*
D43*
X0067677Y0088882D03*
X0067677Y0094118D03*
X0063740Y0095732D03*
X0124539Y0071008D03*
X0124539Y0061992D03*
D44*
X0119894Y0061992D03*
X0129224Y0071008D03*
X0086102Y0084551D03*
X0086181Y0086047D03*
X0086299Y0088094D03*
X0086299Y0088134D03*
X0085630Y0089118D03*
X0083504Y0088252D03*
X0082362Y0088252D03*
X0082323Y0088291D03*
X0082323Y0089787D03*
X0079606Y0088724D03*
X0078583Y0089472D03*
X0078622Y0089906D03*
X0081142Y0086047D03*
X0081220Y0084591D03*
X0081142Y0084551D03*
X0085000Y0097425D03*
X0082126Y0098803D03*
D45*
X0124520Y0070969D03*
D46*
X0129205Y0070969D03*
X0119874Y0062031D03*
X0088406Y0090102D03*
X0086240Y0088331D03*
X0082933Y0090299D03*
D47*
X0067697Y0088764D03*
X0067697Y0094236D03*
X0124520Y0070929D03*
D48*
X0129205Y0070929D03*
X0088406Y0089945D03*
X0087854Y0091992D03*
X0085098Y0089787D03*
X0085098Y0089748D03*
X0086201Y0088449D03*
X0082972Y0087858D03*
X0078720Y0089354D03*
X0070335Y0086874D03*
D49*
X0124520Y0070870D03*
D50*
X0129185Y0070870D03*
X0119894Y0062130D03*
X0085118Y0089650D03*
D51*
X0067657Y0088685D03*
X0063720Y0087465D03*
X0124559Y0070811D03*
X0124559Y0062189D03*
D52*
X0129165Y0070811D03*
X0088406Y0089787D03*
X0086161Y0088528D03*
X0085138Y0089591D03*
D53*
X0124539Y0070772D03*
X0124539Y0062228D03*
D54*
X0129165Y0070772D03*
X0086713Y0084118D03*
X0085177Y0089512D03*
X0085177Y0089551D03*
X0087736Y0098803D03*
D55*
X0124539Y0070732D03*
X0124539Y0062268D03*
D56*
X0129126Y0070732D03*
X0086713Y0086441D03*
X0086083Y0088764D03*
X0085217Y0089354D03*
D57*
X0124559Y0070693D03*
X0124559Y0062307D03*
D58*
X0129106Y0070693D03*
X0087874Y0092071D03*
X0085000Y0097386D03*
X0082126Y0098606D03*
X0079016Y0089157D03*
X0079173Y0089079D03*
X0079016Y0087898D03*
X0070354Y0096008D03*
D59*
X0124539Y0070634D03*
X0124539Y0062366D03*
D60*
X0120031Y0062366D03*
X0129087Y0070634D03*
D61*
X0124539Y0070575D03*
X0124539Y0062425D03*
X0063740Y0087701D03*
X0043150Y0087701D03*
X0043150Y0095299D03*
D62*
X0070315Y0086992D03*
X0082244Y0091992D03*
X0087756Y0098685D03*
X0086732Y0084157D03*
X0129067Y0070575D03*
D63*
X0124559Y0070535D03*
X0124559Y0062465D03*
X0067579Y0094472D03*
D64*
X0063740Y0095142D03*
X0063740Y0087858D03*
X0124539Y0070496D03*
X0124539Y0062504D03*
D65*
X0124559Y0061441D03*
X0129008Y0070496D03*
X0087894Y0092189D03*
X0082224Y0092071D03*
X0080374Y0084157D03*
X0086752Y0084197D03*
X0043130Y0096323D03*
D66*
X0124539Y0070437D03*
X0124539Y0062563D03*
D67*
X0120130Y0062563D03*
X0128988Y0070437D03*
D68*
X0124579Y0070378D03*
X0063701Y0087937D03*
X0063701Y0095063D03*
D69*
X0070295Y0095929D03*
X0070295Y0087071D03*
X0063720Y0086677D03*
X0079154Y0090142D03*
X0080413Y0086441D03*
X0087894Y0092268D03*
X0087736Y0098606D03*
X0082106Y0098449D03*
X0120150Y0062622D03*
X0128969Y0070378D03*
X0043130Y0086677D03*
D70*
X0043209Y0087898D03*
X0043209Y0095102D03*
X0124559Y0070339D03*
X0124559Y0062661D03*
D71*
X0120189Y0062701D03*
X0128929Y0070339D03*
X0082933Y0088055D03*
X0080453Y0086402D03*
X0079035Y0089945D03*
X0082106Y0098409D03*
D72*
X0063740Y0094945D03*
X0063740Y0088055D03*
X0124539Y0070299D03*
D73*
X0128909Y0070299D03*
X0087913Y0092386D03*
X0088937Y0094866D03*
X0088937Y0094906D03*
X0088937Y0094945D03*
X0088937Y0095063D03*
X0088937Y0095693D03*
X0088937Y0095732D03*
X0088937Y0095772D03*
X0088937Y0095811D03*
X0088898Y0096126D03*
X0085000Y0093409D03*
X0081063Y0094866D03*
X0081063Y0094906D03*
X0081063Y0094945D03*
X0081063Y0095063D03*
X0081063Y0095102D03*
X0081063Y0095693D03*
X0081063Y0095732D03*
X0081063Y0095772D03*
X0081063Y0095811D03*
X0081102Y0096126D03*
X0080472Y0086362D03*
D74*
X0043228Y0087996D03*
X0043228Y0095004D03*
X0124579Y0070240D03*
D75*
X0128890Y0070240D03*
X0088957Y0095240D03*
X0088957Y0095437D03*
X0088917Y0096067D03*
X0086280Y0095634D03*
X0083720Y0095634D03*
X0081083Y0096067D03*
X0081043Y0095437D03*
X0081043Y0095240D03*
D76*
X0123772Y0062858D03*
X0123772Y0062819D03*
X0125346Y0070181D03*
D77*
X0125307Y0070142D03*
X0123811Y0062937D03*
D78*
X0125287Y0070102D03*
D79*
X0125268Y0070063D03*
D80*
X0125248Y0070004D03*
D81*
X0125228Y0069945D03*
X0125228Y0069906D03*
X0123890Y0063094D03*
D82*
X0127748Y0067386D03*
X0128024Y0068488D03*
X0128024Y0069354D03*
X0122354Y0069866D03*
X0069508Y0088055D03*
X0069469Y0088094D03*
X0069469Y0094906D03*
X0061555Y0088488D03*
X0050098Y0091874D03*
X0040965Y0088488D03*
D83*
X0121705Y0063134D03*
X0127413Y0069866D03*
D84*
X0122256Y0069807D03*
X0085000Y0093980D03*
X0063740Y0096067D03*
D85*
X0127472Y0069807D03*
D86*
X0128201Y0069079D03*
X0128201Y0068882D03*
X0127020Y0063252D03*
X0120917Y0063882D03*
X0120917Y0063921D03*
X0120917Y0064157D03*
X0122098Y0069748D03*
X0069724Y0087858D03*
X0064291Y0091362D03*
X0064291Y0091638D03*
X0069724Y0095142D03*
X0050354Y0091638D03*
X0050354Y0091362D03*
D87*
X0069764Y0087819D03*
X0069764Y0095181D03*
X0085000Y0093843D03*
X0120878Y0063961D03*
X0124579Y0061598D03*
X0128240Y0068921D03*
X0122020Y0069709D03*
D88*
X0127669Y0069709D03*
X0067657Y0089118D03*
X0063720Y0087071D03*
X0067657Y0093882D03*
D89*
X0061122Y0094315D03*
X0061083Y0094276D03*
X0061083Y0088724D03*
X0061122Y0088685D03*
X0069823Y0087701D03*
X0050453Y0091441D03*
X0050453Y0091559D03*
X0121961Y0069669D03*
D90*
X0121370Y0065339D03*
X0121370Y0065142D03*
X0121370Y0065102D03*
X0127748Y0067819D03*
X0127748Y0067858D03*
X0127748Y0069669D03*
X0067618Y0089157D03*
X0067618Y0093843D03*
D91*
X0121862Y0069610D03*
X0127217Y0063390D03*
D92*
X0121331Y0063390D03*
X0121331Y0065043D03*
X0127787Y0069610D03*
X0067618Y0089217D03*
X0067618Y0093783D03*
D93*
X0063740Y0096165D03*
X0063740Y0086835D03*
X0043150Y0086835D03*
X0085000Y0093685D03*
X0121783Y0069551D03*
D94*
X0121272Y0064787D03*
X0127846Y0069551D03*
X0085000Y0094315D03*
X0085000Y0096362D03*
X0085000Y0096402D03*
X0067598Y0093724D03*
X0067165Y0093488D03*
X0066772Y0093252D03*
X0066339Y0093016D03*
X0065748Y0092661D03*
X0065079Y0092268D03*
X0065079Y0090732D03*
X0066339Y0089984D03*
X0066772Y0089748D03*
X0067165Y0089512D03*
X0067598Y0089276D03*
X0061772Y0094551D03*
X0049449Y0092386D03*
X0049016Y0092622D03*
X0048858Y0092701D03*
X0048622Y0092858D03*
X0048031Y0093213D03*
X0047598Y0093449D03*
X0046772Y0093921D03*
X0048858Y0090299D03*
X0048622Y0090142D03*
X0048031Y0089787D03*
X0047598Y0089551D03*
X0046772Y0089079D03*
X0043150Y0086992D03*
X0041142Y0094551D03*
D95*
X0043130Y0096165D03*
X0061004Y0094236D03*
X0061004Y0088764D03*
X0069902Y0087661D03*
X0069902Y0095339D03*
X0121724Y0069512D03*
X0127315Y0063449D03*
D96*
X0127768Y0067465D03*
X0127886Y0068252D03*
X0127886Y0069512D03*
X0121390Y0065535D03*
X0121232Y0063488D03*
X0085000Y0094236D03*
X0085000Y0094276D03*
X0085000Y0096520D03*
X0067520Y0093685D03*
X0067441Y0093646D03*
X0067283Y0093528D03*
X0067008Y0093409D03*
X0066850Y0093291D03*
X0066496Y0093094D03*
X0066063Y0092858D03*
X0066024Y0092819D03*
X0065669Y0092622D03*
X0065591Y0092583D03*
X0065236Y0092386D03*
X0065000Y0092228D03*
X0065000Y0090772D03*
X0065236Y0090614D03*
X0065354Y0090575D03*
X0065669Y0090378D03*
X0066024Y0090181D03*
X0066063Y0090142D03*
X0066181Y0090102D03*
X0066496Y0089906D03*
X0067008Y0089591D03*
X0067441Y0089354D03*
X0067520Y0089315D03*
X0063740Y0086992D03*
X0061732Y0088449D03*
X0063740Y0096008D03*
X0049764Y0092189D03*
X0049724Y0092228D03*
X0049606Y0092268D03*
X0049134Y0092583D03*
X0048701Y0092819D03*
X0048346Y0093016D03*
X0048268Y0093055D03*
X0047913Y0093252D03*
X0047874Y0093291D03*
X0047520Y0093488D03*
X0047441Y0093528D03*
X0047087Y0093724D03*
X0046929Y0093843D03*
X0046614Y0094039D03*
X0046496Y0094079D03*
X0046260Y0094236D03*
X0046181Y0094276D03*
X0049764Y0090811D03*
X0049724Y0090772D03*
X0049606Y0090732D03*
X0049488Y0090614D03*
X0049134Y0090417D03*
X0048701Y0090181D03*
X0048268Y0089945D03*
X0047874Y0089709D03*
X0047441Y0089472D03*
X0046929Y0089157D03*
X0046614Y0088961D03*
X0046496Y0088921D03*
X0046260Y0088764D03*
X0046181Y0088724D03*
X0041102Y0088449D03*
D97*
X0060906Y0094118D03*
X0069921Y0095378D03*
X0069921Y0087622D03*
X0121665Y0069472D03*
D98*
X0121606Y0069413D03*
X0127512Y0063587D03*
X0069980Y0087563D03*
X0069980Y0095437D03*
X0060768Y0093980D03*
X0060728Y0089020D03*
X0040138Y0089020D03*
D99*
X0064626Y0091933D03*
X0069390Y0094807D03*
X0069390Y0088193D03*
X0121134Y0063587D03*
X0127984Y0069413D03*
D100*
X0121528Y0069354D03*
X0121488Y0069315D03*
X0060846Y0088921D03*
X0060768Y0088961D03*
X0040098Y0089079D03*
D101*
X0064469Y0091205D03*
X0064469Y0091795D03*
X0069547Y0094945D03*
X0121370Y0065614D03*
X0126764Y0063134D03*
X0128063Y0069315D03*
D102*
X0127650Y0063724D03*
X0127610Y0063685D03*
X0121429Y0069276D03*
X0121390Y0069236D03*
X0070039Y0087465D03*
X0060669Y0089118D03*
X0060669Y0093882D03*
X0063740Y0096205D03*
X0043150Y0096205D03*
X0040039Y0093882D03*
X0040039Y0089118D03*
D103*
X0050197Y0091165D03*
X0050236Y0091205D03*
X0050236Y0091795D03*
X0050197Y0091835D03*
X0085000Y0096756D03*
X0121035Y0063724D03*
X0128083Y0068646D03*
X0128083Y0069276D03*
D104*
X0121350Y0069177D03*
X0085000Y0093587D03*
X0060591Y0093783D03*
D105*
X0050315Y0091697D03*
X0050315Y0091303D03*
X0120957Y0064217D03*
X0128161Y0068783D03*
X0128161Y0069177D03*
D106*
X0127827Y0063921D03*
X0121291Y0069118D03*
X0121252Y0069079D03*
X0070098Y0087425D03*
X0070098Y0095575D03*
X0060531Y0093724D03*
X0060453Y0093646D03*
X0060453Y0089354D03*
X0060531Y0089276D03*
X0039902Y0089315D03*
X0039902Y0093685D03*
D107*
X0128181Y0069118D03*
X0128181Y0068843D03*
D108*
X0121232Y0069039D03*
X0085000Y0093528D03*
X0085000Y0097189D03*
X0039882Y0093646D03*
X0039764Y0093528D03*
X0039764Y0089472D03*
X0039882Y0089354D03*
D109*
X0039823Y0089413D03*
X0039823Y0093587D03*
X0121173Y0068980D03*
X0127748Y0063823D03*
D110*
X0128260Y0068980D03*
D111*
X0127906Y0063961D03*
X0121134Y0068921D03*
X0121094Y0068882D03*
X0060374Y0089472D03*
X0060335Y0089512D03*
X0060295Y0089591D03*
X0060295Y0093409D03*
X0060335Y0093449D03*
X0060335Y0093488D03*
X0060374Y0093528D03*
X0039744Y0093488D03*
X0039744Y0089512D03*
D112*
X0039724Y0089551D03*
X0039685Y0089591D03*
X0039646Y0089709D03*
X0039646Y0093291D03*
X0039685Y0093409D03*
X0039724Y0093449D03*
X0060197Y0093252D03*
X0060315Y0089551D03*
X0121075Y0068843D03*
X0124579Y0061480D03*
X0127965Y0064079D03*
X0127965Y0064118D03*
D113*
X0121035Y0068783D03*
X0060276Y0089650D03*
X0060276Y0093350D03*
X0039685Y0093350D03*
X0039685Y0089650D03*
D114*
X0039606Y0089748D03*
X0039528Y0089906D03*
X0039488Y0089984D03*
X0039488Y0093016D03*
X0039528Y0093094D03*
X0039606Y0093252D03*
X0060118Y0093094D03*
X0060118Y0093055D03*
X0060236Y0093291D03*
X0060118Y0089945D03*
X0060118Y0089906D03*
X0060236Y0089709D03*
X0070157Y0087307D03*
X0070157Y0095693D03*
X0081969Y0092858D03*
X0088031Y0097858D03*
X0087992Y0097976D03*
X0120957Y0068685D03*
X0120957Y0068646D03*
X0120996Y0068724D03*
X0120878Y0068528D03*
X0128122Y0064315D03*
X0128122Y0064276D03*
X0128043Y0064157D03*
D115*
X0128102Y0068685D03*
X0121016Y0064354D03*
X0069626Y0087937D03*
X0069626Y0095063D03*
D116*
X0039547Y0093154D03*
X0039547Y0089846D03*
X0120898Y0068587D03*
D117*
X0128063Y0068587D03*
X0069587Y0087996D03*
X0063720Y0086933D03*
X0069587Y0095004D03*
X0043130Y0096067D03*
X0043130Y0086933D03*
D118*
X0064488Y0091165D03*
X0064567Y0091126D03*
X0064488Y0091835D03*
X0064567Y0091874D03*
X0085000Y0094039D03*
X0121075Y0064472D03*
X0121075Y0063685D03*
X0128043Y0068528D03*
D119*
X0128280Y0064551D03*
X0128240Y0064512D03*
X0120720Y0068252D03*
X0120799Y0068409D03*
X0120799Y0068449D03*
X0088110Y0092898D03*
X0088150Y0093016D03*
X0085000Y0093488D03*
X0083937Y0095929D03*
X0085000Y0097228D03*
X0086063Y0095929D03*
X0088150Y0097661D03*
X0088071Y0097819D03*
X0087953Y0098016D03*
X0082047Y0092701D03*
X0082047Y0092661D03*
X0081850Y0093055D03*
X0081890Y0097780D03*
X0060039Y0092898D03*
X0060039Y0092858D03*
X0059961Y0092661D03*
X0059961Y0092622D03*
X0059961Y0090378D03*
X0059961Y0090339D03*
X0060000Y0090181D03*
X0060039Y0090142D03*
X0060039Y0090102D03*
X0039409Y0090142D03*
X0039409Y0090181D03*
X0039409Y0092819D03*
X0039409Y0092858D03*
D120*
X0069429Y0094866D03*
X0069429Y0088134D03*
X0127984Y0068449D03*
D121*
X0127965Y0068409D03*
X0124579Y0061677D03*
X0085000Y0094079D03*
X0085000Y0096598D03*
X0064724Y0092031D03*
X0064685Y0091992D03*
X0064685Y0091008D03*
X0064724Y0090969D03*
X0050039Y0091008D03*
X0050039Y0091992D03*
D122*
X0060000Y0092760D03*
X0060000Y0090240D03*
X0039409Y0090240D03*
X0039409Y0092760D03*
X0081890Y0092957D03*
X0081850Y0097720D03*
X0087913Y0098114D03*
X0088386Y0088390D03*
X0120760Y0068350D03*
X0128201Y0064413D03*
D123*
X0127945Y0068350D03*
X0121173Y0064650D03*
D124*
X0120583Y0067898D03*
X0120622Y0068016D03*
X0120622Y0068055D03*
X0120701Y0068094D03*
X0120701Y0068213D03*
X0120740Y0068291D03*
X0128299Y0064591D03*
X0128378Y0064709D03*
X0128417Y0064787D03*
X0089154Y0085142D03*
X0089154Y0085181D03*
X0089154Y0085220D03*
X0089154Y0085339D03*
X0089154Y0085378D03*
X0089154Y0085417D03*
X0089154Y0085535D03*
X0089154Y0085575D03*
X0088366Y0088449D03*
X0088051Y0092819D03*
X0088091Y0092858D03*
X0088169Y0093055D03*
X0088248Y0093094D03*
X0088287Y0093213D03*
X0088327Y0093252D03*
X0088248Y0097583D03*
X0087933Y0098055D03*
X0087894Y0098173D03*
X0082106Y0092583D03*
X0082067Y0092622D03*
X0081713Y0093213D03*
X0081673Y0093252D03*
X0081752Y0097583D03*
X0081831Y0097661D03*
X0081909Y0097819D03*
X0081909Y0097858D03*
X0081949Y0097976D03*
X0059980Y0092701D03*
X0059862Y0092386D03*
X0059823Y0092189D03*
X0059823Y0090811D03*
X0059862Y0090614D03*
X0059980Y0090299D03*
X0039390Y0090299D03*
X0039350Y0090339D03*
X0039350Y0090378D03*
X0039350Y0090417D03*
X0039272Y0090535D03*
X0039272Y0090575D03*
X0039232Y0090811D03*
X0039232Y0092189D03*
X0039272Y0092425D03*
X0039272Y0092465D03*
X0039350Y0092583D03*
X0039350Y0092622D03*
X0039350Y0092661D03*
X0039390Y0092701D03*
D125*
X0049921Y0092071D03*
X0049921Y0090929D03*
X0064803Y0090929D03*
X0064803Y0092071D03*
X0069252Y0094709D03*
X0069252Y0088291D03*
X0085000Y0094118D03*
X0085000Y0096559D03*
X0121390Y0065575D03*
X0121193Y0063528D03*
X0127768Y0067425D03*
X0127925Y0068291D03*
D126*
X0127866Y0068213D03*
X0067264Y0089472D03*
X0067106Y0089551D03*
X0066831Y0089709D03*
X0066673Y0089787D03*
X0066437Y0089945D03*
X0065846Y0090299D03*
X0065728Y0090339D03*
X0065571Y0090417D03*
X0065413Y0090535D03*
X0065374Y0092425D03*
X0065413Y0092465D03*
X0065846Y0092701D03*
X0066201Y0092898D03*
X0066437Y0093055D03*
X0066673Y0093213D03*
X0067106Y0093449D03*
X0049350Y0092425D03*
X0049311Y0092465D03*
X0048957Y0092661D03*
X0048524Y0092898D03*
X0048209Y0093094D03*
X0047697Y0093409D03*
X0047264Y0093646D03*
X0047185Y0093685D03*
X0046831Y0093882D03*
X0046437Y0094118D03*
X0046083Y0094315D03*
X0043169Y0096008D03*
X0047539Y0089512D03*
X0047697Y0089591D03*
X0047933Y0089748D03*
X0048209Y0089906D03*
X0048366Y0089984D03*
X0048524Y0090102D03*
X0048957Y0090339D03*
X0049035Y0090378D03*
X0049311Y0090535D03*
X0049350Y0090575D03*
X0047264Y0089354D03*
X0047185Y0089315D03*
X0047106Y0089276D03*
X0046831Y0089118D03*
X0046437Y0088882D03*
X0046083Y0088685D03*
X0046004Y0088646D03*
D127*
X0059862Y0090673D03*
X0059862Y0092327D03*
X0081752Y0093154D03*
X0083917Y0094807D03*
X0086083Y0094807D03*
X0088287Y0093154D03*
X0088130Y0092957D03*
X0088051Y0092760D03*
X0088287Y0097524D03*
X0081949Y0097917D03*
X0081713Y0097524D03*
X0089154Y0085476D03*
X0089154Y0085280D03*
X0120583Y0067957D03*
X0120701Y0068154D03*
X0128299Y0064650D03*
D128*
X0124579Y0061736D03*
X0121272Y0064846D03*
X0121390Y0065476D03*
X0127846Y0068154D03*
X0065906Y0090240D03*
X0065512Y0090476D03*
X0065512Y0092524D03*
X0065906Y0092760D03*
X0047362Y0093587D03*
X0047362Y0089413D03*
X0046339Y0088823D03*
D129*
X0045965Y0094354D03*
X0121291Y0064906D03*
X0121291Y0063449D03*
X0127827Y0068055D03*
X0127827Y0068094D03*
D130*
X0127768Y0068016D03*
X0127768Y0067898D03*
X0127728Y0067701D03*
X0121390Y0065378D03*
X0085000Y0094354D03*
X0085000Y0096323D03*
D131*
X0085000Y0096264D03*
X0085000Y0094413D03*
X0127768Y0067957D03*
D132*
X0128476Y0064984D03*
X0128437Y0064906D03*
X0128398Y0064748D03*
X0120524Y0067661D03*
X0120524Y0067701D03*
X0120563Y0067819D03*
X0120563Y0067858D03*
X0088346Y0093291D03*
X0088346Y0097425D03*
X0088307Y0097465D03*
X0087874Y0098213D03*
X0082126Y0092465D03*
X0081654Y0093291D03*
X0081654Y0097425D03*
X0081693Y0097465D03*
X0070197Y0095732D03*
X0070197Y0087268D03*
X0059921Y0090417D03*
X0059843Y0090732D03*
X0059843Y0090772D03*
X0059803Y0090929D03*
X0059803Y0090969D03*
X0059803Y0091008D03*
X0059803Y0091126D03*
X0059803Y0091165D03*
X0059803Y0091205D03*
X0059803Y0091795D03*
X0059803Y0091835D03*
X0059803Y0091874D03*
X0059803Y0091992D03*
X0059803Y0092031D03*
X0059803Y0092071D03*
X0059843Y0092228D03*
X0059843Y0092268D03*
X0059921Y0092583D03*
X0039252Y0092386D03*
X0039252Y0092268D03*
X0039252Y0092228D03*
X0039213Y0092071D03*
X0039213Y0092031D03*
X0039213Y0091992D03*
X0039173Y0091874D03*
X0039173Y0091835D03*
X0039173Y0091795D03*
X0039173Y0091756D03*
X0039173Y0091638D03*
X0039173Y0091598D03*
X0039173Y0091559D03*
X0039173Y0091441D03*
X0039173Y0091402D03*
X0039173Y0091362D03*
X0039173Y0091244D03*
X0039173Y0091205D03*
X0039173Y0091165D03*
X0039173Y0091126D03*
X0039213Y0091008D03*
X0039213Y0090969D03*
X0039213Y0090929D03*
X0039252Y0090772D03*
X0039252Y0090732D03*
X0039252Y0090614D03*
D133*
X0039252Y0090673D03*
X0039213Y0090870D03*
X0039173Y0091067D03*
X0039173Y0091303D03*
X0039173Y0091500D03*
X0039173Y0091697D03*
X0039173Y0091933D03*
X0039213Y0092130D03*
X0039252Y0092327D03*
X0059803Y0092130D03*
X0059803Y0091933D03*
X0059921Y0092524D03*
X0059803Y0091067D03*
X0059803Y0090870D03*
X0059921Y0090476D03*
X0082126Y0092524D03*
X0120524Y0067760D03*
X0128476Y0065043D03*
X0128437Y0064846D03*
D134*
X0127748Y0067760D03*
D135*
X0127748Y0067661D03*
X0127748Y0067622D03*
X0127748Y0067583D03*
X0121331Y0064984D03*
X0063720Y0087031D03*
X0045768Y0088528D03*
X0043169Y0087031D03*
X0043169Y0095969D03*
D136*
X0059902Y0092465D03*
X0059902Y0092425D03*
X0059783Y0091756D03*
X0059783Y0091638D03*
X0059783Y0091598D03*
X0059783Y0091559D03*
X0059783Y0091441D03*
X0059783Y0091402D03*
X0059783Y0091362D03*
X0059783Y0091244D03*
X0059902Y0090575D03*
X0059902Y0090535D03*
X0070217Y0087228D03*
X0070217Y0095772D03*
X0081476Y0097150D03*
X0081988Y0098016D03*
X0088524Y0097150D03*
X0088012Y0092701D03*
X0088012Y0092661D03*
X0088406Y0088528D03*
X0088406Y0088488D03*
X0084390Y0086480D03*
X0084390Y0086441D03*
X0084390Y0086402D03*
X0084390Y0086362D03*
X0084390Y0086244D03*
X0084390Y0086205D03*
X0084390Y0086165D03*
X0120465Y0067622D03*
X0120465Y0067583D03*
X0128457Y0064945D03*
X0128535Y0065102D03*
X0128535Y0065142D03*
X0128614Y0065339D03*
D137*
X0127748Y0067524D03*
X0045886Y0088587D03*
X0045886Y0094413D03*
D138*
X0070256Y0095811D03*
X0070256Y0087189D03*
X0079035Y0088134D03*
X0080531Y0086244D03*
X0080531Y0084354D03*
X0082972Y0089984D03*
X0081319Y0093921D03*
X0081201Y0094236D03*
X0081161Y0094354D03*
X0081201Y0096520D03*
X0081201Y0096559D03*
X0081319Y0096756D03*
X0086319Y0095575D03*
X0088681Y0096756D03*
X0088681Y0096795D03*
X0088799Y0096559D03*
X0088799Y0096520D03*
X0087815Y0098409D03*
X0088839Y0094354D03*
X0088799Y0094236D03*
X0088681Y0093921D03*
X0088406Y0088764D03*
X0086752Y0084354D03*
X0120465Y0067425D03*
D139*
X0120465Y0067386D03*
X0128654Y0065575D03*
X0088760Y0094118D03*
X0088917Y0094669D03*
X0088917Y0094709D03*
X0088917Y0094748D03*
X0088957Y0095102D03*
X0088957Y0095142D03*
X0088957Y0095181D03*
X0088957Y0095299D03*
X0088957Y0095339D03*
X0088957Y0095378D03*
X0088957Y0095496D03*
X0088957Y0095535D03*
X0088957Y0095575D03*
X0088917Y0095929D03*
X0088917Y0095969D03*
X0088917Y0096008D03*
X0087776Y0098488D03*
X0086280Y0095102D03*
X0086280Y0095063D03*
X0083720Y0095063D03*
X0083720Y0095102D03*
X0083720Y0095575D03*
X0081083Y0095929D03*
X0081083Y0095969D03*
X0081083Y0096008D03*
X0081043Y0095575D03*
X0081043Y0095535D03*
X0081043Y0095496D03*
X0081043Y0095378D03*
X0081043Y0095339D03*
X0081043Y0095299D03*
X0081043Y0095181D03*
X0081043Y0095142D03*
X0081083Y0094748D03*
X0081083Y0094709D03*
X0081083Y0094669D03*
X0081240Y0094118D03*
X0082224Y0092228D03*
X0082933Y0088094D03*
X0078996Y0088094D03*
X0082106Y0098291D03*
D140*
X0085000Y0097346D03*
X0082244Y0092189D03*
X0082953Y0090102D03*
X0079134Y0090102D03*
X0079055Y0089984D03*
X0080433Y0084197D03*
X0090827Y0087858D03*
X0090827Y0087898D03*
X0090827Y0087937D03*
X0090827Y0088055D03*
X0090827Y0088094D03*
X0090827Y0088134D03*
X0090827Y0088252D03*
X0120169Y0062661D03*
X0128634Y0065614D03*
D141*
X0128673Y0065535D03*
X0088386Y0088724D03*
X0086772Y0086205D03*
X0086732Y0086165D03*
X0080551Y0086205D03*
X0080551Y0084394D03*
X0087953Y0092465D03*
X0088661Y0093843D03*
X0088661Y0093882D03*
X0086220Y0094945D03*
X0086220Y0095772D03*
X0083780Y0095772D03*
X0083780Y0094945D03*
X0081339Y0093882D03*
X0081339Y0093843D03*
X0081339Y0096795D03*
X0081339Y0096835D03*
X0081378Y0096953D03*
X0081417Y0097031D03*
X0082047Y0098213D03*
X0088583Y0097031D03*
X0088622Y0096953D03*
X0088661Y0096835D03*
D142*
X0063701Y0095969D03*
X0045748Y0094472D03*
X0121350Y0065417D03*
X0121311Y0064945D03*
D143*
X0121390Y0065181D03*
X0121390Y0065299D03*
X0121390Y0063331D03*
X0085000Y0094472D03*
X0085000Y0094512D03*
X0085000Y0094551D03*
X0085000Y0096165D03*
X0085000Y0096205D03*
D144*
X0121390Y0065240D03*
D145*
X0121213Y0064748D03*
X0121213Y0064709D03*
X0064941Y0090811D03*
X0064941Y0092189D03*
D146*
X0061575Y0094512D03*
X0050118Y0091126D03*
X0040984Y0094512D03*
X0084961Y0096638D03*
X0121114Y0064551D03*
X0121114Y0064512D03*
X0121114Y0063646D03*
D147*
X0121075Y0064413D03*
X0085000Y0096697D03*
D148*
X0085000Y0096795D03*
X0085000Y0093921D03*
X0061417Y0088528D03*
X0040827Y0088528D03*
X0040827Y0094472D03*
X0120996Y0064315D03*
X0120996Y0063764D03*
D149*
X0128043Y0064217D03*
X0082008Y0092760D03*
X0060157Y0093154D03*
X0060157Y0089846D03*
X0039488Y0090043D03*
X0039488Y0092957D03*
D150*
X0064272Y0091598D03*
X0064272Y0091402D03*
X0120898Y0064118D03*
X0120898Y0064079D03*
X0127079Y0063291D03*
D151*
X0120878Y0064020D03*
X0085000Y0096894D03*
D152*
X0070138Y0095634D03*
X0070138Y0087366D03*
X0127906Y0064020D03*
D153*
X0127807Y0063882D03*
X0127728Y0063764D03*
X0085000Y0097150D03*
X0070079Y0095535D03*
X0060472Y0093685D03*
X0060472Y0089315D03*
X0039921Y0089276D03*
X0039921Y0093724D03*
D154*
X0064350Y0091697D03*
X0064350Y0091303D03*
X0120976Y0063823D03*
D155*
X0127551Y0063646D03*
X0060689Y0089079D03*
X0060689Y0093921D03*
X0043130Y0086795D03*
D156*
X0040236Y0088921D03*
X0040236Y0094079D03*
X0060787Y0094039D03*
X0085000Y0097031D03*
X0127453Y0063528D03*
D157*
X0127354Y0063488D03*
X0060886Y0088882D03*
X0060886Y0094079D03*
X0040295Y0094118D03*
X0040295Y0088882D03*
D158*
X0040472Y0088724D03*
X0040472Y0094276D03*
X0085000Y0093724D03*
X0085000Y0096992D03*
X0127177Y0063331D03*
D159*
X0124579Y0061835D03*
X0121508Y0063252D03*
X0067638Y0089079D03*
D160*
X0067677Y0089020D03*
X0067677Y0093980D03*
X0121626Y0063193D03*
D161*
X0126843Y0063193D03*
D162*
X0123870Y0063055D03*
D163*
X0123831Y0062996D03*
D164*
X0123791Y0062898D03*
D165*
X0120209Y0062760D03*
X0088898Y0094610D03*
X0088937Y0094807D03*
X0088937Y0095004D03*
X0088937Y0095634D03*
X0088937Y0095870D03*
X0082087Y0098350D03*
X0081063Y0095870D03*
X0081063Y0095634D03*
X0081063Y0095004D03*
X0081063Y0094807D03*
X0081102Y0094610D03*
X0082953Y0090043D03*
X0079094Y0090043D03*
X0080472Y0084256D03*
X0070236Y0087130D03*
X0070236Y0095870D03*
D166*
X0124539Y0062760D03*
D167*
X0124539Y0062701D03*
X0043228Y0087937D03*
X0043228Y0095063D03*
D168*
X0124559Y0062622D03*
D169*
X0120130Y0062504D03*
X0087874Y0092228D03*
X0082953Y0090142D03*
X0079016Y0087937D03*
X0086732Y0086362D03*
X0082126Y0098488D03*
D170*
X0079114Y0090181D03*
X0080335Y0084118D03*
X0086752Y0086402D03*
X0070295Y0095969D03*
X0120071Y0062465D03*
X0120071Y0062425D03*
D171*
X0120031Y0062307D03*
X0082933Y0087937D03*
X0082933Y0090181D03*
X0079075Y0089118D03*
D172*
X0079252Y0088961D03*
X0078858Y0089276D03*
X0082953Y0087898D03*
X0085197Y0089472D03*
X0086102Y0088724D03*
X0086102Y0088685D03*
X0087874Y0092031D03*
X0082126Y0098646D03*
X0119972Y0062268D03*
X0119972Y0062228D03*
D173*
X0119933Y0062189D03*
X0086142Y0088646D03*
X0083425Y0088882D03*
X0083425Y0088921D03*
X0083425Y0088961D03*
X0083425Y0089079D03*
X0083425Y0089118D03*
X0083425Y0089157D03*
X0082283Y0091874D03*
X0079370Y0088921D03*
X0078819Y0089315D03*
X0079016Y0087858D03*
X0082126Y0098685D03*
D174*
X0124539Y0062130D03*
D175*
X0119894Y0062071D03*
X0088386Y0089984D03*
X0085000Y0093291D03*
X0082244Y0091835D03*
X0082441Y0089906D03*
X0079094Y0090299D03*
X0080118Y0086165D03*
X0070315Y0096126D03*
D176*
X0124579Y0062071D03*
D177*
X0124579Y0062031D03*
X0063740Y0087307D03*
X0063740Y0095693D03*
D178*
X0079646Y0088587D03*
X0079646Y0088390D03*
X0080866Y0088390D03*
X0080866Y0088587D03*
X0080866Y0088823D03*
X0080866Y0089020D03*
X0080866Y0089217D03*
X0080866Y0089413D03*
X0080866Y0089650D03*
X0080866Y0089846D03*
X0080866Y0090043D03*
X0080866Y0090240D03*
X0082126Y0089413D03*
X0082126Y0089217D03*
X0082126Y0089020D03*
X0082126Y0088823D03*
X0082283Y0088390D03*
X0083583Y0088390D03*
X0084961Y0090240D03*
X0088937Y0088823D03*
X0089134Y0088193D03*
X0089173Y0087996D03*
X0090394Y0088390D03*
X0090394Y0088587D03*
X0090394Y0088823D03*
X0090394Y0089020D03*
X0090394Y0089217D03*
X0090394Y0089413D03*
X0090394Y0089650D03*
X0090394Y0089846D03*
X0090394Y0090043D03*
X0090394Y0090240D03*
X0089803Y0086303D03*
X0089803Y0086106D03*
X0089803Y0085909D03*
X0089803Y0085713D03*
X0089803Y0085083D03*
X0089803Y0084886D03*
X0089803Y0084650D03*
X0089803Y0084453D03*
X0089803Y0084256D03*
X0089803Y0084059D03*
X0087244Y0086106D03*
X0082677Y0086106D03*
X0082677Y0085909D03*
X0082677Y0085713D03*
X0082677Y0085476D03*
X0082677Y0085280D03*
X0082677Y0085083D03*
X0082677Y0084886D03*
X0082677Y0084650D03*
X0082677Y0084453D03*
X0082677Y0084256D03*
X0081378Y0085476D03*
X0082677Y0086303D03*
X0080866Y0087996D03*
X0080866Y0088193D03*
X0119894Y0061933D03*
D179*
X0124579Y0061933D03*
D180*
X0119874Y0061874D03*
X0088681Y0089591D03*
X0088642Y0089748D03*
X0088051Y0089551D03*
X0088051Y0089512D03*
X0088012Y0089354D03*
X0087933Y0089079D03*
X0086398Y0087858D03*
X0082972Y0090339D03*
X0087854Y0091874D03*
X0070335Y0096165D03*
D181*
X0063740Y0095929D03*
X0085000Y0096008D03*
X0085000Y0096126D03*
X0085000Y0094669D03*
X0124539Y0061795D03*
D182*
X0124579Y0061638D03*
X0085000Y0093882D03*
X0085000Y0096835D03*
X0069685Y0095102D03*
X0063740Y0096126D03*
X0069685Y0087898D03*
D183*
X0065000Y0081835D03*
X0045000Y0081835D03*
X0124500Y0056835D03*
D184*
X0124500Y0056776D03*
X0065000Y0081776D03*
X0045000Y0081776D03*
D185*
X0070354Y0086933D03*
X0070354Y0096067D03*
X0083425Y0089020D03*
X0083425Y0088823D03*
X0080197Y0084059D03*
D186*
X0063701Y0087130D03*
X0063701Y0095870D03*
D187*
X0063740Y0095772D03*
X0067677Y0094079D03*
X0067677Y0088921D03*
X0063740Y0087228D03*
D188*
X0063701Y0095634D03*
D189*
X0063720Y0095575D03*
X0043130Y0095575D03*
X0043130Y0087425D03*
D190*
X0063701Y0095535D03*
D191*
X0063720Y0095496D03*
X0063720Y0087504D03*
X0043130Y0087504D03*
X0043130Y0095496D03*
D192*
X0040197Y0094039D03*
X0040118Y0093921D03*
X0040197Y0088961D03*
X0063740Y0086795D03*
X0070000Y0087504D03*
X0070000Y0095496D03*
X0085000Y0093646D03*
D193*
X0063720Y0095437D03*
X0063720Y0087563D03*
X0043130Y0087563D03*
X0043130Y0095437D03*
D194*
X0043169Y0095378D03*
X0063720Y0095378D03*
D195*
X0063740Y0095339D03*
X0063740Y0087661D03*
X0043150Y0087622D03*
D196*
X0063720Y0095299D03*
D197*
X0069862Y0095299D03*
X0040413Y0094236D03*
X0040413Y0088764D03*
D198*
X0043150Y0095240D03*
X0063740Y0095240D03*
X0063740Y0087760D03*
D199*
X0064213Y0091500D03*
X0069803Y0087760D03*
X0069803Y0095240D03*
X0085000Y0093783D03*
D200*
X0063740Y0095181D03*
X0063740Y0087819D03*
D201*
X0063720Y0087898D03*
X0067500Y0088488D03*
X0063720Y0095102D03*
X0043169Y0095142D03*
X0043169Y0087858D03*
D202*
X0063701Y0095004D03*
D203*
X0063720Y0094906D03*
X0067382Y0088449D03*
D204*
X0063701Y0094866D03*
D205*
X0063701Y0094807D03*
X0063701Y0088193D03*
D206*
X0063740Y0094748D03*
D207*
X0063740Y0094709D03*
D208*
X0065512Y0094669D03*
D209*
X0065453Y0094610D03*
X0065453Y0088390D03*
D210*
X0063740Y0088094D03*
X0067362Y0094551D03*
D211*
X0067480Y0094512D03*
D212*
X0061339Y0094413D03*
X0061339Y0088587D03*
X0040709Y0094413D03*
D213*
X0067618Y0094413D03*
X0067618Y0088587D03*
D214*
X0067618Y0094354D03*
D215*
X0067638Y0094315D03*
D216*
X0067677Y0094276D03*
X0067677Y0088724D03*
X0063740Y0087425D03*
D217*
X0060965Y0088823D03*
X0060965Y0094177D03*
D218*
X0067697Y0094177D03*
X0067697Y0088823D03*
D219*
X0067677Y0088961D03*
X0067677Y0094039D03*
D220*
X0067657Y0093921D03*
X0045374Y0094551D03*
D221*
X0040020Y0093843D03*
X0040020Y0089157D03*
X0060610Y0089157D03*
X0060610Y0093843D03*
D222*
X0060394Y0093587D03*
X0060394Y0089413D03*
D223*
X0066260Y0090043D03*
X0066614Y0089846D03*
X0066929Y0089650D03*
X0067323Y0089413D03*
X0066260Y0092957D03*
X0066614Y0093154D03*
X0066929Y0093350D03*
X0067323Y0093587D03*
X0049528Y0092327D03*
X0049173Y0092524D03*
X0048780Y0092760D03*
X0048465Y0092957D03*
X0047008Y0093783D03*
X0046654Y0093980D03*
X0046299Y0094177D03*
X0048780Y0090240D03*
X0048465Y0090043D03*
X0047756Y0089650D03*
X0049173Y0090476D03*
X0049528Y0090673D03*
X0085000Y0096461D03*
D224*
X0060177Y0093213D03*
X0060098Y0093016D03*
X0060098Y0089984D03*
X0060177Y0089787D03*
X0060177Y0089748D03*
X0039508Y0089945D03*
X0039508Y0093055D03*
D225*
X0039311Y0092524D03*
X0039311Y0090476D03*
X0060059Y0090043D03*
X0060059Y0092957D03*
X0088012Y0097917D03*
X0088130Y0097720D03*
D226*
X0064823Y0092130D03*
X0064823Y0090870D03*
X0049823Y0090870D03*
X0049823Y0092130D03*
D227*
X0043130Y0086736D03*
X0059783Y0091303D03*
X0059783Y0091500D03*
X0059783Y0091697D03*
X0063720Y0086736D03*
X0081594Y0093350D03*
X0088406Y0093350D03*
X0084390Y0086303D03*
D228*
X0085000Y0096953D03*
X0064213Y0091559D03*
X0064213Y0091441D03*
X0040551Y0088685D03*
X0040551Y0094315D03*
D229*
X0064587Y0091067D03*
D230*
X0060551Y0089217D03*
D231*
X0067657Y0088646D03*
D232*
X0067598Y0088528D03*
D233*
X0065492Y0088331D03*
D234*
X0063720Y0088291D03*
D235*
X0063720Y0088252D03*
X0043287Y0088094D03*
D236*
X0043248Y0088055D03*
X0043248Y0094945D03*
X0063720Y0088134D03*
D237*
X0063740Y0087996D03*
D238*
X0063701Y0087622D03*
D239*
X0063740Y0087366D03*
D240*
X0063720Y0087268D03*
X0043130Y0087268D03*
X0043130Y0095732D03*
D241*
X0070315Y0086835D03*
X0078504Y0088252D03*
X0079685Y0088449D03*
X0079685Y0088488D03*
X0079685Y0088528D03*
X0078504Y0089591D03*
X0078504Y0089709D03*
X0078504Y0089748D03*
X0082165Y0088685D03*
X0083622Y0088528D03*
X0083622Y0088488D03*
X0083622Y0088449D03*
X0083661Y0088646D03*
X0083661Y0088685D03*
X0083661Y0088724D03*
X0083661Y0088764D03*
X0084921Y0088764D03*
X0084921Y0088724D03*
X0084921Y0088685D03*
X0084921Y0088646D03*
X0084921Y0088528D03*
X0084921Y0088488D03*
X0084921Y0088449D03*
X0084921Y0088331D03*
X0084921Y0088291D03*
X0084921Y0088252D03*
X0084921Y0088134D03*
X0084921Y0088094D03*
X0084921Y0088055D03*
X0084921Y0087937D03*
X0084921Y0087898D03*
X0084921Y0087858D03*
X0084921Y0088882D03*
X0084921Y0088921D03*
X0084921Y0088961D03*
X0084921Y0089079D03*
X0084921Y0089118D03*
X0084921Y0089157D03*
X0084921Y0089276D03*
X0084921Y0089315D03*
X0084921Y0090299D03*
X0086378Y0090299D03*
X0086378Y0090181D03*
X0086378Y0090142D03*
X0086378Y0090102D03*
X0086378Y0089984D03*
X0086378Y0089945D03*
X0086378Y0089906D03*
X0086378Y0089787D03*
X0086378Y0089748D03*
X0086378Y0089709D03*
X0086378Y0089591D03*
X0086378Y0089551D03*
X0086378Y0089512D03*
X0086378Y0089472D03*
X0086378Y0089354D03*
X0086378Y0089315D03*
X0086378Y0089276D03*
X0086378Y0089157D03*
X0086378Y0089118D03*
X0086378Y0089079D03*
X0086378Y0088961D03*
X0086378Y0088921D03*
X0086378Y0088882D03*
X0086378Y0087898D03*
X0087835Y0088882D03*
X0087953Y0089118D03*
X0087953Y0089157D03*
X0087992Y0089276D03*
X0087992Y0089315D03*
X0088031Y0089472D03*
X0088110Y0089709D03*
X0088661Y0089709D03*
X0088780Y0089354D03*
X0088780Y0089315D03*
X0088819Y0089276D03*
X0088819Y0089157D03*
X0088819Y0089118D03*
X0088858Y0089079D03*
X0088858Y0088961D03*
X0088465Y0086480D03*
X0088465Y0086441D03*
X0088465Y0086402D03*
X0088465Y0086362D03*
X0088465Y0086244D03*
X0088465Y0086205D03*
X0088465Y0086165D03*
X0088465Y0086047D03*
X0088465Y0086008D03*
X0088465Y0085969D03*
X0088465Y0085850D03*
X0088465Y0085811D03*
X0088465Y0085772D03*
X0088465Y0085654D03*
X0088465Y0085614D03*
X0088465Y0085024D03*
X0088465Y0084984D03*
X0088465Y0084945D03*
X0088465Y0084827D03*
X0088465Y0084787D03*
X0088465Y0084748D03*
X0088465Y0084709D03*
X0088465Y0084591D03*
X0088465Y0084551D03*
X0088465Y0084512D03*
X0088465Y0084394D03*
X0088465Y0084354D03*
X0088465Y0084315D03*
X0088465Y0084197D03*
X0088465Y0084157D03*
X0088465Y0084118D03*
X0079961Y0084512D03*
X0079961Y0084551D03*
X0079961Y0084591D03*
X0079961Y0084709D03*
X0079961Y0084748D03*
X0079961Y0084787D03*
X0079961Y0084827D03*
X0079961Y0084945D03*
X0079961Y0084984D03*
X0079961Y0085024D03*
X0079961Y0085142D03*
X0079961Y0085181D03*
X0079961Y0085220D03*
X0079961Y0085339D03*
X0079961Y0085378D03*
X0079961Y0085417D03*
X0079961Y0085535D03*
X0079961Y0085575D03*
X0079961Y0085614D03*
X0079961Y0085654D03*
X0079961Y0085772D03*
X0079961Y0085811D03*
X0079961Y0085850D03*
X0079961Y0085969D03*
X0079961Y0086008D03*
X0079961Y0086047D03*
D242*
X0078386Y0088449D03*
X0083465Y0089709D03*
X0087283Y0085850D03*
X0070315Y0086795D03*
D243*
X0085000Y0094709D03*
X0085000Y0094748D03*
X0085000Y0095969D03*
X0043150Y0095929D03*
X0043150Y0087071D03*
D244*
X0043130Y0087130D03*
X0043130Y0095870D03*
D245*
X0043110Y0095772D03*
D246*
X0043130Y0095693D03*
X0043130Y0087307D03*
D247*
X0043130Y0087366D03*
X0043130Y0095634D03*
D248*
X0043130Y0095535D03*
X0043130Y0087465D03*
D249*
X0043130Y0087661D03*
X0043130Y0095339D03*
D250*
X0043169Y0095181D03*
X0043169Y0087819D03*
D251*
X0043248Y0094906D03*
D252*
X0043307Y0094866D03*
X0043307Y0088134D03*
D253*
X0043287Y0088193D03*
X0043287Y0094807D03*
D254*
X0043327Y0094748D03*
X0043327Y0088252D03*
D255*
X0043346Y0094709D03*
D256*
X0043346Y0094669D03*
D257*
X0043406Y0094610D03*
X0043406Y0088390D03*
D258*
X0040354Y0088823D03*
X0040354Y0094177D03*
D259*
X0039980Y0093783D03*
X0039980Y0089217D03*
D260*
X0050079Y0091067D03*
X0050079Y0091933D03*
D261*
X0050453Y0091500D03*
D262*
X0040728Y0088587D03*
D263*
X0043386Y0088331D03*
D264*
X0043346Y0088291D03*
D265*
X0043189Y0087760D03*
D266*
X0043130Y0087228D03*
D267*
X0078504Y0089650D03*
X0079961Y0086106D03*
X0079961Y0085909D03*
X0079961Y0085713D03*
X0079961Y0085476D03*
X0079961Y0085280D03*
X0079961Y0085083D03*
X0079961Y0084886D03*
X0079961Y0084650D03*
X0082638Y0084059D03*
X0082638Y0086539D03*
X0083661Y0088587D03*
X0084921Y0088587D03*
X0084921Y0088390D03*
X0084921Y0088193D03*
X0084921Y0087996D03*
X0084921Y0088823D03*
X0084921Y0089020D03*
X0084921Y0089217D03*
X0086378Y0089217D03*
X0086378Y0089413D03*
X0086378Y0089650D03*
X0086378Y0089846D03*
X0086378Y0090043D03*
X0086378Y0090240D03*
X0086378Y0089020D03*
X0087835Y0088823D03*
X0087953Y0089217D03*
X0088031Y0089413D03*
X0088110Y0089650D03*
X0088661Y0089650D03*
X0088780Y0089413D03*
X0088819Y0089217D03*
X0088858Y0089020D03*
X0087638Y0088193D03*
X0088465Y0086539D03*
X0088465Y0086303D03*
X0088465Y0086106D03*
X0088465Y0085909D03*
X0088465Y0085713D03*
X0088465Y0085083D03*
X0088465Y0084886D03*
X0088465Y0084650D03*
X0088465Y0084453D03*
X0088465Y0084256D03*
X0088465Y0084059D03*
X0087756Y0098941D03*
D268*
X0087717Y0098882D03*
X0085039Y0089945D03*
X0085039Y0089906D03*
X0086260Y0088291D03*
X0086260Y0088252D03*
X0081063Y0084512D03*
X0079528Y0088764D03*
D269*
X0082264Y0091756D03*
X0087264Y0086008D03*
X0087303Y0084591D03*
X0086752Y0084000D03*
X0082106Y0098843D03*
D270*
X0087756Y0098843D03*
X0088386Y0089906D03*
X0086181Y0088488D03*
X0085118Y0089709D03*
X0086732Y0086480D03*
X0080984Y0086165D03*
X0079449Y0088882D03*
D271*
X0086201Y0088390D03*
X0086280Y0084453D03*
X0082146Y0098744D03*
D272*
X0087717Y0098744D03*
X0086063Y0088823D03*
X0079213Y0089020D03*
D273*
X0087854Y0092130D03*
X0082146Y0098547D03*
D274*
X0087756Y0098547D03*
X0082244Y0092130D03*
X0090827Y0088193D03*
X0090827Y0087996D03*
D275*
X0086732Y0086244D03*
X0086732Y0084315D03*
X0082913Y0088134D03*
X0082913Y0089945D03*
X0082205Y0092268D03*
X0081260Y0094039D03*
X0081260Y0094079D03*
X0081181Y0094276D03*
X0081181Y0094315D03*
X0081142Y0094472D03*
X0081142Y0094512D03*
X0081142Y0094551D03*
X0081142Y0096165D03*
X0081142Y0096205D03*
X0081142Y0096323D03*
X0081181Y0096362D03*
X0081181Y0096402D03*
X0081260Y0096598D03*
X0081260Y0096638D03*
X0082087Y0098252D03*
X0083740Y0095732D03*
X0083740Y0095693D03*
X0083661Y0095535D03*
X0083661Y0095496D03*
X0083661Y0095378D03*
X0083661Y0095339D03*
X0083661Y0095299D03*
X0083661Y0095181D03*
X0083661Y0095142D03*
X0086260Y0095693D03*
X0086260Y0095732D03*
X0086339Y0095535D03*
X0086339Y0095496D03*
X0086339Y0095378D03*
X0086339Y0095339D03*
X0086339Y0095299D03*
X0086339Y0095181D03*
X0086339Y0095142D03*
X0088858Y0094551D03*
X0088858Y0094512D03*
X0088858Y0094472D03*
X0088819Y0094315D03*
X0088819Y0094276D03*
X0088740Y0094079D03*
X0088740Y0094039D03*
X0087913Y0092425D03*
X0088858Y0096165D03*
X0088858Y0096205D03*
X0088858Y0096323D03*
X0088819Y0096362D03*
X0088819Y0096402D03*
X0088740Y0096598D03*
X0088740Y0096638D03*
X0087795Y0098449D03*
X0078976Y0088055D03*
X0080512Y0084315D03*
D276*
X0084409Y0086106D03*
X0084409Y0086539D03*
X0087953Y0092524D03*
X0088622Y0093783D03*
X0088701Y0093980D03*
X0088622Y0096894D03*
X0087835Y0098350D03*
X0081378Y0096894D03*
X0081299Y0096697D03*
X0081299Y0093980D03*
X0081378Y0093783D03*
D277*
X0081142Y0094413D03*
X0081142Y0096264D03*
X0081181Y0096461D03*
X0083661Y0095437D03*
X0083661Y0095240D03*
X0083740Y0095004D03*
X0086260Y0095004D03*
X0086339Y0095240D03*
X0086339Y0095437D03*
X0085000Y0097287D03*
X0088740Y0096697D03*
X0088819Y0096461D03*
X0088858Y0096264D03*
X0088858Y0094413D03*
X0080512Y0086303D03*
D278*
X0085000Y0097091D03*
D279*
X0085000Y0096067D03*
X0085000Y0094610D03*
D280*
X0082185Y0092327D03*
X0081201Y0094177D03*
X0079075Y0088193D03*
X0088799Y0094177D03*
D281*
X0085000Y0094177D03*
D282*
X0085000Y0093350D03*
D283*
X0087894Y0092327D03*
X0086713Y0086303D03*
X0078996Y0087996D03*
D284*
X0078957Y0089217D03*
X0082264Y0091933D03*
X0085217Y0089413D03*
D285*
X0086220Y0086106D03*
X0087874Y0091933D03*
X0078661Y0089413D03*
D286*
X0078563Y0089512D03*
X0079626Y0088685D03*
X0079587Y0088252D03*
X0082303Y0088331D03*
X0082264Y0089709D03*
X0082303Y0089748D03*
X0083366Y0089906D03*
X0082264Y0091795D03*
X0084980Y0090142D03*
X0084980Y0090102D03*
X0085571Y0089276D03*
X0085610Y0089157D03*
X0085650Y0089079D03*
X0085768Y0088921D03*
X0085807Y0088882D03*
X0086083Y0086008D03*
X0086004Y0085811D03*
X0086004Y0084787D03*
X0086043Y0084709D03*
X0086083Y0084591D03*
X0089193Y0087937D03*
X0089154Y0088094D03*
X0089114Y0088252D03*
X0088366Y0090299D03*
X0081240Y0086008D03*
X0081240Y0085969D03*
X0081319Y0085772D03*
X0081319Y0084827D03*
X0081280Y0084748D03*
X0081280Y0084709D03*
D287*
X0081358Y0084945D03*
X0081358Y0084984D03*
X0081358Y0085024D03*
X0081398Y0085220D03*
X0081398Y0085339D03*
X0081398Y0085378D03*
X0081358Y0085535D03*
X0081358Y0085575D03*
X0081358Y0085614D03*
X0081358Y0085654D03*
X0082224Y0088449D03*
X0082224Y0088488D03*
X0082185Y0088528D03*
X0082185Y0088646D03*
X0082185Y0089472D03*
X0082185Y0089512D03*
X0082185Y0089551D03*
X0082224Y0089591D03*
X0080846Y0090299D03*
X0083563Y0088331D03*
X0086358Y0087937D03*
X0087579Y0087937D03*
X0087579Y0087898D03*
X0087618Y0088055D03*
X0087618Y0088094D03*
X0087618Y0088134D03*
X0087697Y0088331D03*
X0087894Y0088921D03*
X0087894Y0088961D03*
X0088091Y0089591D03*
X0088130Y0089748D03*
X0088720Y0089551D03*
X0088720Y0089512D03*
X0088720Y0089472D03*
X0088917Y0088921D03*
X0088917Y0088882D03*
X0089075Y0088331D03*
X0089075Y0088291D03*
X0089232Y0087898D03*
X0089232Y0087858D03*
X0085965Y0085772D03*
X0085965Y0085654D03*
X0085965Y0085614D03*
X0085925Y0085575D03*
X0085925Y0085535D03*
X0085925Y0085417D03*
X0085925Y0085378D03*
X0085925Y0085339D03*
X0085925Y0085220D03*
X0085925Y0085181D03*
X0085925Y0085142D03*
X0085925Y0085024D03*
X0085965Y0084945D03*
X0085965Y0084827D03*
X0087264Y0084512D03*
X0084390Y0084512D03*
X0084390Y0084551D03*
X0084390Y0084591D03*
X0084390Y0084709D03*
X0084390Y0084748D03*
X0084390Y0084787D03*
X0084390Y0084827D03*
X0084390Y0084945D03*
X0084390Y0084984D03*
X0084390Y0085024D03*
X0084390Y0085142D03*
X0084390Y0085181D03*
X0084390Y0085220D03*
X0084390Y0085339D03*
X0084390Y0085378D03*
X0084390Y0085417D03*
X0084390Y0085535D03*
X0084390Y0085575D03*
X0084390Y0085614D03*
X0084390Y0085654D03*
X0084390Y0085772D03*
X0084390Y0085811D03*
X0084390Y0085850D03*
X0084390Y0085969D03*
X0084390Y0086008D03*
X0084390Y0086047D03*
X0084390Y0084394D03*
X0084390Y0084354D03*
X0084390Y0084315D03*
X0084390Y0084197D03*
X0084390Y0084157D03*
X0084390Y0084118D03*
D288*
X0082677Y0084118D03*
X0082677Y0084157D03*
X0082677Y0084197D03*
X0082677Y0084315D03*
X0082677Y0084354D03*
X0082677Y0084394D03*
X0082677Y0084512D03*
X0082677Y0084551D03*
X0082677Y0084591D03*
X0082677Y0084709D03*
X0082677Y0084748D03*
X0082677Y0084787D03*
X0082677Y0084827D03*
X0082677Y0084945D03*
X0082677Y0084984D03*
X0082677Y0085024D03*
X0082677Y0085142D03*
X0082677Y0085181D03*
X0082677Y0085220D03*
X0082677Y0085339D03*
X0082677Y0085378D03*
X0082677Y0085417D03*
X0082677Y0085535D03*
X0082677Y0085575D03*
X0082677Y0085614D03*
X0082677Y0085654D03*
X0082677Y0085772D03*
X0082677Y0085811D03*
X0082677Y0085850D03*
X0082677Y0085969D03*
X0082677Y0086008D03*
X0082677Y0086047D03*
X0082677Y0086165D03*
X0082677Y0086205D03*
X0082677Y0086244D03*
X0082677Y0086362D03*
X0082677Y0086402D03*
X0082677Y0086441D03*
X0082677Y0086480D03*
X0082953Y0087819D03*
X0083543Y0088291D03*
X0082126Y0088724D03*
X0082126Y0088764D03*
X0082126Y0088882D03*
X0082126Y0088921D03*
X0082126Y0088961D03*
X0082126Y0089079D03*
X0082126Y0089118D03*
X0082126Y0089157D03*
X0082126Y0089276D03*
X0082126Y0089315D03*
X0082126Y0089354D03*
X0080866Y0089354D03*
X0080866Y0089315D03*
X0080866Y0089276D03*
X0080866Y0089157D03*
X0080866Y0089118D03*
X0080866Y0089079D03*
X0080866Y0088961D03*
X0080866Y0088921D03*
X0080866Y0088882D03*
X0080866Y0088764D03*
X0080866Y0088724D03*
X0080866Y0088685D03*
X0080866Y0088646D03*
X0080866Y0088528D03*
X0080866Y0088488D03*
X0080866Y0088449D03*
X0080866Y0088331D03*
X0080866Y0088291D03*
X0080866Y0088252D03*
X0080866Y0088134D03*
X0080866Y0088094D03*
X0080866Y0088055D03*
X0080866Y0087937D03*
X0080866Y0087898D03*
X0080866Y0087858D03*
X0079646Y0088331D03*
X0079606Y0088291D03*
X0079646Y0088646D03*
X0079016Y0087819D03*
X0078543Y0089551D03*
X0078543Y0089787D03*
X0080866Y0089787D03*
X0080866Y0089748D03*
X0080866Y0089709D03*
X0080866Y0089591D03*
X0080866Y0089551D03*
X0080866Y0089512D03*
X0080866Y0089472D03*
X0080866Y0089906D03*
X0080866Y0089945D03*
X0080866Y0089984D03*
X0080866Y0090102D03*
X0080866Y0090142D03*
X0080866Y0090181D03*
X0084961Y0090181D03*
X0085512Y0089315D03*
X0086339Y0088055D03*
X0087520Y0087858D03*
X0087677Y0088252D03*
X0087677Y0088291D03*
X0089134Y0088134D03*
X0089173Y0088055D03*
X0090394Y0088291D03*
X0090394Y0088331D03*
X0090394Y0088449D03*
X0090394Y0088488D03*
X0090394Y0088528D03*
X0090394Y0088646D03*
X0090394Y0088685D03*
X0090394Y0088724D03*
X0090394Y0088764D03*
X0090394Y0088882D03*
X0090394Y0088921D03*
X0090394Y0088961D03*
X0090394Y0089079D03*
X0090394Y0089118D03*
X0090394Y0089157D03*
X0090394Y0089276D03*
X0090394Y0089315D03*
X0090394Y0089354D03*
X0090394Y0089472D03*
X0090394Y0089512D03*
X0090394Y0089551D03*
X0090394Y0089591D03*
X0090394Y0089709D03*
X0090394Y0089748D03*
X0090394Y0089787D03*
X0090394Y0089906D03*
X0090394Y0089945D03*
X0090394Y0089984D03*
X0090394Y0090102D03*
X0090394Y0090142D03*
X0090394Y0090181D03*
X0090394Y0090299D03*
X0089803Y0086480D03*
X0089803Y0086441D03*
X0089803Y0086402D03*
X0089803Y0086362D03*
X0089803Y0086244D03*
X0089803Y0086205D03*
X0089803Y0086165D03*
X0089803Y0086047D03*
X0089803Y0086008D03*
X0089803Y0085969D03*
X0089803Y0085850D03*
X0089803Y0085811D03*
X0089803Y0085772D03*
X0089803Y0085654D03*
X0089803Y0085614D03*
X0089803Y0085024D03*
X0089803Y0084984D03*
X0089803Y0084945D03*
X0089803Y0084827D03*
X0089803Y0084787D03*
X0089803Y0084748D03*
X0089803Y0084709D03*
X0089803Y0084591D03*
X0089803Y0084551D03*
X0089803Y0084512D03*
X0089803Y0084394D03*
X0089803Y0084354D03*
X0089803Y0084315D03*
X0089803Y0084197D03*
X0089803Y0084157D03*
X0089803Y0084118D03*
X0086024Y0084748D03*
X0085945Y0084984D03*
X0086024Y0085850D03*
X0086063Y0085969D03*
X0081378Y0085417D03*
X0081378Y0085181D03*
X0081378Y0085142D03*
X0081299Y0084787D03*
X0081299Y0085811D03*
X0081299Y0085850D03*
D289*
X0079134Y0090240D03*
D290*
X0082933Y0090240D03*
D291*
X0082362Y0089846D03*
X0085000Y0090043D03*
X0088386Y0090240D03*
X0086732Y0086539D03*
D292*
X0086201Y0084512D03*
X0085728Y0088961D03*
X0085020Y0089984D03*
X0088366Y0090142D03*
X0088366Y0090181D03*
D293*
X0088386Y0090043D03*
X0085079Y0089846D03*
X0079488Y0088823D03*
D294*
X0078563Y0089846D03*
X0081280Y0085909D03*
X0081240Y0084650D03*
X0086043Y0084650D03*
X0086043Y0085909D03*
X0085689Y0089020D03*
X0085571Y0089217D03*
D295*
X0079587Y0089846D03*
D296*
X0083445Y0089846D03*
X0089823Y0086539D03*
D297*
X0088406Y0089846D03*
X0086161Y0088587D03*
X0080335Y0086539D03*
D298*
X0079626Y0089787D03*
X0083484Y0089748D03*
D299*
X0083445Y0089787D03*
X0078484Y0088291D03*
D300*
X0079665Y0089748D03*
D301*
X0078406Y0088390D03*
D302*
X0078425Y0088331D03*
X0087283Y0085969D03*
D303*
X0086752Y0084059D03*
X0083406Y0088193D03*
X0082500Y0088193D03*
D304*
X0081122Y0086106D03*
X0086280Y0088193D03*
X0087224Y0084453D03*
D305*
X0086752Y0084256D03*
X0082933Y0087996D03*
D306*
X0087283Y0085909D03*
D307*
X0087303Y0084709D03*
D308*
X0087303Y0084650D03*
D309*
X0087283Y0084551D03*
D310*
X0020000Y0031500D03*
X0030000Y0031500D03*
X0030000Y0101500D03*
X0020000Y0101500D03*
X0120000Y0101500D03*
X0130000Y0101500D03*
X0130000Y0031500D03*
X0120000Y0031500D03*
D311*
X0105232Y0037811D03*
D312*
X0105232Y0037634D03*
X0105232Y0037437D03*
X0105232Y0037240D03*
X0105232Y0037043D03*
X0105232Y0036846D03*
X0105232Y0025350D03*
X0105232Y0025154D03*
X0105232Y0024957D03*
X0105232Y0024760D03*
X0105232Y0024563D03*
X0105232Y0024366D03*
X0105232Y0024169D03*
D313*
X0103382Y0028264D03*
X0103382Y0028461D03*
X0100075Y0025547D03*
X0103382Y0033736D03*
X0103382Y0033933D03*
X0103382Y0034130D03*
X0100075Y0036650D03*
D314*
X0108441Y0036650D03*
X0108441Y0025547D03*
D315*
X0109602Y0034130D03*
X0109602Y0034327D03*
X0095193Y0034327D03*
X0095193Y0034130D03*
X0095193Y0033933D03*
X0095193Y0033736D03*
X0095193Y0033539D03*
X0095193Y0033343D03*
X0095193Y0033146D03*
X0095193Y0032949D03*
X0095193Y0032752D03*
X0095193Y0032555D03*
X0095193Y0032358D03*
X0095193Y0032161D03*
X0095193Y0031965D03*
X0095193Y0031768D03*
X0095193Y0031571D03*
X0095193Y0031374D03*
X0095193Y0031177D03*
X0095193Y0030823D03*
X0095193Y0030626D03*
X0095193Y0030429D03*
X0095193Y0030232D03*
X0095193Y0030035D03*
X0095193Y0029839D03*
X0095193Y0029642D03*
X0095193Y0029445D03*
X0095193Y0029248D03*
X0095193Y0029051D03*
X0095193Y0028854D03*
X0095193Y0028657D03*
X0095193Y0028461D03*
X0095193Y0028264D03*
X0095193Y0028067D03*
X0095193Y0027870D03*
X0095193Y0027673D03*
X0095193Y0027319D03*
X0095193Y0027122D03*
X0095193Y0026925D03*
X0095193Y0026728D03*
X0094602Y0026728D03*
X0094406Y0026925D03*
X0093854Y0027870D03*
X0093854Y0028067D03*
X0093657Y0028264D03*
X0093461Y0028461D03*
X0093461Y0028657D03*
X0093264Y0028854D03*
X0093264Y0029051D03*
X0093067Y0029248D03*
X0092870Y0029642D03*
X0092673Y0029839D03*
X0092673Y0030035D03*
X0092476Y0030232D03*
X0092476Y0030429D03*
X0092280Y0030626D03*
X0092083Y0030823D03*
X0091886Y0031177D03*
X0091886Y0031374D03*
X0091689Y0031571D03*
X0091689Y0031768D03*
X0091492Y0031965D03*
X0091295Y0032161D03*
X0091295Y0032358D03*
X0091098Y0032555D03*
X0091098Y0032752D03*
X0090547Y0033539D03*
X0090547Y0033736D03*
X0090350Y0033933D03*
X0090350Y0034130D03*
X0090154Y0034327D03*
X0089957Y0034681D03*
X0089760Y0034878D03*
X0089760Y0035075D03*
X0089563Y0035272D03*
X0089563Y0035469D03*
X0088776Y0035469D03*
X0088776Y0035272D03*
X0088776Y0035075D03*
X0088776Y0034878D03*
X0088776Y0034681D03*
X0088776Y0034327D03*
X0088776Y0034130D03*
X0088776Y0033933D03*
X0088776Y0033736D03*
X0088776Y0033539D03*
X0088776Y0033343D03*
X0088776Y0033146D03*
X0088776Y0032949D03*
X0088776Y0032752D03*
X0088776Y0032555D03*
X0088776Y0032358D03*
X0088776Y0032161D03*
X0088776Y0031965D03*
X0088776Y0031768D03*
X0088776Y0031571D03*
X0088776Y0031374D03*
X0088776Y0031177D03*
X0088776Y0030823D03*
X0088776Y0030626D03*
X0088776Y0030429D03*
X0088776Y0030232D03*
X0088776Y0030035D03*
X0088776Y0029839D03*
X0088776Y0029642D03*
X0088776Y0029445D03*
X0088776Y0029248D03*
X0088776Y0029051D03*
X0088776Y0028854D03*
X0088776Y0028657D03*
X0088776Y0028461D03*
X0088776Y0028264D03*
X0088776Y0028067D03*
X0088776Y0027870D03*
X0088776Y0027673D03*
X0088776Y0027319D03*
X0088776Y0027122D03*
X0088776Y0026925D03*
X0088776Y0026728D03*
X0088776Y0026531D03*
X0088776Y0026335D03*
X0088776Y0026138D03*
X0088776Y0025941D03*
X0088776Y0025744D03*
X0085272Y0025744D03*
X0085272Y0025941D03*
X0085272Y0026138D03*
X0085272Y0026335D03*
X0085272Y0026531D03*
X0085272Y0026728D03*
X0085272Y0026925D03*
X0085272Y0027122D03*
X0085272Y0027319D03*
X0085272Y0027673D03*
X0085272Y0027870D03*
X0085272Y0028067D03*
X0085272Y0028264D03*
X0085272Y0028461D03*
X0085272Y0028657D03*
X0085272Y0028854D03*
X0085272Y0029051D03*
X0085272Y0029248D03*
X0085272Y0029445D03*
X0085272Y0029642D03*
X0085272Y0029839D03*
X0085272Y0030035D03*
X0085272Y0030232D03*
X0085272Y0030429D03*
X0085272Y0030626D03*
X0085272Y0030823D03*
X0085272Y0031177D03*
X0085272Y0031374D03*
X0085272Y0031571D03*
X0085272Y0031768D03*
X0085272Y0031965D03*
X0085272Y0032161D03*
X0085272Y0032358D03*
X0085272Y0032555D03*
X0085272Y0032752D03*
X0085272Y0032949D03*
X0085272Y0033146D03*
X0085272Y0033343D03*
X0085272Y0033539D03*
X0085272Y0033736D03*
X0085272Y0033933D03*
X0085272Y0034130D03*
X0085272Y0034327D03*
X0085272Y0034681D03*
X0085272Y0034878D03*
X0085272Y0035075D03*
X0085272Y0035272D03*
X0085272Y0035469D03*
X0085272Y0035665D03*
X0085272Y0035862D03*
X0085272Y0036059D03*
X0085272Y0036256D03*
X0085272Y0036453D03*
X0082949Y0035862D03*
X0082752Y0035665D03*
X0082752Y0035469D03*
X0082555Y0035272D03*
X0082555Y0035075D03*
X0082555Y0034878D03*
X0082358Y0034681D03*
X0082358Y0034327D03*
X0082161Y0034130D03*
X0082161Y0033933D03*
X0081965Y0033539D03*
X0081965Y0033343D03*
X0081768Y0032949D03*
X0081768Y0032752D03*
X0081571Y0032555D03*
X0081571Y0032358D03*
X0081571Y0032161D03*
X0081374Y0031965D03*
X0081374Y0031768D03*
X0081177Y0031374D03*
X0081177Y0031177D03*
X0080980Y0030823D03*
X0080980Y0030626D03*
X0080783Y0030429D03*
X0080783Y0030232D03*
X0080587Y0029839D03*
X0080587Y0029642D03*
X0080035Y0028264D03*
X0080035Y0028067D03*
X0079839Y0027673D03*
X0079642Y0027319D03*
X0079051Y0027319D03*
X0078854Y0027673D03*
X0078854Y0027870D03*
X0078657Y0028264D03*
X0078657Y0028461D03*
X0078461Y0028657D03*
X0078461Y0028854D03*
X0078264Y0029248D03*
X0078264Y0029445D03*
X0078067Y0029839D03*
X0078067Y0030035D03*
X0077870Y0030429D03*
X0077870Y0030626D03*
X0077673Y0030823D03*
X0077280Y0031768D03*
X0077280Y0031965D03*
X0076728Y0030232D03*
X0076728Y0030035D03*
X0076531Y0029642D03*
X0076531Y0029445D03*
X0076335Y0029248D03*
X0076335Y0029051D03*
X0076335Y0028854D03*
X0076138Y0028657D03*
X0076138Y0028461D03*
X0075941Y0028067D03*
X0075941Y0027870D03*
X0075744Y0027673D03*
X0075744Y0027319D03*
X0074957Y0027319D03*
X0074760Y0027870D03*
X0074760Y0028067D03*
X0074563Y0028264D03*
X0074563Y0028461D03*
X0074366Y0028854D03*
X0074366Y0029051D03*
X0074169Y0029445D03*
X0074169Y0029642D03*
X0073972Y0030035D03*
X0073972Y0030232D03*
X0073776Y0030429D03*
X0073776Y0030626D03*
X0073776Y0030823D03*
X0073224Y0031965D03*
X0073224Y0032161D03*
X0073224Y0032358D03*
X0073028Y0032555D03*
X0073028Y0032752D03*
X0072831Y0033146D03*
X0072831Y0033343D03*
X0072634Y0033736D03*
X0072634Y0033933D03*
X0072437Y0034327D03*
X0072240Y0034681D03*
X0072240Y0034878D03*
X0072240Y0035075D03*
X0072043Y0035272D03*
X0072043Y0035469D03*
X0071846Y0035862D03*
X0071846Y0036059D03*
X0071650Y0036256D03*
X0071650Y0036453D03*
X0069327Y0033933D03*
X0069327Y0033736D03*
X0069524Y0033539D03*
X0069524Y0033343D03*
X0069720Y0033146D03*
X0069720Y0032949D03*
X0069130Y0034130D03*
X0068933Y0034327D03*
X0069720Y0029248D03*
X0069720Y0029051D03*
X0069524Y0028854D03*
X0069524Y0028657D03*
X0069327Y0028461D03*
X0069327Y0028264D03*
X0069130Y0028067D03*
X0068933Y0027870D03*
X0068736Y0027673D03*
X0067949Y0026925D03*
X0063657Y0026925D03*
X0063657Y0026728D03*
X0063657Y0026531D03*
X0063657Y0026335D03*
X0063657Y0026138D03*
X0063657Y0027122D03*
X0063657Y0027319D03*
X0063657Y0027673D03*
X0063657Y0027870D03*
X0063657Y0028067D03*
X0063657Y0028264D03*
X0063657Y0028461D03*
X0063657Y0028657D03*
X0063657Y0028854D03*
X0063657Y0029051D03*
X0063657Y0029248D03*
X0063657Y0029445D03*
X0063657Y0029642D03*
X0063657Y0029839D03*
X0063657Y0030035D03*
X0063657Y0030232D03*
X0063657Y0030429D03*
X0063657Y0030626D03*
X0063657Y0030823D03*
X0063657Y0031177D03*
X0063657Y0031374D03*
X0063657Y0031571D03*
X0063657Y0031768D03*
X0063657Y0031965D03*
X0063657Y0032161D03*
X0063657Y0032358D03*
X0063657Y0032555D03*
X0063657Y0032752D03*
X0063657Y0032949D03*
X0063657Y0033146D03*
X0063657Y0033343D03*
X0063657Y0033539D03*
X0063657Y0033736D03*
X0063657Y0033933D03*
X0063657Y0034130D03*
X0063657Y0034327D03*
X0063657Y0034681D03*
X0063657Y0034878D03*
X0063657Y0035075D03*
X0063657Y0035272D03*
X0063657Y0035469D03*
X0063657Y0035665D03*
X0063657Y0035862D03*
X0063657Y0036059D03*
X0060547Y0034878D03*
X0060547Y0034681D03*
X0060744Y0034327D03*
X0060744Y0034130D03*
X0060744Y0033933D03*
X0060744Y0033736D03*
X0060744Y0033539D03*
X0060744Y0033343D03*
X0060744Y0033146D03*
X0060744Y0032949D03*
X0060547Y0032752D03*
X0060547Y0032555D03*
X0060350Y0032358D03*
X0059012Y0030823D03*
X0059209Y0030626D03*
X0059209Y0030429D03*
X0059209Y0030232D03*
X0059406Y0030035D03*
X0059406Y0029839D03*
X0059957Y0028461D03*
X0059957Y0028264D03*
X0059957Y0028067D03*
X0060154Y0027870D03*
X0060154Y0027673D03*
X0060350Y0027319D03*
X0060350Y0027122D03*
X0060547Y0026925D03*
X0060547Y0026728D03*
X0060744Y0026335D03*
X0052398Y0026925D03*
X0052398Y0027122D03*
X0052398Y0027319D03*
X0052201Y0027673D03*
X0052004Y0028067D03*
X0052004Y0028264D03*
X0051807Y0028657D03*
X0051807Y0028854D03*
X0051610Y0029051D03*
X0051610Y0029248D03*
X0051610Y0029445D03*
X0051413Y0029642D03*
X0051413Y0029839D03*
X0051217Y0030232D03*
X0051217Y0030429D03*
X0051020Y0030823D03*
X0050823Y0031374D03*
X0050823Y0031571D03*
X0050626Y0031768D03*
X0050626Y0031965D03*
X0050626Y0032161D03*
X0050429Y0032358D03*
X0050429Y0032555D03*
X0050232Y0032752D03*
X0050232Y0032949D03*
X0050232Y0033146D03*
X0050035Y0033343D03*
X0050035Y0033539D03*
X0050035Y0033736D03*
X0049839Y0033933D03*
X0049839Y0034130D03*
X0049642Y0034681D03*
X0048894Y0034878D03*
X0048697Y0034327D03*
X0048500Y0034130D03*
X0048500Y0033933D03*
X0048303Y0033539D03*
X0048303Y0033343D03*
X0048106Y0032949D03*
X0048106Y0032752D03*
X0047909Y0032555D03*
X0047909Y0032358D03*
X0047909Y0032161D03*
X0047713Y0031965D03*
X0047713Y0031768D03*
X0047516Y0031374D03*
X0047516Y0031177D03*
X0047319Y0030823D03*
X0047319Y0030626D03*
X0047122Y0030429D03*
X0047122Y0030232D03*
X0047122Y0030035D03*
X0046925Y0029839D03*
X0046925Y0029642D03*
X0046925Y0029445D03*
X0046728Y0029248D03*
X0046728Y0029051D03*
X0046531Y0028657D03*
X0046531Y0028461D03*
X0046335Y0028264D03*
X0046335Y0028067D03*
X0046335Y0027870D03*
X0046138Y0027673D03*
X0045587Y0026138D03*
X0045587Y0025941D03*
X0043224Y0031571D03*
X0037201Y0031768D03*
X0037201Y0031965D03*
X0037201Y0032161D03*
X0037201Y0032358D03*
X0037201Y0032555D03*
X0037201Y0032752D03*
X0037201Y0032949D03*
X0037201Y0033146D03*
X0037201Y0033343D03*
X0037201Y0033539D03*
X0037201Y0033736D03*
X0037201Y0033933D03*
X0037201Y0034130D03*
X0037201Y0034327D03*
X0037201Y0034681D03*
X0037201Y0034878D03*
X0037201Y0035075D03*
X0037201Y0035272D03*
X0037201Y0035469D03*
X0037201Y0035665D03*
X0037201Y0035862D03*
X0037201Y0036059D03*
X0037201Y0036256D03*
X0037201Y0036453D03*
X0037201Y0030823D03*
X0037201Y0030626D03*
X0037201Y0030429D03*
X0037201Y0030232D03*
X0037201Y0030035D03*
X0037201Y0029839D03*
X0037201Y0029642D03*
X0037201Y0029445D03*
X0037201Y0029248D03*
X0037201Y0029051D03*
X0037201Y0028854D03*
X0037201Y0028657D03*
X0037201Y0028461D03*
X0037201Y0028264D03*
X0037201Y0028067D03*
X0037201Y0027870D03*
X0037201Y0027673D03*
X0037201Y0027319D03*
X0037201Y0027122D03*
X0037201Y0026925D03*
X0037201Y0026728D03*
X0037201Y0026531D03*
X0037201Y0026335D03*
X0037201Y0026138D03*
X0037201Y0025941D03*
X0037201Y0025744D03*
X0055311Y0036059D03*
X0059957Y0035469D03*
X0060154Y0035272D03*
X0060350Y0035075D03*
X0075350Y0026531D03*
X0075350Y0026335D03*
X0079445Y0026335D03*
X0095193Y0034681D03*
X0095193Y0034878D03*
X0095193Y0035075D03*
X0095193Y0035272D03*
X0095193Y0035469D03*
X0095193Y0035665D03*
X0095193Y0035862D03*
X0095193Y0036059D03*
X0095193Y0036256D03*
X0095193Y0036453D03*
D316*
X0082063Y0033736D03*
X0081866Y0033146D03*
X0081276Y0031571D03*
X0080685Y0030035D03*
X0080488Y0029445D03*
X0079937Y0027870D03*
X0078756Y0028067D03*
X0078362Y0029051D03*
X0078165Y0029642D03*
X0077969Y0030232D03*
X0076827Y0030429D03*
X0076630Y0029839D03*
X0076039Y0028264D03*
X0074858Y0027673D03*
X0074465Y0028657D03*
X0074268Y0029248D03*
X0074071Y0029839D03*
X0072929Y0032949D03*
X0072732Y0033539D03*
X0072535Y0034130D03*
X0071945Y0035665D03*
X0069819Y0029445D03*
X0079346Y0026138D03*
X0059504Y0029642D03*
X0055213Y0029642D03*
X0055213Y0029839D03*
X0055213Y0030035D03*
X0055213Y0030232D03*
X0055213Y0030429D03*
X0055213Y0030626D03*
X0055213Y0030823D03*
X0055213Y0031177D03*
X0055213Y0031374D03*
X0055213Y0031571D03*
X0055213Y0031768D03*
X0055213Y0031965D03*
X0055213Y0032161D03*
X0055213Y0032358D03*
X0055213Y0032555D03*
X0055213Y0032752D03*
X0055213Y0032949D03*
X0055213Y0033146D03*
X0055213Y0033343D03*
X0055213Y0033539D03*
X0055213Y0033736D03*
X0055213Y0033933D03*
X0055213Y0034130D03*
X0055213Y0034327D03*
X0055213Y0034681D03*
X0055213Y0034878D03*
X0055213Y0035075D03*
X0055213Y0035272D03*
X0055213Y0035469D03*
X0055213Y0035665D03*
X0055213Y0035862D03*
X0050921Y0031177D03*
X0051118Y0030626D03*
X0051315Y0030035D03*
X0051906Y0028461D03*
X0052102Y0027870D03*
X0055213Y0027870D03*
X0055213Y0027673D03*
X0055213Y0027319D03*
X0055213Y0027122D03*
X0055213Y0026925D03*
X0055213Y0026728D03*
X0055213Y0026531D03*
X0055213Y0026335D03*
X0055213Y0026138D03*
X0055213Y0025941D03*
X0055213Y0025744D03*
X0055213Y0028067D03*
X0055213Y0028264D03*
X0055213Y0028461D03*
X0055213Y0028657D03*
X0055213Y0028854D03*
X0055213Y0029051D03*
X0055213Y0029248D03*
X0055213Y0029445D03*
X0049740Y0034327D03*
X0049543Y0034878D03*
X0048795Y0034681D03*
X0048402Y0033736D03*
X0048205Y0033146D03*
X0047614Y0031571D03*
X0046630Y0028854D03*
X0046039Y0027319D03*
X0045488Y0025744D03*
X0043323Y0025744D03*
X0043323Y0025941D03*
X0043323Y0026138D03*
X0043323Y0026335D03*
X0043323Y0026531D03*
X0043323Y0026728D03*
X0043323Y0026925D03*
X0043323Y0027122D03*
X0043323Y0027319D03*
X0043323Y0027673D03*
X0043323Y0027870D03*
X0043323Y0028067D03*
X0043323Y0028264D03*
X0043323Y0028461D03*
X0043323Y0028657D03*
X0043323Y0028854D03*
X0043323Y0029051D03*
X0043323Y0029248D03*
X0043323Y0029445D03*
X0043323Y0029642D03*
X0043323Y0029839D03*
X0043323Y0030035D03*
X0043323Y0030232D03*
X0043323Y0030429D03*
X0043323Y0030626D03*
X0043323Y0030823D03*
X0043323Y0031768D03*
X0043323Y0031965D03*
X0043323Y0032161D03*
X0043323Y0032358D03*
X0043323Y0032555D03*
X0043323Y0032752D03*
X0043323Y0032949D03*
X0043323Y0033146D03*
X0043323Y0033343D03*
X0043323Y0033539D03*
X0043323Y0033736D03*
X0043323Y0033933D03*
X0043323Y0034130D03*
X0043323Y0034327D03*
X0043323Y0034681D03*
X0043323Y0034878D03*
X0043323Y0035075D03*
X0043323Y0035272D03*
X0043323Y0035469D03*
X0043323Y0035665D03*
X0043323Y0035862D03*
X0043323Y0036059D03*
X0043323Y0036256D03*
X0043323Y0036453D03*
D317*
X0056571Y0036453D03*
X0099012Y0034327D03*
X0099012Y0034130D03*
X0099012Y0033933D03*
X0099012Y0033736D03*
X0103264Y0035862D03*
X0107555Y0034327D03*
X0107555Y0034130D03*
X0111453Y0034130D03*
X0111453Y0034327D03*
X0111453Y0034681D03*
X0111453Y0034878D03*
X0111453Y0035075D03*
X0111453Y0035272D03*
X0111453Y0035469D03*
X0111453Y0035665D03*
X0111453Y0035862D03*
X0111453Y0036059D03*
X0111453Y0036256D03*
X0111453Y0036453D03*
X0111453Y0033933D03*
X0111453Y0033736D03*
X0111453Y0033539D03*
X0111453Y0033343D03*
X0111453Y0033146D03*
X0111453Y0032949D03*
X0111453Y0032752D03*
X0111453Y0032555D03*
X0111453Y0032358D03*
X0111453Y0032161D03*
X0111453Y0031965D03*
X0111453Y0031768D03*
X0111453Y0031571D03*
X0111453Y0031374D03*
X0111453Y0031177D03*
X0111453Y0030823D03*
X0111453Y0030626D03*
X0111453Y0030429D03*
X0111453Y0030232D03*
X0111453Y0030035D03*
X0111453Y0029839D03*
X0111453Y0029642D03*
X0111453Y0029445D03*
X0111453Y0029248D03*
X0111453Y0029051D03*
X0111453Y0028854D03*
X0111453Y0028657D03*
X0111453Y0028461D03*
X0111453Y0028264D03*
X0111453Y0028067D03*
X0111453Y0027870D03*
X0111453Y0027673D03*
X0111453Y0027319D03*
X0111453Y0027122D03*
X0111453Y0026925D03*
X0111453Y0026728D03*
X0111453Y0026531D03*
X0111453Y0026335D03*
X0111453Y0026138D03*
X0111453Y0025941D03*
X0111453Y0025744D03*
X0099012Y0027870D03*
X0099012Y0028067D03*
X0099012Y0028264D03*
X0099012Y0028461D03*
D318*
X0103382Y0026138D03*
X0103382Y0036059D03*
X0064642Y0036453D03*
D319*
X0078087Y0036453D03*
X0078087Y0036256D03*
D320*
X0077378Y0031571D03*
X0079346Y0026728D03*
X0079346Y0026531D03*
X0082850Y0036059D03*
X0088874Y0036256D03*
X0088874Y0036453D03*
X0092969Y0029445D03*
X0109504Y0033343D03*
X0109504Y0033539D03*
X0109504Y0033736D03*
X0109504Y0033933D03*
X0068638Y0034681D03*
X0068441Y0034878D03*
X0068244Y0035075D03*
X0068047Y0035272D03*
X0067654Y0035469D03*
X0060252Y0032161D03*
X0060055Y0031965D03*
X0059307Y0031374D03*
X0059110Y0031177D03*
X0060646Y0026531D03*
X0060646Y0026138D03*
X0067654Y0026728D03*
X0068244Y0027122D03*
X0068441Y0027319D03*
X0037299Y0031571D03*
D321*
X0099780Y0036453D03*
X0103283Y0034681D03*
D322*
X0103283Y0033539D03*
X0107181Y0036453D03*
X0103283Y0028657D03*
X0107181Y0025744D03*
X0092575Y0025744D03*
D323*
X0103362Y0026925D03*
X0107850Y0027319D03*
X0107457Y0035469D03*
X0107457Y0035665D03*
X0103362Y0035272D03*
X0057063Y0036256D03*
D324*
X0065016Y0036256D03*
X0065016Y0025941D03*
X0099110Y0027673D03*
X0103362Y0026531D03*
X0099110Y0034681D03*
D325*
X0099681Y0036256D03*
X0099681Y0025941D03*
D326*
X0103382Y0025941D03*
X0103382Y0036256D03*
D327*
X0107260Y0036256D03*
X0107457Y0026138D03*
D328*
X0058815Y0036059D03*
D329*
X0066492Y0036059D03*
X0077398Y0031177D03*
X0049169Y0035075D03*
D330*
X0066965Y0035862D03*
X0067358Y0035665D03*
X0075350Y0027122D03*
X0075350Y0026925D03*
X0075350Y0026728D03*
X0079445Y0026925D03*
X0088972Y0035862D03*
X0088972Y0036059D03*
X0094996Y0026335D03*
X0109406Y0032752D03*
X0109406Y0032949D03*
X0109406Y0033146D03*
X0067358Y0026531D03*
X0066965Y0026335D03*
D331*
X0099583Y0026138D03*
X0099583Y0036059D03*
D332*
X0107358Y0036059D03*
X0107555Y0026335D03*
D333*
X0094228Y0027122D03*
X0094228Y0027319D03*
X0094031Y0027673D03*
X0090921Y0032949D03*
X0090724Y0033343D03*
X0080409Y0029248D03*
X0080409Y0029051D03*
X0080213Y0028854D03*
X0080213Y0028657D03*
X0080213Y0028461D03*
X0076906Y0030626D03*
X0076906Y0030823D03*
X0073598Y0031177D03*
X0073402Y0031571D03*
X0073402Y0031768D03*
X0070094Y0031768D03*
X0070094Y0031571D03*
X0070094Y0031374D03*
X0070094Y0031177D03*
X0070094Y0030823D03*
X0070094Y0030626D03*
X0070094Y0030429D03*
X0069898Y0029839D03*
X0069898Y0029642D03*
X0069898Y0032358D03*
X0069898Y0032555D03*
X0069898Y0032752D03*
X0059780Y0029051D03*
X0059780Y0028854D03*
X0059780Y0028657D03*
X0059583Y0029248D03*
X0059583Y0029445D03*
X0052575Y0026728D03*
X0052575Y0026531D03*
X0045961Y0026925D03*
X0045961Y0027122D03*
X0045764Y0026531D03*
X0045764Y0026335D03*
X0049268Y0035862D03*
D334*
X0049268Y0035272D03*
X0059386Y0035862D03*
X0059583Y0031571D03*
X0077299Y0031374D03*
D335*
X0099484Y0035862D03*
X0099484Y0026335D03*
D336*
X0103362Y0027319D03*
X0107654Y0026728D03*
X0107654Y0026531D03*
X0103362Y0034878D03*
X0107457Y0035862D03*
D337*
X0059878Y0031768D03*
X0059681Y0035665D03*
X0049169Y0035665D03*
X0049169Y0035469D03*
X0052673Y0026138D03*
D338*
X0079346Y0027122D03*
X0089071Y0035665D03*
X0094898Y0026531D03*
X0094898Y0026138D03*
X0109307Y0032161D03*
X0109307Y0032358D03*
X0109307Y0032555D03*
D339*
X0099386Y0035665D03*
X0099386Y0026531D03*
D340*
X0099209Y0027122D03*
X0099209Y0027319D03*
X0099209Y0034878D03*
X0099209Y0035075D03*
X0103264Y0035665D03*
X0107555Y0035075D03*
X0107555Y0034878D03*
X0107555Y0034681D03*
X0108146Y0031965D03*
X0108146Y0031768D03*
X0108146Y0031571D03*
X0108146Y0031374D03*
X0108146Y0031177D03*
X0108146Y0030823D03*
X0108146Y0030626D03*
X0108146Y0030429D03*
X0108146Y0030232D03*
X0108146Y0030035D03*
X0108146Y0029839D03*
X0108146Y0029642D03*
X0108146Y0029445D03*
X0108146Y0029248D03*
D341*
X0108047Y0029051D03*
X0108047Y0028854D03*
X0108047Y0028657D03*
X0108047Y0028461D03*
X0108047Y0028264D03*
X0103362Y0026728D03*
X0099307Y0026728D03*
X0099307Y0026925D03*
X0099307Y0035272D03*
X0099307Y0035469D03*
X0103362Y0035469D03*
D342*
X0107555Y0035272D03*
X0107949Y0028067D03*
X0107949Y0027870D03*
X0107949Y0027673D03*
D343*
X0107752Y0027122D03*
X0107752Y0026925D03*
X0103264Y0027122D03*
X0103264Y0035075D03*
D344*
X0095193Y0034504D03*
X0095193Y0031000D03*
X0095193Y0027496D03*
X0092083Y0031000D03*
X0088776Y0031000D03*
X0088776Y0027496D03*
X0085272Y0027496D03*
X0085272Y0031000D03*
X0085272Y0034504D03*
X0082358Y0034504D03*
X0080980Y0031000D03*
X0077673Y0031000D03*
X0075744Y0027496D03*
X0074957Y0027496D03*
X0079839Y0027496D03*
X0072437Y0034504D03*
X0068736Y0034504D03*
X0063657Y0034504D03*
X0063657Y0031000D03*
X0063657Y0027496D03*
X0059012Y0031000D03*
X0052201Y0027496D03*
X0051020Y0031000D03*
X0049642Y0034504D03*
X0048697Y0034504D03*
X0043224Y0031000D03*
X0046138Y0027496D03*
X0037201Y0027496D03*
X0037201Y0031000D03*
X0037201Y0034504D03*
X0088776Y0034504D03*
X0089957Y0034504D03*
D345*
X0078953Y0027496D03*
X0060646Y0034504D03*
X0055213Y0034504D03*
X0055213Y0031000D03*
X0055213Y0027496D03*
X0047417Y0031000D03*
X0043323Y0034504D03*
X0043323Y0027496D03*
D346*
X0099110Y0027496D03*
X0099110Y0034504D03*
X0107654Y0034504D03*
D347*
X0103382Y0034504D03*
D348*
X0111453Y0034504D03*
X0111453Y0031000D03*
X0111453Y0027496D03*
D349*
X0103283Y0027870D03*
X0103283Y0028067D03*
X0103283Y0034327D03*
D350*
X0107654Y0033933D03*
X0107654Y0033736D03*
X0103362Y0026335D03*
X0098913Y0028657D03*
X0098913Y0028854D03*
X0098913Y0029051D03*
X0098913Y0029248D03*
X0098913Y0029445D03*
X0098913Y0029642D03*
X0098913Y0029839D03*
X0098913Y0032555D03*
X0098913Y0032752D03*
X0098913Y0032949D03*
X0098913Y0033146D03*
X0098913Y0033343D03*
X0098913Y0033539D03*
D351*
X0098815Y0032358D03*
X0098815Y0032161D03*
X0098815Y0031965D03*
X0098815Y0031768D03*
X0098815Y0031571D03*
X0098815Y0031374D03*
X0098815Y0031177D03*
X0098815Y0030823D03*
X0098815Y0030626D03*
X0098815Y0030429D03*
X0098815Y0030232D03*
X0098815Y0030035D03*
X0107555Y0033146D03*
X0107555Y0033343D03*
X0107555Y0033539D03*
D352*
X0103382Y0033343D03*
X0103382Y0033146D03*
X0103382Y0032949D03*
X0103382Y0029248D03*
X0103382Y0029051D03*
X0103382Y0028854D03*
X0092673Y0025941D03*
D353*
X0090823Y0033146D03*
X0073500Y0031374D03*
X0069996Y0031965D03*
X0069996Y0032161D03*
X0069996Y0030232D03*
X0069996Y0030035D03*
X0052673Y0026335D03*
X0045862Y0026728D03*
D354*
X0107555Y0032358D03*
X0107555Y0032555D03*
X0107555Y0032752D03*
X0107555Y0032949D03*
D355*
X0103283Y0032752D03*
X0103283Y0032555D03*
X0103283Y0032358D03*
X0103283Y0032161D03*
X0103283Y0031965D03*
X0103283Y0031768D03*
X0103283Y0031571D03*
X0103283Y0031374D03*
X0103283Y0031177D03*
X0103283Y0030823D03*
X0103283Y0030626D03*
X0103283Y0030429D03*
X0103283Y0030232D03*
X0103283Y0030035D03*
X0103283Y0029839D03*
X0103283Y0029642D03*
X0103283Y0029445D03*
D356*
X0107457Y0032161D03*
D357*
X0040213Y0031374D03*
X0040213Y0031177D03*
D358*
X0070094Y0031000D03*
X0073598Y0031000D03*
X0077102Y0031000D03*
X0094031Y0027496D03*
D359*
X0098815Y0031000D03*
D360*
X0103283Y0031000D03*
D361*
X0108146Y0031000D03*
D362*
X0103382Y0027673D03*
X0099878Y0025744D03*
D363*
X0068638Y0027496D03*
X0060252Y0027496D03*
D364*
X0103283Y0027496D03*
D365*
X0107850Y0027496D03*
D366*
X0066394Y0026138D03*
D367*
X0049937Y0025941D03*
X0049937Y0025744D03*
D368*
X0058697Y0025744D03*
X0058697Y0025941D03*
X0107358Y0025941D03*
D369*
X0064543Y0025744D03*
M02*
